<svg width="67" height="29" viewBox="0 0 67 29" fill="none" xmlns="http://www.w3.org/2000/svg">
<path d="M33.08 14.6C33.08 9.90437 31.7994 6.02879 29.0328 3.3337C26.2702 0.642527 22.1812 -0.720001 16.88 -0.720001V1.28C21.8588 1.28 25.3698 2.55747 27.6372 4.7663C29.9006 6.97121 31.08 10.2556 31.08 14.6H33.08ZM16.88 -0.720001C10.6917 -0.720001 6.19126 0.666363 3.23785 3.38415C0.267616 6.11743 -0.96 10.0313 -0.96 14.68H1.04C1.04 10.3687 2.17238 7.08257 4.59215 4.85585C7.02874 2.61364 10.9483 1.28 16.88 1.28V-0.720001ZM-0.96 14.68C-0.96 20.4201 1.17282 24.2712 4.48173 26.6473C7.73463 28.9831 11.9936 29.8 16.12 29.8V27.8C12.2064 27.8 8.42537 27.0169 5.64828 25.0227C2.92718 23.0688 1.04 19.8599 1.04 14.68H-0.96ZM16.12 29.8C21.3278 29.8 25.5865 28.5348 28.5544 25.9318C31.5432 23.3104 33.08 19.4583 33.08 14.6H31.08C31.08 19.0217 29.6968 22.2696 27.2356 24.4282C24.7535 26.6052 21.0322 27.8 16.12 27.8V29.8ZM21.32 14.2C21.32 16.2999 20.9681 18.1819 20.1453 19.5077C19.3679 20.7604 18.124 21.6 16.04 21.6V23.6C18.796 23.6 20.6921 22.4196 21.8447 20.5623C22.9519 18.7781 23.32 16.4601 23.32 14.2H21.32ZM16.04 21.6C14.746 21.6 13.8283 21.2774 13.1598 20.8146C12.4847 20.3474 11.9965 19.6902 11.6447 18.9197C10.9259 17.3454 10.84 15.4445 10.84 14.24H8.84C8.84 15.4755 8.91411 17.7546 9.82533 19.7503C10.2885 20.7648 10.9828 21.7401 12.0215 22.4591C13.0667 23.1826 14.394 23.6 16.04 23.6V21.6ZM10.84 14.24C10.84 12.683 11.1107 10.8766 11.9184 9.49454C12.6841 8.18426 13.9548 7.2 16.2 7.2V5.2C13.2052 5.2 11.2959 6.59574 10.1916 8.48546C9.12927 10.3034 8.84 12.517 8.84 14.24H10.84ZM16.2 7.2C17.401 7.2 18.2739 7.48898 18.9226 7.91124C19.5762 8.33662 20.0625 8.93671 20.4233 9.64756C21.16 11.0993 21.32 12.9073 21.32 14.2H23.32C23.32 12.8127 23.16 10.6207 22.2067 8.74244C21.7225 7.78829 21.0213 6.89088 20.0136 6.23501C19.0011 5.57602 17.739 5.2 16.2 5.2V7.2ZM66.7006 28V29H67.7006V28H66.7006ZM66.7006 21.64H67.7006V20.64H66.7006V21.64ZM48.7406 21.72L47.8086 21.3576L47.2416 22.8156L48.803 22.7181L48.7406 21.72ZM51.1806 19.8L51.6278 20.6944L51.1806 19.8ZM56.7406 17.28L57.1322 18.2002L57.1345 18.1991L56.7406 17.28ZM63.1806 13.88L63.7841 14.6775L63.7938 14.67L63.1806 13.88ZM39.2206 10.12H38.2206V11.12H39.2206V10.12ZM47.5406 10.32L47.5143 11.3197L48.5046 11.3457L48.54 10.3557L47.5406 10.32ZM54.1006 11.44L54.517 12.3492L54.5197 12.348L54.1006 11.44ZM49.8206 13.4L50.2317 14.3116L50.237 14.3092L49.8206 13.4ZM40.2206 20.12L41.0658 20.6547L41.0714 20.6455L40.2206 20.12ZM38.4206 28H37.4206V29H38.4206V28ZM67.7006 28V21.64H65.7006V28H67.7006ZM66.7006 20.64H54.6206V22.64H66.7006V20.64ZM54.6206 20.64C53.9143 20.64 49.357 20.6795 48.6782 20.7219L48.803 22.7181C49.4043 22.6805 53.8869 22.64 54.6206 22.64V20.64ZM49.6726 22.0824C49.7922 21.775 50.0512 21.4827 51.6278 20.6944L50.7334 18.9056C49.27 19.6373 48.2491 20.225 47.8086 21.3576L49.6726 22.0824ZM51.6278 20.6944C53.4386 19.7891 55.2546 18.9991 57.1322 18.2002L56.3491 16.3598C54.4666 17.1609 52.6027 17.9709 50.7334 18.9056L51.6278 20.6944ZM57.1345 18.1991C60.5099 16.7526 62.2029 15.874 63.7841 14.6774L62.5772 13.0826C61.1984 14.126 59.6914 14.9274 56.3467 16.3609L57.1345 18.1991ZM63.7938 14.67C65.2406 13.5471 66.1227 12.4049 66.6348 11.2863C67.1473 10.1671 67.2606 9.13414 67.2606 8.28H65.2606C65.2606 8.94586 65.1739 9.6729 64.8164 10.4537C64.4586 11.2351 63.8007 12.1329 62.5675 13.09L63.7938 14.67ZM67.2606 8.28C67.2606 5.42871 66.1204 3.13233 63.6865 1.60756C61.3348 0.13428 57.8689 -0.56 53.3006 -0.56V1.44C57.7323 1.44 60.7464 2.12572 62.6247 3.30243C64.4209 4.42766 65.2606 6.05128 65.2606 8.28H67.2606ZM53.3006 -0.56C48.8211 -0.56 45.0569 -0.0886979 42.3993 1.51361C39.6216 3.18832 38.2206 5.98344 38.2206 10.12H40.2206C40.2206 6.49655 41.3997 4.45168 43.432 3.22639C45.5843 1.9287 48.8602 1.44 53.3006 1.44V-0.56ZM39.2206 11.12C39.5641 11.12 41.6241 11.1694 43.6255 11.2197C44.6202 11.2447 45.5924 11.2697 46.316 11.2884C46.6778 11.2978 46.9774 11.3056 47.1865 11.3111C47.2911 11.3138 47.3731 11.3159 47.4289 11.3174C47.4568 11.3181 47.4781 11.3187 47.4925 11.3191C47.4997 11.3193 47.5052 11.3194 47.5088 11.3195C47.5107 11.3196 47.512 11.3196 47.5129 11.3196C47.5134 11.3196 47.5137 11.3196 47.514 11.3196C47.5141 11.3196 47.5142 11.3196 47.5142 11.3197C47.5143 11.3197 47.5143 11.3197 47.5406 10.32C47.5669 9.32034 47.5669 9.32034 47.5668 9.32034C47.5668 9.32034 47.5667 9.32034 47.5666 9.32034C47.5663 9.32033 47.566 9.32032 47.5655 9.32031C47.5646 9.32028 47.5632 9.32025 47.5614 9.3202C47.5577 9.3201 47.5523 9.31996 47.5451 9.31977C47.5307 9.31939 47.5093 9.31883 47.4813 9.3181C47.4255 9.31663 47.3434 9.31448 47.2388 9.31175C47.0295 9.30628 46.7297 9.29846 46.3678 9.28908C45.6439 9.27033 44.6711 9.24532 43.6757 9.22031C41.6972 9.1706 39.5971 9.12 39.2206 9.12V11.12ZM48.54 10.3557C48.5779 9.29525 48.7678 8.57194 49.204 8.09439C49.6205 7.63839 50.4578 7.2 52.3006 7.2V5.2C50.1835 5.2 48.6808 5.70161 47.7272 6.74561C46.7934 7.76806 46.5834 9.10475 46.5413 10.2843L48.54 10.3557ZM52.3006 7.2C53.0234 7.2 53.9772 7.25317 54.7209 7.51732C55.0854 7.64678 55.3314 7.80389 55.4797 7.96779C55.6084 8.10999 55.7006 8.29515 55.7006 8.6H57.7006C57.7006 7.80485 57.4279 7.14001 56.9628 6.62596C56.5173 6.13361 55.9409 5.82822 55.3903 5.63268C54.304 5.24683 53.0579 5.2 52.3006 5.2V7.2ZM55.7006 8.6C55.7006 9.21356 55.2378 9.8138 53.6816 10.532L54.5197 12.348C56.0835 11.6262 57.7006 10.5464 57.7006 8.6H55.7006ZM53.6843 10.5308L49.4043 12.4908L50.237 14.3092L54.517 12.3492L53.6843 10.5308ZM49.4095 12.4884C47.349 13.4176 45.3139 14.443 43.5694 15.5957C41.8339 16.7423 40.3187 18.0582 39.3698 19.5945L41.0714 20.6455C41.8025 19.4618 43.0473 18.3377 44.6719 17.2643C46.2873 16.197 48.2122 15.2224 50.2317 14.3116L49.4095 12.4884ZM39.3755 19.5854C37.9997 21.76 37.4206 24.128 37.4206 28H39.4206C39.4206 24.352 39.9615 22.4 41.0657 20.6546L39.3755 19.5854ZM38.4206 29H66.7006V27H38.4206V29Z" fill="#8E8E8E"/>
</svg>
