<svg width="68" height="29" viewBox="0 0 68 29" fill="none" xmlns="http://www.w3.org/2000/svg">
<path d="M33.08 14.6C33.08 9.90437 31.7994 6.02879 29.0328 3.3337C26.2702 0.642527 22.1812 -0.720001 16.88 -0.720001V1.28C21.8588 1.28 25.3698 2.55747 27.6372 4.7663C29.9006 6.97121 31.08 10.2556 31.08 14.6H33.08ZM16.88 -0.720001C10.6917 -0.720001 6.19126 0.666363 3.23785 3.38415C0.267616 6.11743 -0.96 10.0313 -0.96 14.68H1.04C1.04 10.3687 2.17238 7.08257 4.59215 4.85585C7.02874 2.61364 10.9483 1.28 16.88 1.28V-0.720001ZM-0.96 14.68C-0.96 20.4201 1.17282 24.2712 4.48173 26.6473C7.73463 28.9831 11.9936 29.8 16.12 29.8V27.8C12.2064 27.8 8.42537 27.0169 5.64828 25.0227C2.92718 23.0688 1.04 19.8599 1.04 14.68H-0.96ZM16.12 29.8C21.3278 29.8 25.5865 28.5348 28.5544 25.9318C31.5432 23.3104 33.08 19.4583 33.08 14.6H31.08C31.08 19.0217 29.6968 22.2696 27.2356 24.4282C24.7535 26.6052 21.0322 27.8 16.12 27.8V29.8ZM21.32 14.2C21.32 16.2999 20.9681 18.1819 20.1453 19.5077C19.3679 20.7604 18.124 21.6 16.04 21.6V23.6C18.796 23.6 20.6921 22.4196 21.8447 20.5623C22.9519 18.7781 23.32 16.4601 23.32 14.2H21.32ZM16.04 21.6C14.746 21.6 13.8283 21.2774 13.1598 20.8146C12.4847 20.3474 11.9965 19.6902 11.6447 18.9197C10.9259 17.3454 10.84 15.4445 10.84 14.24H8.84C8.84 15.4755 8.91411 17.7546 9.82533 19.7503C10.2885 20.7648 10.9828 21.7401 12.0215 22.4591C13.0667 23.1826 14.394 23.6 16.04 23.6V21.6ZM10.84 14.24C10.84 12.683 11.1107 10.8766 11.9184 9.49454C12.6841 8.18426 13.9548 7.2 16.2 7.2V5.2C13.2052 5.2 11.2959 6.59574 10.1916 8.48546C9.12927 10.3034 8.84 12.517 8.84 14.24H10.84ZM16.2 7.2C17.401 7.2 18.2739 7.48898 18.9226 7.91124C19.5762 8.33662 20.0625 8.93671 20.4233 9.64756C21.16 11.0993 21.32 12.9073 21.32 14.2H23.32C23.32 12.8127 23.16 10.6207 22.2067 8.74244C21.7225 7.78829 21.0213 6.89088 20.0136 6.23501C19.0011 5.57602 17.739 5.2 16.2 5.2V7.2ZM46.6606 16.68H45.6606V17.68H46.6606V16.68ZM56.2206 21.6L55.6583 20.773L55.6488 20.7796L56.2206 21.6ZM44.3406 19.44L45.2893 19.1238L45.0505 18.4075L44.2962 18.441L44.3406 19.44ZM35.3406 19.84L35.2962 18.841L34.187 18.8903L34.3517 19.9883L35.3406 19.84ZM38.2606 25.44L38.9328 24.6995L38.9274 24.6948L38.2606 25.44ZM63.6206 26.48L64.1009 27.3571L64.1022 27.3564L63.6206 26.48ZM60.5406 13.6L60.3605 12.6164L60.4144 14.592L60.5406 13.6ZM38.7006 4.2L39.465 4.84493L39.4738 4.83418L38.7006 4.2ZM36.9406 8.12L35.9639 7.90559L35.71 9.06204L36.8926 9.11885L36.9406 8.12ZM46.1006 8.56L46.0526 9.55885L46.751 9.59239L47.0223 8.94806L46.1006 8.56ZM46.6606 11.52V10.52H45.6606V11.52H46.6606ZM46.6606 17.68H52.8606V15.68H46.6606V17.68ZM52.8606 17.68C54.3043 17.68 55.2029 17.8889 55.7128 18.1935C56.1294 18.4424 56.3406 18.7803 56.3406 19.4H58.3406C58.3406 18.1397 57.8118 17.1176 56.7384 16.4765C55.7584 15.8911 54.417 15.68 52.8606 15.68V17.68ZM56.3406 19.4C56.3406 19.7524 56.2509 20.3701 55.6583 20.7731L56.7829 22.4269C58.1904 21.4699 58.3406 20.0076 58.3406 19.4H56.3406ZM55.6488 20.7796C55.196 21.0952 54.4004 21.3126 53.506 21.4341C52.6515 21.5502 51.8633 21.56 51.5406 21.56V23.56C51.898 23.56 52.7897 23.5498 53.7753 23.4159C54.7209 23.2874 55.9253 23.0248 56.7924 22.4204L55.6488 20.7796ZM51.5406 21.56C50.7132 21.56 49.2957 21.5558 47.9729 21.2037C46.6388 20.8485 45.652 20.212 45.2893 19.1238L43.3919 19.7562C44.0692 21.788 45.8625 22.7115 47.4584 23.1363C49.0656 23.5642 50.7281 23.56 51.5406 23.56V21.56ZM44.2962 18.441L35.2962 18.841L35.385 20.839L44.385 20.439L44.2962 18.441ZM34.3517 19.9883C34.745 22.6106 35.8941 24.6645 37.5938 26.1852L38.9274 24.6948C37.5871 23.4955 36.6562 21.8694 36.3296 19.6917L34.3517 19.9883ZM37.5885 26.1805C40.493 28.8168 44.7666 29.64 51.6606 29.64V27.64C44.7947 27.64 41.2283 26.7832 38.9327 24.6995L37.5885 26.1805ZM51.6606 29.64C55.4167 29.64 60.4939 29.3324 64.1009 27.3571L63.1403 25.6029C60.0274 27.3076 55.4246 27.64 51.6606 27.64V29.64ZM64.1022 27.3564C68.1975 25.1063 68.6606 21.5384 68.6606 19.76H66.6606C66.6606 21.1816 66.3238 23.8537 63.1391 25.6036L64.1022 27.3564ZM68.6606 19.76C68.6606 16.8991 67.1813 15.1329 65.4368 14.0955C63.7488 13.0917 61.7992 12.7521 60.6669 12.608L60.4144 14.592C61.4821 14.7279 63.0925 15.0283 64.4145 15.8145C65.68 16.5671 66.6606 17.7409 66.6606 19.76H68.6606ZM60.7207 14.5836C62.1906 14.3145 63.9689 13.8221 65.3997 12.8188C66.879 11.7815 67.9806 10.1949 67.9806 7.88H65.9806C65.9806 9.44507 65.2823 10.4585 64.2515 11.1812C63.1724 11.9379 61.7306 12.3655 60.3605 12.6164L60.7207 14.5836ZM67.9806 7.88C67.9806 5.89402 67.4057 4.29011 66.3729 3.03468C65.3534 1.79548 63.9479 0.968326 62.4003 0.409445C59.336 -0.697115 55.4521 -0.840002 52.1006 -0.840002V1.16C55.4692 1.16 59.0253 1.31711 61.721 2.29055C63.0533 2.77167 64.1079 3.42952 64.8284 4.30532C65.5355 5.16489 65.9806 6.30598 65.9806 7.88H67.9806ZM52.1006 -0.840002C49.992 -0.840002 47.2851 -0.719448 44.7122 -0.129725C42.1578 0.455765 39.5925 1.53577 37.9274 3.56581L39.4738 4.83418C40.7287 3.30423 42.7834 2.36423 45.159 1.81972C47.5162 1.27945 50.0493 1.16 52.1006 1.16V-0.840002ZM37.9363 3.55513C36.706 5.01335 36.3394 6.19469 35.9639 7.90559L37.9174 8.33441C38.2618 6.76531 38.5353 5.94665 39.4649 4.84487L37.9363 3.55513ZM36.8926 9.11885L46.0526 9.55885L46.1486 7.56115L36.9886 7.12115L36.8926 9.11885ZM47.0223 8.94806C47.4084 8.03087 48.6102 7.08 52.3806 7.08V5.08C48.4711 5.08 46.0728 6.04912 45.179 8.17194L47.0223 8.94806ZM52.3806 7.08C53.2822 7.08 54.1959 7.18116 54.8506 7.47982C55.1644 7.62294 55.3772 7.79294 55.5122 7.98052C55.6401 8.15822 55.7406 8.40927 55.7406 8.8H57.7406C57.7406 8.03073 57.5311 7.36177 57.1353 6.81198C56.7466 6.27206 56.2219 5.90705 55.6806 5.66018C54.6254 5.17884 53.3591 5.08 52.3806 5.08V7.08ZM55.7406 8.8C55.7406 9.21102 55.627 9.4659 55.4828 9.64591C55.3263 9.84116 55.0774 10.0166 54.7144 10.1595C53.9628 10.4553 52.9671 10.52 52.1006 10.52V12.52C52.9941 12.52 54.3185 12.4647 55.4469 12.0205C56.0238 11.7934 56.6049 11.4438 57.0435 10.8966C57.4942 10.3341 57.7406 9.62898 57.7406 8.8H55.7406ZM52.1006 10.52H46.6606V12.52H52.1006V10.52ZM45.6606 11.52V16.68H47.6606V11.52H45.6606Z" fill="#8E8E8E"/>
</svg>
