<svg width="68" height="29" viewBox="0 0 68 29" fill="none" xmlns="http://www.w3.org/2000/svg">
<path d="M33.08 14.6C33.08 9.90437 31.7994 6.02879 29.0328 3.3337C26.2702 0.642527 22.1812 -0.720001 16.88 -0.720001V1.28C21.8588 1.28 25.3698 2.55747 27.6372 4.7663C29.9006 6.97121 31.08 10.2556 31.08 14.6H33.08ZM16.88 -0.720001C10.6917 -0.720001 6.19126 0.666363 3.23785 3.38415C0.267616 6.11743 -0.96 10.0313 -0.96 14.68H1.04C1.04 10.3687 2.17238 7.08257 4.59215 4.85585C7.02874 2.61364 10.9483 1.28 16.88 1.28V-0.720001ZM-0.96 14.68C-0.96 20.4201 1.17282 24.2712 4.48173 26.6473C7.73463 28.9831 11.9936 29.8 16.12 29.8V27.8C12.2064 27.8 8.42537 27.0169 5.64828 25.0227C2.92718 23.0688 1.04 19.8599 1.04 14.68H-0.96ZM16.12 29.8C21.3278 29.8 25.5865 28.5348 28.5544 25.9318C31.5432 23.3104 33.08 19.4583 33.08 14.6H31.08C31.08 19.0217 29.6968 22.2696 27.2356 24.4282C24.7535 26.6052 21.0322 27.8 16.12 27.8V29.8ZM21.32 14.2C21.32 16.2999 20.9681 18.1819 20.1453 19.5077C19.3679 20.7604 18.124 21.6 16.04 21.6V23.6C18.796 23.6 20.6921 22.4196 21.8447 20.5623C22.9519 18.7781 23.32 16.4601 23.32 14.2H21.32ZM16.04 21.6C14.746 21.6 13.8283 21.2774 13.1598 20.8146C12.4847 20.3474 11.9965 19.6902 11.6447 18.9197C10.9259 17.3454 10.84 15.4445 10.84 14.24H8.84C8.84 15.4755 8.91411 17.7546 9.82533 19.7503C10.2885 20.7648 10.9828 21.7401 12.0215 22.4591C13.0667 23.1826 14.394 23.6 16.04 23.6V21.6ZM10.84 14.24C10.84 12.683 11.1107 10.8766 11.9184 9.49454C12.6841 8.18426 13.9548 7.2 16.2 7.2V5.2C13.2052 5.2 11.2959 6.59574 10.1916 8.48546C9.12927 10.3034 8.84 12.517 8.84 14.24H10.84ZM16.2 7.2C17.401 7.2 18.2739 7.48898 18.9226 7.91124C19.5762 8.33662 20.0625 8.93671 20.4233 9.64756C21.16 11.0993 21.32 12.9073 21.32 14.2H23.32C23.32 12.8127 23.16 10.6207 22.2067 8.74244C21.7225 7.78829 21.0213 6.89088 20.0136 6.23501C19.0011 5.57602 17.739 5.2 16.2 5.2V7.2ZM39.7406 0.879999V-0.120001H38.8246L38.7445 0.79248L39.7406 0.879999ZM38.3806 16.36L37.3845 16.2725L37.2889 17.36H38.3806V16.36ZM46.7806 16.56L46.7547 17.5597L47.1314 17.5694L47.4208 17.3282L46.7806 16.56ZM46.5006 20L47.4781 19.7892L47.3021 18.9727L46.4673 19.0006L46.5006 20ZM36.9006 20.32L36.8673 19.3206L35.7934 19.3564L35.9061 20.4249L36.9006 20.32ZM66.6206 22.92L65.7707 22.3931L65.7678 22.3977L66.6206 22.92ZM66.3006 13.44L65.5227 14.0683L65.526 14.0724L66.3006 13.44ZM46.7806 11.16L45.7845 11.0721L45.6449 12.6539L47.1318 12.0963L46.7806 11.16ZM47.1406 7.08V6.08H46.225L46.1445 6.99211L47.1406 7.08ZM66.1406 7.08V8.08H67.0544L67.1366 7.16996L66.1406 7.08ZM66.7006 0.879999L67.6966 0.969955L67.795 -0.120001H66.7006V0.879999ZM38.7445 0.79248L37.3845 16.2725L39.3768 16.4475L40.7368 0.967517L38.7445 0.79248ZM38.3806 17.36C38.7043 17.36 40.7842 17.4094 42.8108 17.4597C43.818 17.4847 44.804 17.5097 45.5382 17.5284C45.9053 17.5378 46.2095 17.5456 46.4218 17.5511C46.528 17.5538 46.6113 17.556 46.6679 17.5574C46.6963 17.5582 46.718 17.5587 46.7326 17.5591C46.7399 17.5593 46.7454 17.5594 46.7491 17.5595C46.751 17.5596 46.7524 17.5596 46.7533 17.5596C46.7538 17.5596 46.7541 17.5596 46.7544 17.5597C46.7545 17.5597 46.7546 17.5597 46.7546 17.5597C46.7547 17.5597 46.7547 17.5597 46.7806 16.56C46.8065 15.5603 46.8065 15.5603 46.8064 15.5603C46.8064 15.5603 46.8063 15.5603 46.8062 15.5603C46.8059 15.5603 46.8056 15.5603 46.8051 15.5603C46.8042 15.5603 46.8028 15.5602 46.8009 15.5602C46.7972 15.5601 46.7916 15.5599 46.7843 15.5598C46.7697 15.5594 46.748 15.5588 46.7196 15.5581C46.6628 15.5566 46.5796 15.5545 46.4733 15.5517C46.2608 15.5463 45.9565 15.5385 45.5893 15.5291C44.8548 15.5103 43.8683 15.4853 42.8604 15.4603C40.857 15.4106 38.737 15.36 38.3806 15.36V17.36ZM47.4208 17.3282C48.5969 16.3482 50.2745 16 52.0606 16V14C50.0867 14 47.8444 14.3718 46.1404 15.7918L47.4208 17.3282ZM52.0606 16C53.0995 16 54.4661 16.1455 55.5339 16.6001C56.5755 17.0435 57.1406 17.6744 57.1406 18.64H59.1406C59.1406 16.5656 57.7657 15.3765 56.3173 14.7599C54.8952 14.1545 53.2217 14 52.0606 14V16ZM57.1406 18.64C57.1406 19.7144 56.5792 20.4195 55.6488 20.9107C54.676 21.4242 53.3832 21.64 52.2606 21.64V23.64C53.5781 23.64 55.2252 23.3958 56.5825 22.6793C57.9821 21.9405 59.1406 20.6456 59.1406 18.64H57.1406ZM52.2606 21.64C51.4872 21.64 50.2714 21.5013 49.2277 21.14C48.1099 20.7531 47.5786 20.2549 47.4781 19.7892L45.5231 20.2108C45.8626 21.7851 47.3513 22.6069 48.5735 23.03C49.8698 23.4787 51.3141 23.64 52.2606 23.64V21.64ZM46.4673 19.0006L36.8673 19.3206L36.9339 21.3194L46.5339 20.9994L46.4673 19.0006ZM35.9061 20.4249C36.3858 24.9699 39.7851 27.2705 43.1004 28.4106C46.4164 29.551 49.9117 29.64 51.1806 29.64V27.64C49.9696 27.64 46.7448 27.549 43.7508 26.5194C40.7561 25.4895 38.2555 23.6301 37.8951 20.2151L35.9061 20.4249ZM51.1806 29.64C53.9003 29.64 57.0838 29.5013 60.0115 28.6776C62.9512 27.8505 65.7189 26.3072 67.4734 23.4423L65.7678 22.3977C64.3623 24.6928 62.11 26.0095 59.4698 26.7524C56.8174 27.4987 53.8609 27.64 51.1806 27.64V29.64ZM67.4705 23.4469C68.8437 21.2321 68.9806 19.226 68.9806 18.24H66.9806C66.9806 19.014 66.8775 20.6079 65.7707 22.3931L67.4705 23.4469ZM68.9806 18.24C68.9806 17.1409 68.8867 15.0266 67.0753 12.8076L65.526 14.0724C66.9145 15.7734 66.9806 17.3391 66.9806 18.24H68.9806ZM67.0786 12.8117C64.2583 9.31989 59.4067 8.48 55.5406 8.48V10.48C59.2746 10.48 63.303 11.3201 65.5227 14.0683L67.0786 12.8117ZM55.5406 8.48C51.0383 8.48 48.0628 9.6112 46.4295 10.2237L47.1318 12.0963C48.6985 11.5088 51.403 10.48 55.5406 10.48V8.48ZM47.7768 11.2479L48.1368 7.16789L46.1445 6.99211L45.7845 11.0721L47.7768 11.2479ZM47.1406 8.08H66.1406V6.08H47.1406V8.08ZM67.1366 7.16996L67.6966 0.969955L65.7047 0.790042L65.1447 6.99004L67.1366 7.16996ZM66.7006 -0.120001H39.7406V1.88H66.7006V-0.120001Z" fill="#8E8E8E"/>
</svg>
