<svg width="83" height="26" viewBox="0 0 83 26" fill="none" xmlns="http://www.w3.org/2000/svg">
<path d="M12.005 7.16025C8.77529 7.16025 6.17021 9.76533 6.17021 12.995C6.17021 16.2247 8.77529 18.8298 12.005 18.8298C15.2347 18.8298 17.8397 16.2247 17.8397 12.995C17.8397 9.76533 15.2347 7.16025 12.005 7.16025ZM12.005 16.7884C9.91787 16.7884 8.21162 15.0872 8.21162 12.995C8.21162 10.9028 9.91279 9.20166 12.005 9.20166C14.0972 9.20166 15.7983 10.9028 15.7983 12.995C15.7983 15.0872 14.0921 16.7884 12.005 16.7884V16.7884ZM19.4394 6.92158C19.4394 7.67822 18.83 8.28252 18.0784 8.28252C17.3218 8.28252 16.7175 7.67314 16.7175 6.92158C16.7175 6.17002 17.3269 5.56064 18.0784 5.56064C18.83 5.56064 19.4394 6.17002 19.4394 6.92158ZM23.3038 8.30283C23.2175 6.47979 22.8011 4.86494 21.4655 3.53447C20.1351 2.204 18.5202 1.7876 16.6972 1.69619C14.8183 1.58955 9.18662 1.58955 7.30771 1.69619C5.48975 1.78252 3.8749 2.19893 2.53936 3.52939C1.20381 4.85986 0.79248 6.47471 0.701074 8.29775C0.594434 10.1767 0.594434 15.8083 0.701074 17.6872C0.787402 19.5103 1.20381 21.1251 2.53936 22.4556C3.8749 23.786 5.48467 24.2024 7.30771 24.2938C9.18662 24.4005 14.8183 24.4005 16.6972 24.2938C18.5202 24.2075 20.1351 23.7911 21.4655 22.4556C22.796 21.1251 23.2124 19.5103 23.3038 17.6872C23.4104 15.8083 23.4104 10.1817 23.3038 8.30283V8.30283ZM20.8765 19.7032C20.4804 20.6985 19.7136 21.4653 18.7132 21.8665C17.2151 22.4606 13.6604 22.3235 12.005 22.3235C10.3495 22.3235 6.78975 22.4556 5.29678 21.8665C4.30146 21.4704 3.53467 20.7036 3.1335 19.7032C2.53936 18.2052 2.67646 14.6505 2.67646 12.995C2.67646 11.3396 2.54443 7.77979 3.1335 6.28682C3.52959 5.2915 4.29639 4.52471 5.29678 4.12353C6.79482 3.52939 10.3495 3.6665 12.005 3.6665C13.6604 3.6665 17.2202 3.53447 18.7132 4.12353C19.7085 4.51963 20.4753 5.28643 20.8765 6.28682C21.4706 7.78486 21.3335 11.3396 21.3335 12.995C21.3335 14.6505 21.4706 18.2103 20.8765 19.7032Z" fill="white"/>
<path d="M81.8108 7.04533C81.5273 5.9778 80.692 5.13704 79.6313 4.85172C77.7089 4.33325 70 4.33325 70 4.33325C70 4.33325 62.2912 4.33325 60.3687 4.85172C59.3081 5.13709 58.4727 5.9778 58.1892 7.04533C57.6741 8.9803 57.6741 13.0174 57.6741 13.0174C57.6741 13.0174 57.6741 17.0546 58.1892 18.9895C58.4727 20.0571 59.3081 20.8628 60.3687 21.1481C62.2912 21.6666 70 21.6666 70 21.6666C70 21.6666 77.7088 21.6666 79.6313 21.1481C80.692 20.8628 81.5273 20.0571 81.8108 18.9895C82.326 17.0546 82.326 13.0174 82.326 13.0174C82.326 13.0174 82.326 8.9803 81.8108 7.04533V7.04533ZM67.4788 16.6828V9.35202L73.9219 13.0175L67.4788 16.6828V16.6828Z" fill="white"/>
</svg>
