<svg width="24" height="24" viewBox="0 0 24 24" fill="none" xmlns="http://www.w3.org/2000/svg">
<path d="M12.005 6.16025C8.77529 6.16025 6.17021 8.76533 6.17021 11.995C6.17021 15.2247 8.77529 17.8298 12.005 17.8298C15.2347 17.8298 17.8397 15.2247 17.8397 11.995C17.8397 8.76533 15.2347 6.16025 12.005 6.16025ZM12.005 15.7884C9.91787 15.7884 8.21162 14.0872 8.21162 11.995C8.21162 9.90283 9.91279 8.20166 12.005 8.20166C14.0972 8.20166 15.7983 9.90283 15.7983 11.995C15.7983 14.0872 14.0921 15.7884 12.005 15.7884ZM19.4394 5.92158C19.4394 6.67822 18.83 7.28252 18.0784 7.28252C17.3218 7.28252 16.7175 6.67314 16.7175 5.92158C16.7175 5.17002 17.3269 4.56064 18.0784 4.56064C18.83 4.56064 19.4394 5.17002 19.4394 5.92158ZM23.3038 7.30283C23.2175 5.47979 22.8011 3.86494 21.4655 2.53447C20.1351 1.204 18.5202 0.787598 16.6972 0.696191C14.8183 0.589551 9.18662 0.589551 7.30771 0.696191C5.48975 0.78252 3.8749 1.19893 2.53936 2.52939C1.20381 3.85986 0.79248 5.47471 0.701074 7.29775C0.594434 9.17666 0.594434 14.8083 0.701074 16.6872C0.787402 18.5103 1.20381 20.1251 2.53936 21.4556C3.8749 22.786 5.48467 23.2024 7.30771 23.2938C9.18662 23.4005 14.8183 23.4005 16.6972 23.2938C18.5202 23.2075 20.1351 22.7911 21.4655 21.4556C22.796 20.1251 23.2124 18.5103 23.3038 16.6872C23.4104 14.8083 23.4104 9.18174 23.3038 7.30283ZM20.8765 18.7032C20.4804 19.6985 19.7136 20.4653 18.7132 20.8665C17.2151 21.4606 13.6604 21.3235 12.005 21.3235C10.3495 21.3235 6.78974 21.4556 5.29678 20.8665C4.30146 20.4704 3.53467 19.7036 3.1335 18.7032C2.53936 17.2052 2.67646 13.6505 2.67646 11.995C2.67646 10.3396 2.54443 6.77979 3.1335 5.28682C3.52959 4.2915 4.29639 3.52471 5.29678 3.12353C6.79482 2.52939 10.3495 2.6665 12.005 2.6665C13.6604 2.6665 17.2202 2.53447 18.7132 3.12353C19.7085 3.51963 20.4753 4.28643 20.8765 5.28682C21.4706 6.78486 21.3335 10.3396 21.3335 11.995C21.3335 13.6505 21.4706 17.2103 20.8765 18.7032Z" fill="#8E8E8E"/>
</svg>
