<svg width="30" height="29" viewBox="0 0 30 29" fill="none" xmlns="http://www.w3.org/2000/svg">
<path d="M15.0063 7.81257C11.0313 7.81257 7.82505 11.0188 7.82505 14.9938C7.82505 18.9688 11.0313 22.1751 15.0063 22.1751C18.9813 22.1751 22.1875 18.9688 22.1875 14.9938C22.1875 11.0188 18.9813 7.81257 15.0063 7.81257ZM15.0063 19.6626C12.4375 19.6626 10.3375 17.5688 10.3375 14.9938C10.3375 12.4188 12.4313 10.3251 15.0063 10.3251C17.5813 10.3251 19.675 12.4188 19.675 14.9938C19.675 17.5688 17.575 19.6626 15.0063 19.6626ZM24.1563 7.51882C24.1563 8.45007 23.4063 9.19382 22.4813 9.19382C21.55 9.19382 20.8063 8.44382 20.8063 7.51882C20.8063 6.59382 21.5563 5.84382 22.4813 5.84382C23.4063 5.84382 24.1563 6.59382 24.1563 7.51882ZM28.9125 9.21882C28.8063 6.97507 28.2938 4.98757 26.65 3.35007C25.0125 1.71257 23.025 1.20007 20.7813 1.08757C18.4688 0.956323 11.5375 0.956323 9.22505 1.08757C6.98755 1.19382 5.00005 1.70632 3.3563 3.34382C1.71255 4.98132 1.2063 6.96882 1.0938 9.21257C0.962549 11.5251 0.962549 18.4563 1.0938 20.7688C1.20005 23.0126 1.71255 25.0001 3.3563 26.6376C5.00005 28.2751 6.9813 28.7876 9.22505 28.9001C11.5375 29.0313 18.4688 29.0313 20.7813 28.9001C23.025 28.7938 25.0125 28.2813 26.65 26.6376C28.2875 25.0001 28.8 23.0126 28.9125 20.7688C29.0438 18.4563 29.0438 11.5313 28.9125 9.21882ZM25.925 23.2501C25.4375 24.4751 24.4938 25.4188 23.2625 25.9126C21.4188 26.6438 17.0438 26.4751 15.0063 26.4751C12.9688 26.4751 8.58755 26.6376 6.75005 25.9126C5.52505 25.4251 4.5813 24.4813 4.08755 23.2501C3.3563 21.4063 3.52505 17.0313 3.52505 14.9938C3.52505 12.9563 3.36255 8.57507 4.08755 6.73757C4.57505 5.51257 5.5188 4.56882 6.75005 4.07507C8.5938 3.34382 12.9688 3.51257 15.0063 3.51257C17.0438 3.51257 21.425 3.35007 23.2625 4.07507C24.4875 4.56257 25.4313 5.50632 25.925 6.73757C26.6563 8.58132 26.4875 12.9563 26.4875 14.9938C26.4875 17.0313 26.6563 21.4126 25.925 23.2501Z" fill="white"/>
</svg>
