<svg width="32" height="32" viewBox="0 0 32 32" fill="none" xmlns="http://www.w3.org/2000/svg">
<path d="M30.5364 8.67132C30.1874 7.35743 29.1593 6.32265 27.8539 5.97149C25.4878 5.33337 16 5.33337 16 5.33337C16 5.33337 6.5122 5.33337 4.14603 5.97149C2.84065 6.32271 1.81253 7.35743 1.46359 8.67132C0.82959 11.0528 0.82959 16.0216 0.82959 16.0216C0.82959 16.0216 0.82959 20.9904 1.46359 23.3719C1.81253 24.6858 2.84065 25.6774 4.14603 26.0286C6.5122 26.6667 16 26.6667 16 26.6667C16 26.6667 25.4878 26.6667 27.8539 26.0286C29.1593 25.6774 30.1874 24.6858 30.5364 23.3719C31.1704 20.9904 31.1704 16.0216 31.1704 16.0216C31.1704 16.0216 31.1704 11.0528 30.5364 8.67132ZM12.8969 20.5329V11.5103L20.8269 16.0217L12.8969 20.5329Z" fill="white"/>
</svg>
