<svg width="26" height="26" viewBox="0 0 26 26" fill="none" xmlns="http://www.w3.org/2000/svg">
<path d="M24.8108 7.04533C24.5273 5.9778 23.692 5.13704 22.6313 4.85172C20.7089 4.33325 13 4.33325 13 4.33325C13 4.33325 5.29119 4.33325 3.36868 4.85172C2.30805 5.13709 1.47271 5.9778 1.1892 7.04533C0.674072 8.9803 0.674072 13.0174 0.674072 13.0174C0.674072 13.0174 0.674072 17.0546 1.1892 18.9895C1.47271 20.0571 2.30805 20.8628 3.36868 21.1481C5.29119 21.6666 13 21.6666 13 21.6666C13 21.6666 20.7088 21.6666 22.6313 21.1481C23.692 20.8628 24.5273 20.0571 24.8108 18.9895C25.326 17.0546 25.326 13.0174 25.326 13.0174C25.326 13.0174 25.326 8.9803 24.8108 7.04533ZM10.4788 16.6828V9.35202L16.9219 13.0175L10.4788 16.6828Z" fill="#8E8E8E"/>
</svg>
