<svg width="57" height="29" viewBox="0 0 57 29" fill="none" xmlns="http://www.w3.org/2000/svg">
<path d="M33.08 14.6C33.08 9.90437 31.7994 6.02879 29.0328 3.3337C26.2702 0.642527 22.1812 -0.720001 16.88 -0.720001V1.28C21.8588 1.28 25.3698 2.55747 27.6372 4.7663C29.9006 6.97121 31.08 10.2556 31.08 14.6H33.08ZM16.88 -0.720001C10.6917 -0.720001 6.19126 0.666363 3.23785 3.38415C0.267616 6.11743 -0.96 10.0313 -0.96 14.68H1.04C1.04 10.3687 2.17238 7.08257 4.59215 4.85585C7.02874 2.61364 10.9483 1.28 16.88 1.28V-0.720001ZM-0.96 14.68C-0.96 20.4201 1.17282 24.2712 4.48173 26.6473C7.73463 28.9831 11.9936 29.8 16.12 29.8V27.8C12.2064 27.8 8.42537 27.0169 5.64828 25.0227C2.92718 23.0688 1.04 19.8599 1.04 14.68H-0.96ZM16.12 29.8C21.3278 29.8 25.5865 28.5348 28.5544 25.9318C31.5432 23.3104 33.08 19.4583 33.08 14.6H31.08C31.08 19.0217 29.6968 22.2696 27.2356 24.4282C24.7535 26.6052 21.0322 27.8 16.12 27.8V29.8ZM21.32 14.2C21.32 16.2999 20.9681 18.1819 20.1453 19.5077C19.3679 20.7604 18.124 21.6 16.04 21.6V23.6C18.796 23.6 20.6921 22.4196 21.8447 20.5623C22.9519 18.7781 23.32 16.4601 23.32 14.2H21.32ZM16.04 21.6C14.746 21.6 13.8283 21.2774 13.1598 20.8146C12.4847 20.3474 11.9965 19.6902 11.6447 18.9197C10.9259 17.3454 10.84 15.4445 10.84 14.24H8.84C8.84 15.4755 8.91411 17.7546 9.82533 19.7503C10.2885 20.7648 10.9828 21.7401 12.0215 22.4591C13.0667 23.1826 14.394 23.6 16.04 23.6V21.6ZM10.84 14.24C10.84 12.683 11.1107 10.8766 11.9184 9.49454C12.6841 8.18426 13.9548 7.2 16.2 7.2V5.2C13.2052 5.2 11.2959 6.59574 10.1916 8.48546C9.12927 10.3034 8.84 12.517 8.84 14.24H10.84ZM16.2 7.2C17.401 7.2 18.2739 7.48898 18.9226 7.91124C19.5762 8.33662 20.0625 8.93671 20.4233 9.64756C21.16 11.0993 21.32 12.9073 21.32 14.2H23.32C23.32 12.8127 23.16 10.6207 22.2067 8.74244C21.7225 7.78829 21.0213 6.89088 20.0136 6.23501C19.0011 5.57602 17.739 5.2 16.2 5.2V7.2ZM56.4181 28V29H57.4181V28H56.4181ZM56.4181 0.879999H57.4181V-0.120001H56.4181V0.879999ZM49.4181 0.879999V-0.120001H49.0941L48.8316 0.0700569L49.4181 0.879999ZM44.7381 3.6L45.0817 4.53912L45.0889 4.53649L45.0961 4.53375L44.7381 3.6ZM40.4981 4.52L40.3986 3.52496L39.4981 3.61501V4.52H40.4981ZM40.4981 10.28H39.4981V11.3572L40.5724 11.2772L40.4981 10.28ZM47.0581 9.04H48.0581V7.65257L46.7419 8.09131L47.0581 9.04ZM47.0581 28H46.0581V29H47.0581V28ZM57.4181 28V0.879999H55.4181V28H57.4181ZM56.4181 -0.120001H49.4181V1.88H56.4181V-0.120001ZM48.8316 0.0700569C47.6473 0.927702 46.6352 1.80185 44.3802 2.66625L45.0961 4.53375C47.6411 3.55815 48.869 2.5123 50.0046 1.68994L48.8316 0.0700569ZM44.3945 2.66088C42.8585 3.22284 41.9471 3.37011 40.3986 3.52496L40.5976 5.51504C42.2491 5.34989 43.3377 5.17716 45.0817 4.53912L44.3945 2.66088ZM39.4981 4.52V10.28H41.4981V4.52H39.4981ZM40.5724 11.2772C42.4615 11.1366 43.614 11.003 44.5795 10.8045C45.5491 10.6052 46.3085 10.344 47.3744 9.98868L46.7419 8.09131C45.6477 8.45604 45.0072 8.67479 44.1768 8.84548C43.3422 9.01702 42.2948 9.14344 40.4239 9.28276L40.5724 11.2772ZM46.0581 9.04V28H48.0581V9.04H46.0581ZM47.0581 29H56.4181V27H47.0581V29Z" fill="#8E8E8E"/>
</svg>
