<svg width="69" height="29" viewBox="0 0 69 29" fill="none" xmlns="http://www.w3.org/2000/svg">
<path d="M33.08 14.6C33.08 9.90437 31.7994 6.02879 29.0328 3.3337C26.2702 0.642527 22.1812 -0.720001 16.88 -0.720001V1.28C21.8588 1.28 25.3698 2.55747 27.6372 4.7663C29.9006 6.97121 31.08 10.2556 31.08 14.6H33.08ZM16.88 -0.720001C10.6917 -0.720001 6.19126 0.666363 3.23785 3.38415C0.267616 6.11743 -0.96 10.0313 -0.96 14.68H1.04C1.04 10.3687 2.17238 7.08257 4.59215 4.85585C7.02874 2.61364 10.9483 1.28 16.88 1.28V-0.720001ZM-0.96 14.68C-0.96 20.4201 1.17282 24.2712 4.48173 26.6473C7.73463 28.9831 11.9936 29.8 16.12 29.8V27.8C12.2064 27.8 8.42537 27.0169 5.64828 25.0227C2.92718 23.0688 1.04 19.8599 1.04 14.68H-0.96ZM16.12 29.8C21.3278 29.8 25.5865 28.5348 28.5544 25.9318C31.5432 23.3104 33.08 19.4583 33.08 14.6H31.08C31.08 19.0217 29.6968 22.2696 27.2356 24.4282C24.7535 26.6052 21.0322 27.8 16.12 27.8V29.8ZM21.32 14.2C21.32 16.2999 20.9681 18.1819 20.1453 19.5077C19.3679 20.7604 18.124 21.6 16.04 21.6V23.6C18.796 23.6 20.6921 22.4196 21.8447 20.5623C22.9519 18.7781 23.32 16.4601 23.32 14.2H21.32ZM16.04 21.6C14.746 21.6 13.8283 21.2774 13.1598 20.8146C12.4847 20.3474 11.9965 19.6902 11.6447 18.9197C10.9259 17.3454 10.84 15.4445 10.84 14.24H8.84C8.84 15.4755 8.91411 17.7546 9.82533 19.7503C10.2885 20.7648 10.9828 21.7401 12.0215 22.4591C13.0667 23.1826 14.394 23.6 16.04 23.6V21.6ZM10.84 14.24C10.84 12.683 11.1107 10.8766 11.9184 9.49454C12.6841 8.18426 13.9548 7.2 16.2 7.2V5.2C13.2052 5.2 11.2959 6.59574 10.1916 8.48546C9.12927 10.3034 8.84 12.517 8.84 14.24H10.84ZM16.2 7.2C17.401 7.2 18.2739 7.48898 18.9226 7.91124C19.5762 8.33662 20.0625 8.93671 20.4233 9.64756C21.16 11.0993 21.32 12.9073 21.32 14.2H23.32C23.32 12.8127 23.16 10.6207 22.2067 8.74244C21.7225 7.78829 21.0213 6.89088 20.0136 6.23501C19.0011 5.57602 17.739 5.2 16.2 5.2V7.2ZM68.2206 23.08V24.08H69.2206V23.08H68.2206ZM68.2206 16.72H69.2206V15.72H68.2206V16.72ZM63.5006 16.72H62.5006V17.72H63.5006V16.72ZM63.5006 0.919998H64.5006V-0.0800018H63.5006V0.919998ZM52.6606 0.919998V-0.0800018H52.2413L51.9474 0.219067L52.6606 0.919998ZM36.7006 17.16L35.9874 16.4591L35.7006 16.7509V17.16H36.7006ZM36.7006 23.08H35.7006V24.08H36.7006V23.08ZM54.4606 23.08H55.4606V22.08H54.4606V23.08ZM54.4606 28H53.4606V29H54.4606V28ZM63.4606 28V29H64.4606V28H63.4606ZM63.4606 23.08V22.08H62.4606V23.08H63.4606ZM54.4606 16.72V17.72H55.4606V16.72H54.4606ZM45.9406 16.72L45.2302 16.0162L43.5423 17.72H45.9406V16.72ZM54.4606 8.12H55.4606V5.68974L53.7502 7.4162L54.4606 8.12ZM69.2206 23.08V16.72H67.2206V23.08H69.2206ZM68.2206 15.72H63.5006V17.72H68.2206V15.72ZM64.5006 16.72V0.919998H62.5006V16.72H64.5006ZM63.5006 -0.0800018H52.6606V1.92H63.5006V-0.0800018ZM51.9474 0.219067L35.9874 16.4591L37.4139 17.8609L53.3739 1.62093L51.9474 0.219067ZM35.7006 17.16V23.08H37.7006V17.16H35.7006ZM36.7006 24.08H54.4606V22.08H36.7006V24.08ZM53.4606 23.08V28H55.4606V23.08H53.4606ZM54.4606 29H63.4606V27H54.4606V29ZM64.4606 28V23.08H62.4606V28H64.4606ZM63.4606 24.08H68.2206V22.08H63.4606V24.08ZM54.4606 15.72H45.9406V17.72H54.4606V15.72ZM46.651 17.4238L55.171 8.8238L53.7502 7.4162L45.2302 16.0162L46.651 17.4238ZM53.4606 8.12V16.72H55.4606V8.12H53.4606Z" fill="#8E8E8E"/>
</svg>
