<svg width="133" height="124" viewBox="0 0 133 124" fill="none" xmlns="http://www.w3.org/2000/svg">
<path fill-rule="evenodd" clip-rule="evenodd" d="M52.136 25.1802C51.4368 25.4533 51.1226 25.7052 51.1162 25.9981C51.115 26.0593 51.3564 26.0056 51.6527 25.8787C52.5308 25.5027 52.5596 25.5334 52.443 26.7227C52.3852 27.3139 52.3024 27.9227 52.2591 28.076C52.2022 28.2776 52.2693 28.3546 52.5018 28.3546C52.6784 28.3546 52.8229 28.2632 52.8229 28.1515C52.8229 28.0397 52.8953 27.3572 52.9837 26.6347C53.1936 24.9182 53.1221 24.7954 52.136 25.1802ZM49.3249 26.8967C49.0846 27.2691 48.9696 27.6146 49.0313 27.7796C49.1219 28.0212 49.1587 28.0128 49.3715 27.7014C49.6057 27.3588 49.6193 27.3705 50.0902 28.3255C50.4563 29.0679 50.6225 29.2657 50.7905 29.159C50.9719 29.0439 50.906 28.7785 50.4163 27.652C50.0893 26.9001 49.7989 26.2849 49.771 26.2849C49.743 26.2849 49.5423 26.5601 49.3249 26.8967ZM46.379 28.0618C45.9969 28.3698 45.9606 28.4817 46.032 29.131C46.095 29.7037 46.2289 29.9662 46.6686 30.3792C47.3155 30.9868 47.6523 31.0286 48.2188 30.572C49.1411 29.8286 48.3423 27.7178 47.1385 27.7178C46.9555 27.7178 46.6137 27.8725 46.379 28.0618ZM47.8624 29.0415C48.2938 29.7589 48.2046 30.1856 47.6233 30.1856C47.2474 30.1856 47.0969 30.0676 46.8101 29.5487C46.3889 28.7867 46.3866 28.7638 46.6968 28.4459C47.0124 28.1227 47.4416 28.3421 47.8624 29.0415ZM43.4765 29.9476C42.9927 30.4434 42.9588 30.7868 43.3856 30.8715C43.5439 30.903 43.6508 30.7887 43.6834 30.5531C43.7159 30.3177 43.8561 30.1678 44.0732 30.1361C44.5968 30.0598 44.7307 30.5172 44.507 31.6185C44.2336 32.9658 44.3551 33.0823 45.3318 32.4084C46.1195 31.8647 46.3488 31.5389 45.944 31.5389C45.8347 31.5389 45.5855 31.6537 45.3901 31.794C44.9333 32.1218 44.8698 32.0409 45.0575 31.3701C45.2857 30.5548 45.2444 30.141 44.8995 29.7876C44.4635 29.3408 44.0198 29.3908 43.4765 29.9476ZM39.647 32.9954C39.1112 33.5235 38.854 33.8932 38.9131 34.0507C38.9887 34.2527 39.0673 34.2322 39.3838 33.9274L39.7637 33.5617L40.6654 34.5601C41.4111 35.3858 41.5985 35.5196 41.7495 35.3331C41.8965 35.1518 41.7675 34.9185 41.088 34.1366C40.3659 33.306 40.2771 33.1372 40.4743 32.9696C40.7109 32.7683 40.7967 32.1731 40.5882 32.1793C40.524 32.181 40.1005 32.5483 39.647 32.9954ZM43.0853 33.3859C42.9753 33.6795 43.3511 33.9854 43.5593 33.772C43.729 33.5982 43.5733 33.131 43.3458 33.131C43.255 33.131 43.1378 33.2457 43.0853 33.3859ZM37.2748 35.3478C36.7966 35.8378 36.7228 36.1488 36.9717 36.6255C37.2115 37.0848 37.5698 37.1322 38.2217 36.7915C38.9803 36.3949 39.3064 36.3895 39.3064 36.7735C39.3064 37.1195 39.0493 37.3706 38.609 37.4543C38.4392 37.4866 38.2767 37.6376 38.2481 37.7898C38.1586 38.2658 38.8268 38.1123 39.3997 37.5253C39.9914 36.9189 40.0646 36.4916 39.6437 36.1012C39.2648 35.7496 38.9076 35.769 38.2647 36.1763C37.901 36.4065 37.6793 36.4629 37.5715 36.3524C37.3279 36.1028 37.4867 35.6097 37.8322 35.5425C38.0022 35.5094 38.1927 35.4011 38.2554 35.3018C38.6334 34.7036 37.8684 34.7394 37.2748 35.3478ZM35.0412 37.8508C34.7382 38.2574 34.1773 38.7979 34.1773 38.856C34.1773 38.9809 36.0491 40.4079 36.3875 40.5408C36.7206 40.6719 38.1013 39.0216 37.8748 38.7419C37.7489 38.5865 37.6038 38.6892 37.2471 39.1862C36.8068 39.7999 36.7686 39.8191 36.4952 39.5655C36.2154 39.306 36.2152 39.2867 36.4933 38.8815C36.671 38.6228 36.7391 38.3493 36.6728 38.1606C36.5794 37.8944 36.5224 37.9289 36.2152 38.4381C35.9177 38.9315 35.8189 38.995 35.5657 38.856C35.1737 38.6411 35.1887 38.469 35.6547 37.843C36.0094 37.3664 36.0302 37.1114 35.7143 37.1114C35.6471 37.1114 35.3441 37.4441 35.0412 37.8508ZM0 62.713V70.8807L5.08809 70.8329C10.6687 70.7804 10.6569 70.7824 11.1083 69.8071C11.3041 69.3846 11.3411 68.2368 11.3391 62.6411C11.3367 55.5386 11.333 55.5018 10.5618 54.9152C10.201 54.6409 9.77581 54.615 5.08529 54.5815L0 54.5452V62.713ZM16.8956 54.5893L14.604 54.6333V61.8784C14.604 69.6087 14.6189 69.7748 15.3753 70.4666C15.7063 70.7691 15.9789 70.7874 20.8344 70.8329L25.9454 70.8807V62.7528V54.6248H23.6149H21.2845V60.7546V66.8843H20.3523H19.4202V60.7639C19.4202 57.3977 19.3677 54.6215 19.3037 54.5944C19.2397 54.5674 18.156 54.5651 16.8956 54.5893ZM29.6338 54.5957L29.2052 54.6463L29.2454 62.7156L29.2856 70.785L34.1404 70.827C40.9009 70.8856 40.627 71.0565 40.627 66.7835C40.627 63.6427 40.5263 63.3415 39.3311 62.9089C38.5209 62.6156 38.5107 62.371 39.2987 62.129C39.6815 62.0115 40.0467 61.7476 40.2697 61.4272C40.5933 60.9623 40.6321 60.7054 40.6811 58.7088C40.7406 56.2854 40.5288 55.2851 39.8755 54.9017C39.6375 54.7619 38.1574 54.6812 34.801 54.6248C32.1948 54.5811 29.8695 54.568 29.6338 54.5957ZM48.2786 54.5866L43.6566 54.6296V62.7471V70.8646H45.987H48.3174V68.3172V65.7698H48.8551C49.4624 65.7698 49.3252 65.448 50.1751 68.8647C50.4351 69.9103 50.6478 70.7879 50.6478 70.8151C50.6478 70.8423 51.6965 70.8646 52.9783 70.8646H55.3087V69.8641C55.3087 69.0513 55.1682 68.4885 54.5601 66.864L53.8115 64.8646L54.3659 64.384L54.9203 63.9032L54.9666 59.813L55.013 55.7229L54.4772 55.1738C54.1826 54.8719 53.8004 54.6248 53.628 54.6248C53.4555 54.6248 53.2212 54.6065 53.1075 54.5842C52.9936 54.562 50.8207 54.5631 48.2786 54.5866ZM72.0877 55.1935C72.0877 55.55 72.2595 56.9113 72.4696 58.2186C72.6796 59.5257 72.9302 61.0969 73.0266 61.7098C73.1229 62.3228 73.2598 63.1467 73.3306 63.5408C73.4014 63.9348 73.5379 64.7588 73.6337 65.3717C73.7294 65.9847 73.9651 67.4535 74.1571 68.6356L74.5065 70.785H78.0643H81.6221L82.8327 63.302C83.4985 59.1863 84.0449 55.554 84.047 55.2303L84.0505 54.6416L81.8674 54.5935C80.6666 54.5669 79.5969 54.5811 79.4902 54.6248C79.379 54.6705 79.2805 55.0442 79.2594 55.5005C79.2392 55.9384 79.1574 57.013 79.078 57.8887C78.9985 58.7644 78.8565 60.5197 78.7625 61.7894C78.5201 65.0626 78.3502 66.7289 78.2483 66.8333C78.1998 66.883 78.0663 66.8867 77.9517 66.8416C77.7968 66.7808 77.6716 65.8003 77.466 63.0405C77.3136 60.9951 77.1255 58.7126 77.0478 57.9683C76.9701 57.224 76.9048 56.2568 76.9028 55.8189C76.9008 55.3811 76.8415 54.9296 76.7709 54.8157C76.6766 54.6634 76.0384 54.6 74.3652 54.5769L72.0877 54.5452V55.1935ZM101.412 54.5893L99.1206 54.6333V62.7532V70.8729L101.461 70.8289L103.801 70.785L103.83 67.6803L103.859 64.5757H104.32C104.733 64.5757 104.795 64.6421 104.91 65.2125C104.981 65.5628 105.265 66.9599 105.543 68.3172L106.047 70.785L108.41 70.8289L110.773 70.8729V69.8694C110.773 69.0513 110.573 68.2535 109.692 65.552L108.611 62.2381L109.241 60.2226C109.587 59.1142 109.967 57.8847 110.086 57.4907C110.206 57.0966 110.304 56.2886 110.305 55.6952L110.307 54.6161L108.093 54.6603L105.879 54.7044L105.331 57.5703L104.784 60.4361H104.321H103.859L103.836 57.5206C103.824 55.917 103.789 54.5916 103.759 54.5752C103.728 54.5586 102.672 54.5651 101.412 54.5893ZM113.646 54.5997C113.604 54.6427 113.569 58.3199 113.569 62.7713V70.8646H115.9H118.23V62.7447V54.6248L116.482 54.6111C115.521 54.6037 114.507 54.5804 114.228 54.5596C113.95 54.5385 113.687 54.5567 113.646 54.5997ZM130.2 54.6248L128.264 54.7044L127.991 56.217C127.841 57.0489 127.596 58.4304 127.446 59.2869C126.984 61.9315 126.71 61.3409 125.817 55.7791L125.632 54.6248H123.251H120.871V55.6081C120.871 56.4857 121.072 57.1205 122.736 61.5037L124.6 66.4159V68.6402V70.8646H126.93H129.261V68.6546V66.4447L131.124 61.5298C132.82 57.057 132.988 56.5219 132.988 55.5801C132.99 54.3785 133.332 54.496 130.2 54.6248ZM58.829 54.9519C58.1243 55.5199 58.0842 55.9909 58.1352 63.1001L58.1829 69.7442L58.6906 70.2647L59.1981 70.785L63.5421 70.834C67.3655 70.8772 67.9521 70.8507 68.44 70.6135C69.4725 70.1114 69.461 70.2085 69.4125 62.4913L69.3689 55.5537L68.8615 55.0893L68.3541 54.6248H63.7944C59.4301 54.6248 59.2173 54.6388 58.829 54.9519ZM86.8107 55.0894L86.3033 55.554V58.5009C86.3033 62.0314 86.2065 61.8176 88.5675 63.5031C91.6911 65.7327 91.5856 65.6367 91.5856 66.2503V66.8047L88.9056 66.8483L86.2256 66.8917V68.8872V70.8826L90.6922 70.8337C95.5656 70.7805 95.6085 70.7726 96.0966 69.8354C96.3078 69.4301 96.3403 68.8974 96.2974 66.5372C96.2511 63.9764 96.2171 63.6817 95.9214 63.2733C95.5583 62.7721 94.6271 62.0249 92.4401 60.4802C91.2784 59.66 90.9641 59.3576 90.9641 59.0613V58.6848L93.2964 58.641L95.6287 58.5972L95.9764 57.5763C96.1886 56.953 96.3241 56.1792 96.3241 55.5901V54.6248H91.8211H87.3181L86.8107 55.0894ZM6.68054 62.7524V66.8994L5.70953 66.8521L4.73852 66.8047L4.69689 62.907C4.67389 60.7632 4.68927 58.9183 4.73076 58.8072C4.78032 58.6749 5.12972 58.6052 5.74356 58.6052H6.68054V62.7524ZM35.8885 59.5605V60.5157H34.9563H34.0242V59.5605V58.6052H34.9563H35.8885V59.5605ZM50.3039 60.1575L50.2594 61.7098H49.3273H48.3951L48.3507 60.1575L48.3062 58.6052H49.3273H50.3483L50.3039 60.1575ZM64.7857 62.7524V66.8994L63.8147 66.8521L62.8437 66.8047L62.8021 62.907C62.7791 60.7632 62.7945 58.9183 62.8359 58.8072C62.8855 58.6749 63.2349 58.6052 63.8487 58.6052H64.7857V62.7524ZM35.8885 65.6902V66.8843H34.9563H34.0242V65.6902V64.4961H34.9563H35.8885V65.6902ZM45.249 76.5391L44.5887 76.947V78.798V80.6489L44.0287 79.7774C43.7206 79.298 43.0865 78.3503 42.6197 77.6714C41.8421 76.5406 41.726 76.4371 41.2377 76.4371H40.7047V79.7009V82.9648H41.3261H41.9476V80.9614C41.9476 79.8565 42.0096 78.9818 42.0859 79.0111C42.162 79.0402 42.6984 79.7805 43.2779 80.6562C43.8576 81.5319 44.4421 82.4072 44.5768 82.6016C44.7537 82.8569 44.9834 82.9562 45.4044 82.9599L45.987 82.9648V79.5417C45.987 77.659 45.9694 76.1215 45.9481 76.1249C45.9269 76.1282 45.6121 76.3146 45.249 76.5391ZM66.6128 76.4839L66.0317 76.8351L66.0302 79.9L66.0286 82.9648H66.6501H67.2715V79.5417C67.2715 77.659 67.2539 76.1218 67.2327 76.1256C67.2114 76.1296 66.9324 76.2908 66.6128 76.4839ZM16.9914 76.7334C16.0358 77.3482 15.7611 78.204 16.2246 79.1225C16.4627 79.5943 17.1005 79.9304 18.5169 80.3302C19.4163 80.5841 19.6868 80.8903 19.4859 81.4268C19.367 81.7441 18.5177 82.0016 17.954 81.8912C17.7246 81.8463 17.4294 81.6414 17.2981 81.4359C17.0674 81.0751 17.0425 81.071 16.5696 81.3173C15.912 81.6599 15.9266 81.6285 16.2157 82.0809C16.5855 82.6593 17.318 82.9901 18.2475 82.9987C19.8645 83.0137 20.653 82.4945 20.7676 81.3394C20.8828 80.1807 20.4704 79.717 18.8834 79.2209C17.4218 78.7641 17.1061 78.4627 17.4943 77.8947C17.833 77.3992 18.9928 77.4067 19.3344 77.9064C19.5675 78.2475 19.5936 78.251 20.0034 77.9961C20.9758 77.3916 20.1639 76.557 18.5219 76.4734C17.6904 76.4309 17.3792 76.4839 16.9914 76.7334ZM28.8307 78.5272C29.977 80.6034 29.9848 80.6252 29.9848 81.7911V82.9648H30.6062H31.2277V81.8846C31.2277 80.8336 31.2593 80.747 32.3929 78.6974C33.0337 77.5388 33.5581 76.5562 33.5581 76.514C33.5581 76.4716 33.2447 76.4371 32.8616 76.4371C32.187 76.4371 32.1533 76.4608 31.7891 77.1933C31.5823 77.6092 31.2398 78.2607 31.0279 78.6411L30.6426 79.3325L29.8978 77.8848L29.153 76.4371H28.4148H27.6769L28.8307 78.5272ZM53.4443 79.7005V83L55.1145 82.9389C57.0153 82.8691 57.5303 82.6559 58.2038 81.6601C58.4998 81.2225 58.6277 80.7912 58.6873 80.0302C58.7572 79.1367 58.713 78.8794 58.3626 78.1456C57.7607 76.8849 57.0862 76.5437 55.0368 76.4633L53.4443 76.4009V79.7005ZM76.1809 76.7443C75.1907 77.2051 74.6953 78.1851 74.6858 79.7014C74.6793 80.7393 74.7341 80.9775 75.1308 81.632C75.705 82.5795 76.4809 83.0092 77.599 82.9989C78.5093 82.9904 78.9357 82.8187 79.5839 82.1992C80.1291 81.678 80.1227 81.44 79.5556 81.1394C79.117 80.907 79.0827 80.9157 78.6354 81.3741C78.3239 81.6933 78.0155 81.8503 77.7 81.8503C76.4877 81.8503 75.8934 80.9973 76.005 79.4171C76.0637 78.5845 76.1374 78.4002 76.5683 78.0055C76.9044 77.6979 77.2319 77.5516 77.5846 77.5516C78.146 77.5516 78.9236 78.0668 78.9236 78.4389C78.9236 78.7334 78.9586 78.7281 79.6117 78.3331C80.2161 77.9677 80.2016 77.7751 79.5205 77.1244C78.7414 76.3801 77.3131 76.2175 76.1809 76.7443ZM89.349 76.7953C89.1102 77.4457 87.3131 82.8346 87.3131 82.9003C87.3131 82.9358 87.6187 82.9648 87.9921 82.9648C88.6649 82.9648 88.6727 82.9584 88.8685 82.2423L89.0658 81.5198L90.3121 81.5656L91.5584 81.6115L91.7315 82.2484C91.8951 82.85 91.9407 82.8879 92.5608 82.9341C93.0632 82.9717 93.2169 82.9269 93.2169 82.7429C93.2169 82.6107 92.84 81.4066 92.3795 80.067C91.9188 78.7272 91.4589 77.3626 91.3575 77.0341C91.1742 76.4404 91.1683 76.4371 90.3268 76.4371C89.5917 76.4371 89.4632 76.4842 89.349 76.7953ZM100.208 76.9943V77.5516H101.14H102.072V80.2582V82.9648H102.772H103.471V80.2673V77.5699L104.123 77.5208C104.672 77.4798 104.823 77.3898 105.07 76.9545L105.364 76.4371H102.786H100.208V76.9943ZM112.585 76.5433C112.528 76.6015 112.482 78.0703 112.482 79.8071V82.9648H114.657H116.832V82.4076V81.8503H115.356H113.88V81.0543V80.2582H114.939C115.996 80.2582 115.998 80.2572 116.257 79.7009L116.516 79.1437H115.198H113.88V78.3476V77.5516H115.356H116.832V76.9943V76.4371H114.76C113.621 76.4371 112.642 76.4848 112.585 76.5433ZM56.4225 77.7786C57.1059 78.0712 57.395 78.6427 57.395 79.7009C57.395 81.1761 56.7674 81.8503 55.3941 81.8503H54.6872V79.7009V77.5516H55.2897C55.6211 77.5516 56.1308 77.6538 56.4225 77.7786ZM90.3783 80.3865C89.9552 80.4133 89.5826 80.408 89.5502 80.3747C89.5177 80.3415 89.6771 79.7474 89.9044 79.0545L90.3178 77.7947L90.7326 79.0662L91.1473 80.3378L90.3783 80.3865Z" fill="white"/>
<path fill-rule="evenodd" clip-rule="evenodd" d="M61.3618 4.61908V9.23816L60.4761 9.33783C54.4878 10.0114 49.6689 11.23 44.8538 13.2882C41.0807 14.9012 36.5604 17.5509 33.9322 19.6903C33.7144 19.8676 33.3025 20.1892 33.0169 20.4051C29.3719 23.1596 25.7775 27.0802 22.0085 32.4127C21.0073 33.8292 17.4614 40.4194 17.4614 40.8637C17.4614 40.9154 17.2941 41.3308 17.0895 41.7864C16.5133 43.0708 15.0134 47.5808 15 48.0696C14.9982 48.1344 16.6776 48.1861 18.7322 48.1845L22.4675 48.1817L22.8425 46.9681C23.2579 45.6232 23.545 44.8935 24.3271 43.1955C24.6176 42.565 24.8551 42.0203 24.8551 41.9848C24.8551 41.7668 26.9281 38.1069 27.832 36.7291C30.2134 33.0995 33.8769 29.035 37.1448 26.3969C43.8749 20.9642 51.9263 17.5997 60.3221 16.7114L61.3618 16.6014V19.2881V21.9747H64.9817H68.6015V19.3063V16.638H68.9521C69.6624 16.638 71.9655 16.9795 73.8041 17.3575C86.4125 19.9496 97.1003 27.8134 103.759 39.3975C105.024 41.5978 106.051 43.9221 107.452 47.7557L107.61 48.1873H111.305H115L114.898 47.7557C114.665 46.7726 113.725 43.9233 113.151 42.4582C108.417 30.3891 99.4616 20.4653 88.1152 14.7166C82.2647 11.7524 76.4304 10.0658 69.4872 9.33186L68.6015 9.23816V4.61908V0H64.9817H61.3618V4.61908ZM61.9009 31.8079C58.1811 32.2474 55.2504 33.1028 52.0426 34.6858C47.0654 37.1418 43.1305 40.6894 39.9421 45.5957C39.2671 46.6344 38.5644 47.913 38.5644 48.1026C38.5644 48.1492 40.3937 48.1873 42.6297 48.1873H46.6951L47.7989 46.8624C51.0167 43.0002 55.6817 40.2421 60.6995 39.2349C63.1089 38.7513 66.8118 38.7464 69.1407 39.2239C71.1739 39.6408 71.838 39.8357 73.4537 40.4904C76.7202 41.8142 79.8995 44.1442 82.2207 46.9156L83.2859 48.1873H87.3424C89.5735 48.1873 91.399 48.1268 91.399 48.0527C91.399 47.9787 90.9618 47.1763 90.4275 46.2697C85.7461 38.3273 77.6999 33.0182 68.6055 31.871C67.4091 31.72 62.9963 31.6785 61.9009 31.8079ZM20.1764 88.4873C21.5746 90.9849 23.3596 93.5398 25.4677 96.0608C34.0984 106.382 46.0231 112.891 59.0127 114.372L61.3618 114.64V119.32V124H64.9817H68.6015V119.304V114.609L69.7953 114.506C79.363 113.676 89.4606 109.577 97.0213 103.452C102.02 99.4023 106.806 93.7916 109.786 88.4873L110.204 87.7418L106 87.7419H101.796L100.719 89.1938C94.4799 97.6029 85.5497 103.671 75.9183 106.047C75.41 106.172 74.7514 106.337 74.4549 106.414C73.6603 106.619 71.1629 107.027 69.7953 107.174L68.6015 107.302V104.428V101.554H64.9817H61.3618V104.38V107.205L60.7072 107.2C59.367 107.19 55.88 106.571 53.5059 105.922C49.7382 104.891 45.5828 103.113 42.2284 101.095C40.4777 100.041 37.8208 98.098 36.1113 96.62C33.6871 94.5244 30.1868 90.6688 28.7278 88.4873L28.2291 87.7418H23.994H19.759L20.1764 88.4873ZM49.8091 88.0791C52.6883 89.8746 56.5163 91.2668 60.5916 92.0009C62.1261 92.2775 67.824 92.2791 69.3717 92.0034C70.9364 91.7248 73.2072 91.145 74.6926 90.6448C75.9137 90.2335 79.1292 88.7244 80.1543 88.0811L80.6934 87.7429H64.9817H49.2699L49.8091 88.0791Z" fill="#9545E4"/>
</svg>
