<svg width="280" height="50" viewBox="0 0 280 50" fill="none" xmlns="http://www.w3.org/2000/svg">
<rect x="0.5" y="0.5" width="279" height="49" stroke="white"/>
<path d="M31.76 32L31.74 20.02L25.88 30.14H25.38L19.52 20.06V32H18.52V18H19.38L25.64 28.82L31.9 18H32.74L32.76 32H31.76ZM40.8973 21.48C42.1907 21.48 43.184 21.8133 43.8773 22.48C44.5707 23.1333 44.9173 24.1 44.9173 25.38V32H43.9573V30.14C43.624 30.7533 43.1373 31.2333 42.4973 31.58C41.8573 31.9133 41.0907 32.08 40.1973 32.08C39.0373 32.08 38.1173 31.8067 37.4373 31.26C36.7707 30.7133 36.4373 29.9933 36.4373 29.1C36.4373 28.2333 36.744 27.5333 37.3573 27C37.984 26.4533 38.9773 26.18 40.3373 26.18H43.9173V25.34C43.9173 24.3667 43.6507 23.6267 43.1173 23.12C42.5973 22.6133 41.8307 22.36 40.8173 22.36C40.124 22.36 39.4573 22.48 38.8173 22.72C38.1907 22.96 37.6573 23.28 37.2173 23.68L36.7173 22.96C37.2373 22.4933 37.864 22.1333 38.5973 21.88C39.3307 21.6133 40.0973 21.48 40.8973 21.48ZM40.3373 31.26C41.204 31.26 41.9373 31.06 42.5373 30.66C43.1507 30.26 43.6107 29.68 43.9173 28.92V26.96H40.3573C39.3307 26.96 38.584 27.1467 38.1173 27.52C37.664 27.8933 37.4373 28.4067 37.4373 29.06C37.4373 29.74 37.6907 30.28 38.1973 30.68C38.704 31.0667 39.4173 31.26 40.3373 31.26ZM54.2403 21.48C55.2136 21.48 56.0936 21.7067 56.8803 22.16C57.667 22.6133 58.2803 23.24 58.7203 24.04C59.1736 24.84 59.4003 25.7533 59.4003 26.78C59.4003 27.8067 59.1736 28.7267 58.7203 29.54C58.2803 30.34 57.667 30.9667 56.8803 31.42C56.0936 31.86 55.2136 32.08 54.2403 32.08C53.3203 32.08 52.487 31.8667 51.7403 31.44C50.9936 31 50.4136 30.3933 50.0003 29.62V35.88H49.0003V21.56H49.9603V24.02C50.3736 23.22 50.9536 22.6 51.7003 22.16C52.4603 21.7067 53.307 21.48 54.2403 21.48ZM54.1803 31.18C54.9803 31.18 55.7003 30.9933 56.3403 30.62C56.9803 30.2467 57.4803 29.7267 57.8403 29.06C58.2136 28.3933 58.4003 27.6333 58.4003 26.78C58.4003 25.9267 58.2136 25.1667 57.8403 24.5C57.4803 23.8333 56.9803 23.3133 56.3403 22.94C55.7003 22.5667 54.9803 22.38 54.1803 22.38C53.3803 22.38 52.6603 22.5667 52.0203 22.94C51.3936 23.3133 50.8936 23.8333 50.5203 24.5C50.1603 25.1667 49.9803 25.9267 49.9803 26.78C49.9803 27.6333 50.1603 28.3933 50.5203 29.06C50.8936 29.7267 51.3936 30.2467 52.0203 30.62C52.6603 30.9933 53.3803 31.18 54.1803 31.18ZM66.1922 27.16H63.6522V32H62.6522V21.56H63.6522V26.3H66.1922L70.1322 21.56H71.2322L66.9922 26.62L71.5522 32H70.3522L66.1922 27.16ZM77.2841 21.48C78.5774 21.48 79.5707 21.8133 80.2641 22.48C80.9574 23.1333 81.3041 24.1 81.3041 25.38V32H80.3441V30.14C80.0107 30.7533 79.5241 31.2333 78.8841 31.58C78.2441 31.9133 77.4774 32.08 76.5841 32.08C75.4241 32.08 74.5041 31.8067 73.8241 31.26C73.1574 30.7133 72.8241 29.9933 72.8241 29.1C72.8241 28.2333 73.1307 27.5333 73.7441 27C74.3707 26.4533 75.3641 26.18 76.7241 26.18H80.3041V25.34C80.3041 24.3667 80.0374 23.6267 79.5041 23.12C78.9841 22.6133 78.2174 22.36 77.2041 22.36C76.5107 22.36 75.8441 22.48 75.2041 22.72C74.5774 22.96 74.0441 23.28 73.6041 23.68L73.1041 22.96C73.6241 22.4933 74.2507 22.1333 74.9841 21.88C75.7174 21.6133 76.4841 21.48 77.2841 21.48ZM76.7241 31.26C77.5907 31.26 78.3241 31.06 78.9241 30.66C79.5374 30.26 79.9974 29.68 80.3041 28.92V26.96H76.7441C75.7174 26.96 74.9707 27.1467 74.5041 27.52C74.0507 27.8933 73.8241 28.4067 73.8241 29.06C73.8241 29.74 74.0774 30.28 74.5841 30.68C75.0907 31.0667 75.8041 31.26 76.7241 31.26Z" fill="#8E8E8E"/>
<path fill-rule="evenodd" clip-rule="evenodd" d="M263.821 23.8164L259.932 26.8599C259.693 27.0467 259.307 27.0467 259.068 26.8599L255.179 23.8164C254.94 23.6296 254.94 23.3268 255.179 23.1401C255.418 22.9533 255.805 22.9533 256.043 23.1401L259.5 25.8454L262.957 23.1401C263.195 22.9533 263.582 22.9533 263.821 23.1401C264.06 23.3268 264.06 23.6296 263.821 23.8164Z" fill="white"/>
</svg>
