<svg width="280" height="50" viewBox="0 0 280 50" fill="none" xmlns="http://www.w3.org/2000/svg">
<rect x="0.5" y="0.5" width="279" height="49" stroke="white"/>
<path d="M24.52 32.1C23.1467 32.1 21.9067 31.7933 20.8 31.18C19.7067 30.5667 18.84 29.72 18.2 28.64C17.5733 27.56 17.26 26.3467 17.26 25C17.26 23.6533 17.5733 22.44 18.2 21.36C18.84 20.28 19.7067 19.4333 20.8 18.82C21.9067 18.2067 23.1467 17.9 24.52 17.9C25.5333 17.9 26.4667 18.0667 27.32 18.4C28.1733 18.72 28.9 19.2 29.5 19.84L28.86 20.5C27.74 19.3933 26.3067 18.84 24.56 18.84C23.3867 18.84 22.32 19.1067 21.36 19.64C20.4 20.1733 19.6467 20.9133 19.1 21.86C18.5533 22.7933 18.28 23.84 18.28 25C18.28 26.16 18.5533 27.2133 19.1 28.16C19.6467 29.0933 20.4 29.8267 21.36 30.36C22.32 30.8933 23.3867 31.16 24.56 31.16C26.2933 31.16 27.7267 30.6 28.86 29.48L29.5 30.14C28.9 30.78 28.1667 31.2667 27.3 31.6C26.4467 31.9333 25.52 32.1 24.52 32.1ZM39.1244 22.46H35.0444V32H34.0444V22.46H29.9644V21.56H39.1244V22.46ZM44.9372 32.08C43.9505 32.08 43.0572 31.8533 42.2572 31.4C41.4705 30.9467 40.8505 30.32 40.3972 29.52C39.9439 28.7067 39.7172 27.7933 39.7172 26.78C39.7172 25.7667 39.9439 24.86 40.3972 24.06C40.8505 23.2467 41.4705 22.6133 42.2572 22.16C43.0572 21.7067 43.9505 21.48 44.9372 21.48C45.9239 21.48 46.8105 21.7067 47.5972 22.16C48.3972 22.6133 49.0239 23.2467 49.4772 24.06C49.9305 24.86 50.1572 25.7667 50.1572 26.78C50.1572 27.7933 49.9305 28.7067 49.4772 29.52C49.0239 30.32 48.3972 30.9467 47.5972 31.4C46.8105 31.8533 45.9239 32.08 44.9372 32.08ZM44.9372 31.18C45.7372 31.18 46.4505 30.9933 47.0772 30.62C47.7172 30.2467 48.2172 29.7267 48.5772 29.06C48.9505 28.3933 49.1372 27.6333 49.1372 26.78C49.1372 25.9267 48.9505 25.1667 48.5772 24.5C48.2172 23.8333 47.7172 23.3133 47.0772 22.94C46.4505 22.5667 45.7372 22.38 44.9372 22.38C44.1372 22.38 43.4172 22.5667 42.7772 22.94C42.1505 23.3133 41.6505 23.8333 41.2772 24.5C40.9172 25.1667 40.7372 25.9267 40.7372 26.78C40.7372 27.6333 40.9172 28.3933 41.2772 29.06C41.6505 29.7267 42.1505 30.2467 42.7772 30.62C43.4172 30.9933 44.1372 31.18 44.9372 31.18ZM53.4139 21.56H54.4139V30.46L61.8539 21.56H62.7339V32H61.7339V23.1L54.2939 32H53.4139V21.56ZM78.4067 21.56V32H77.4867V23.16L72.9467 30.66H72.4867L67.9667 23.18V32H67.0467V21.56H68.0267L72.7467 29.46L77.4867 21.56H78.4067ZM86.8903 32.08C85.9036 32.08 85.0103 31.8533 84.2103 31.4C83.4236 30.9467 82.8036 30.32 82.3503 29.52C81.897 28.7067 81.6703 27.7933 81.6703 26.78C81.6703 25.7667 81.897 24.86 82.3503 24.06C82.8036 23.2467 83.4236 22.6133 84.2103 22.16C85.0103 21.7067 85.9036 21.48 86.8903 21.48C87.877 21.48 88.7636 21.7067 89.5503 22.16C90.3503 22.6133 90.977 23.2467 91.4303 24.06C91.8836 24.86 92.1103 25.7667 92.1103 26.78C92.1103 27.7933 91.8836 28.7067 91.4303 29.52C90.977 30.32 90.3503 30.9467 89.5503 31.4C88.7636 31.8533 87.877 32.08 86.8903 32.08ZM86.8903 31.18C87.6903 31.18 88.4036 30.9933 89.0303 30.62C89.6703 30.2467 90.1703 29.7267 90.5303 29.06C90.9036 28.3933 91.0903 27.6333 91.0903 26.78C91.0903 25.9267 90.9036 25.1667 90.5303 24.5C90.1703 23.8333 89.6703 23.3133 89.0303 22.94C88.4036 22.5667 87.6903 22.38 86.8903 22.38C86.0903 22.38 85.3703 22.5667 84.7303 22.94C84.1036 23.3133 83.6036 23.8333 83.2303 24.5C82.8703 25.1667 82.6903 25.9267 82.6903 26.78C82.6903 27.6333 82.8703 28.3933 83.2303 29.06C83.6036 29.7267 84.1036 30.2467 84.7303 30.62C85.3703 30.9933 86.0903 31.18 86.8903 31.18ZM99.587 32.08C98.5737 32.08 97.667 31.8533 96.867 31.4C96.067 30.9467 95.4404 30.32 94.987 29.52C94.5337 28.7067 94.307 27.7933 94.307 26.78C94.307 25.7533 94.5337 24.84 94.987 24.04C95.4404 23.2267 96.067 22.6 96.867 22.16C97.667 21.7067 98.5737 21.48 99.587 21.48C100.427 21.48 101.187 21.6467 101.867 21.98C102.56 22.3 103.12 22.7733 103.547 23.4L102.807 23.94C102.434 23.42 101.967 23.0333 101.407 22.78C100.86 22.5133 100.254 22.38 99.587 22.38C98.7737 22.38 98.0404 22.5667 97.387 22.94C96.747 23.3 96.2404 23.8133 95.867 24.48C95.507 25.1467 95.327 25.9133 95.327 26.78C95.327 27.6467 95.507 28.4133 95.867 29.08C96.2404 29.7467 96.747 30.2667 97.387 30.64C98.0404 31 98.7737 31.18 99.587 31.18C100.254 31.18 100.86 31.0533 101.407 30.8C101.967 30.5333 102.434 30.14 102.807 29.62L103.547 30.16C103.12 30.7867 102.56 31.2667 101.867 31.6C101.187 31.92 100.427 32.08 99.587 32.08ZM113.245 22.46H109.165V32H108.165V22.46H104.085V21.56H113.245V22.46ZM119.567 25.36C120.86 25.3733 121.847 25.66 122.527 26.22C123.207 26.7667 123.547 27.5733 123.547 28.64C123.547 29.7467 123.187 30.5933 122.467 31.18C121.747 31.7667 120.7 32.0533 119.327 32.04L115.387 32V21.56H116.387V25.32L119.567 25.36ZM119.307 31.24C120.36 31.2533 121.16 31.04 121.707 30.6C122.253 30.16 122.527 29.5067 122.527 28.64C122.527 27.8 122.26 27.18 121.727 26.78C121.193 26.3667 120.387 26.1467 119.307 26.12L116.387 26.1V31.2L119.307 31.24Z" fill="#8E8E8E"/>
<path fill-rule="evenodd" clip-rule="evenodd" d="M263.821 23.8164L259.932 26.8599C259.693 27.0467 259.307 27.0467 259.068 26.8599L255.179 23.8164C254.94 23.6296 254.94 23.3268 255.179 23.1401C255.418 22.9533 255.805 22.9533 256.043 23.1401L259.5 25.8454L262.957 23.1401C263.195 22.9533 263.582 22.9533 263.821 23.1401C264.06 23.3268 264.06 23.6296 263.821 23.8164Z" fill="white"/>
</svg>
