<svg width="280" height="50" viewBox="0 0 280 50" fill="none" xmlns="http://www.w3.org/2000/svg">
<rect x="0.5" y="0.5" width="279" height="49" stroke="white"/>
<path d="M24.52 32.1C23.1467 32.1 21.9067 31.7933 20.8 31.18C19.7067 30.5667 18.84 29.72 18.2 28.64C17.5733 27.56 17.26 26.3467 17.26 25C17.26 23.6533 17.5733 22.44 18.2 21.36C18.84 20.28 19.7067 19.4333 20.8 18.82C21.9067 18.2067 23.1467 17.9 24.52 17.9C25.5333 17.9 26.4667 18.0667 27.32 18.4C28.1733 18.72 28.9 19.2 29.5 19.84L28.86 20.5C27.74 19.3933 26.3067 18.84 24.56 18.84C23.3867 18.84 22.32 19.1067 21.36 19.64C20.4 20.1733 19.6467 20.9133 19.1 21.86C18.5533 22.7933 18.28 23.84 18.28 25C18.28 26.16 18.5533 27.2133 19.1 28.16C19.6467 29.0933 20.4 29.8267 21.36 30.36C22.32 30.8933 23.3867 31.16 24.56 31.16C26.2933 31.16 27.7267 30.6 28.86 29.48L29.5 30.14C28.9 30.78 28.1667 31.2667 27.3 31.6C26.4467 31.9333 25.52 32.1 24.52 32.1ZM36.1091 32.08C35.1224 32.08 34.2291 31.8533 33.4291 31.4C32.6424 30.9467 32.0224 30.32 31.5691 29.52C31.1157 28.7067 30.8891 27.7933 30.8891 26.78C30.8891 25.7667 31.1157 24.86 31.5691 24.06C32.0224 23.2467 32.6424 22.6133 33.4291 22.16C34.2291 21.7067 35.1224 21.48 36.1091 21.48C37.0957 21.48 37.9824 21.7067 38.7691 22.16C39.5691 22.6133 40.1957 23.2467 40.6491 24.06C41.1024 24.86 41.3291 25.7667 41.3291 26.78C41.3291 27.7933 41.1024 28.7067 40.6491 29.52C40.1957 30.32 39.5691 30.9467 38.7691 31.4C37.9824 31.8533 37.0957 32.08 36.1091 32.08ZM36.1091 31.18C36.9091 31.18 37.6224 30.9933 38.2491 30.62C38.8891 30.2467 39.3891 29.7267 39.7491 29.06C40.1224 28.3933 40.3091 27.6333 40.3091 26.78C40.3091 25.9267 40.1224 25.1667 39.7491 24.5C39.3891 23.8333 38.8891 23.3133 38.2491 22.94C37.6224 22.5667 36.9091 22.38 36.1091 22.38C35.3091 22.38 34.5891 22.5667 33.9491 22.94C33.3224 23.3133 32.8224 23.8333 32.4491 24.5C32.0891 25.1667 31.9091 25.9267 31.9091 26.78C31.9091 27.6333 32.0891 28.3933 32.4491 29.06C32.8224 29.7267 33.3224 30.2467 33.9491 30.62C34.5891 30.9933 35.3091 31.18 36.1091 31.18ZM49.8458 21.48C50.8191 21.48 51.6991 21.7067 52.4858 22.16C53.2724 22.6133 53.8858 23.24 54.3258 24.04C54.7791 24.84 55.0058 25.7533 55.0058 26.78C55.0058 27.8067 54.7791 28.7267 54.3258 29.54C53.8858 30.34 53.2724 30.9667 52.4858 31.42C51.6991 31.86 50.8191 32.08 49.8458 32.08C48.9258 32.08 48.0924 31.8667 47.3458 31.44C46.5991 31 46.0191 30.3933 45.6058 29.62V35.88H44.6058V21.56H45.5658V24.02C45.9791 23.22 46.5591 22.6 47.3058 22.16C48.0658 21.7067 48.9124 21.48 49.8458 21.48ZM49.7858 31.18C50.5858 31.18 51.3058 30.9933 51.9458 30.62C52.5858 30.2467 53.0858 29.7267 53.4458 29.06C53.8191 28.3933 54.0058 27.6333 54.0058 26.78C54.0058 25.9267 53.8191 25.1667 53.4458 24.5C53.0858 23.8333 52.5858 23.3133 51.9458 22.94C51.3058 22.5667 50.5858 22.38 49.7858 22.38C48.9858 22.38 48.2658 22.5667 47.6258 22.94C46.9991 23.3133 46.4991 23.8333 46.1258 24.5C45.7658 25.1667 45.5858 25.9267 45.5858 26.78C45.5858 27.6333 45.7658 28.3933 46.1258 29.06C46.4991 29.7267 46.9991 30.2467 47.6258 30.62C48.2658 30.9933 48.9858 31.18 49.7858 31.18ZM64.847 22.46H60.767V32H59.767V22.46H55.687V21.56H64.847V22.46ZM66.9881 21.56H67.9881V30.46L75.4281 21.56H76.3081V32H75.3081V23.1L67.8681 32H66.9881V21.56ZM85.8809 21.48C86.8543 21.48 87.7343 21.7067 88.5209 22.16C89.3076 22.6133 89.9209 23.24 90.3609 24.04C90.8143 24.84 91.0409 25.7533 91.0409 26.78C91.0409 27.8067 90.8143 28.7267 90.3609 29.54C89.9209 30.34 89.3076 30.9667 88.5209 31.42C87.7343 31.86 86.8543 32.08 85.8809 32.08C84.9609 32.08 84.1276 31.8667 83.3809 31.44C82.6343 31 82.0543 30.3933 81.6409 29.62V35.88H80.6409V21.56H81.6009V24.02C82.0143 23.22 82.5943 22.6 83.3409 22.16C84.1009 21.7067 84.9476 21.48 85.8809 21.48ZM85.8209 31.18C86.6209 31.18 87.3409 30.9933 87.9809 30.62C88.6209 30.2467 89.1209 29.7267 89.4809 29.06C89.8543 28.3933 90.0409 27.6333 90.0409 26.78C90.0409 25.9267 89.8543 25.1667 89.4809 24.5C89.1209 23.8333 88.6209 23.3133 87.9809 22.94C87.3409 22.5667 86.6209 22.38 85.8209 22.38C85.0209 22.38 84.3009 22.5667 83.6609 22.94C83.0343 23.3133 82.5343 23.8333 82.1609 24.5C81.8009 25.1667 81.6209 25.9267 81.6209 26.78C81.6209 27.6333 81.8009 28.3933 82.1609 29.06C82.5343 29.7267 83.0343 30.2467 83.6609 30.62C84.3009 30.9933 85.0209 31.18 85.8209 31.18ZM98.4528 32.08C97.4661 32.08 96.5728 31.8533 95.7728 31.4C94.9861 30.9467 94.3661 30.32 93.9128 29.52C93.4595 28.7067 93.2328 27.7933 93.2328 26.78C93.2328 25.7667 93.4595 24.86 93.9128 24.06C94.3661 23.2467 94.9861 22.6133 95.7728 22.16C96.5728 21.7067 97.4661 21.48 98.4528 21.48C99.4395 21.48 100.326 21.7067 101.113 22.16C101.913 22.6133 102.539 23.2467 102.993 24.06C103.446 24.86 103.673 25.7667 103.673 26.78C103.673 27.7933 103.446 28.7067 102.993 29.52C102.539 30.32 101.913 30.9467 101.113 31.4C100.326 31.8533 99.4395 32.08 98.4528 32.08ZM98.4528 31.18C99.2528 31.18 99.9661 30.9933 100.593 30.62C101.233 30.2467 101.733 29.7267 102.093 29.06C102.466 28.3933 102.653 27.6333 102.653 26.78C102.653 25.9267 102.466 25.1667 102.093 24.5C101.733 23.8333 101.233 23.3133 100.593 22.94C99.9661 22.5667 99.2528 22.38 98.4528 22.38C97.6528 22.38 96.9328 22.5667 96.2928 22.94C95.6661 23.3133 95.1661 23.8333 94.7928 24.5C94.4328 25.1667 94.2528 25.9267 94.2528 26.78C94.2528 27.6333 94.4328 28.3933 94.7928 29.06C95.1661 29.7267 95.6661 30.2467 96.2928 30.62C96.9328 30.9933 97.6528 31.18 98.4528 31.18ZM113.11 26.62C114.643 26.8867 115.41 27.7467 115.41 29.2C115.41 30.1067 115.076 30.8 114.41 31.28C113.756 31.76 112.77 32 111.45 32H106.93V21.56H111.33C112.49 21.56 113.396 21.7933 114.05 22.26C114.716 22.7133 115.05 23.3667 115.05 24.22C115.05 24.8333 114.876 25.3467 114.53 25.76C114.196 26.16 113.723 26.4467 113.11 26.62ZM107.91 26.32H111.27C112.163 26.32 112.85 26.1533 113.33 25.82C113.81 25.4733 114.05 24.98 114.05 24.34C114.05 23.6867 113.81 23.2 113.33 22.88C112.863 22.5467 112.176 22.38 111.27 22.38H107.91V26.32ZM111.43 31.18C113.416 31.18 114.41 30.5067 114.41 29.16C114.41 28.4533 114.183 27.9333 113.73 27.6C113.276 27.2667 112.563 27.1 111.59 27.1H107.91V31.18H111.43ZM122.421 21.48C123.714 21.48 124.707 21.8133 125.401 22.48C126.094 23.1333 126.441 24.1 126.441 25.38V32H125.481V30.14C125.147 30.7533 124.661 31.2333 124.021 31.58C123.381 31.9133 122.614 32.08 121.721 32.08C120.561 32.08 119.641 31.8067 118.961 31.26C118.294 30.7133 117.961 29.9933 117.961 29.1C117.961 28.2333 118.267 27.5333 118.881 27C119.507 26.4533 120.501 26.18 121.861 26.18H125.441V25.34C125.441 24.3667 125.174 23.6267 124.641 23.12C124.121 22.6133 123.354 22.36 122.341 22.36C121.647 22.36 120.981 22.48 120.341 22.72C119.714 22.96 119.181 23.28 118.741 23.68L118.241 22.96C118.761 22.4933 119.387 22.1333 120.121 21.88C120.854 21.6133 121.621 21.48 122.421 21.48ZM121.861 31.26C122.727 31.26 123.461 31.06 124.061 30.66C124.674 30.26 125.134 29.68 125.441 28.92V26.96H121.881C120.854 26.96 120.107 27.1467 119.641 27.52C119.187 27.8933 118.961 28.4067 118.961 29.06C118.961 29.74 119.214 30.28 119.721 30.68C120.227 31.0667 120.941 31.26 121.861 31.26ZM137.484 22.46H133.404V32H132.404V22.46H128.324V21.56H137.484V22.46ZM143.805 25.36C145.098 25.3733 146.085 25.66 146.765 26.22C147.445 26.7667 147.785 27.5733 147.785 28.64C147.785 29.7467 147.425 30.5933 146.705 31.18C145.985 31.7667 144.938 32.0533 143.565 32.04L139.625 32V21.56H140.625V25.32L143.805 25.36ZM143.545 31.24C144.598 31.2533 145.398 31.04 145.945 30.6C146.492 30.16 146.765 29.5067 146.765 28.64C146.765 27.8 146.498 27.18 145.965 26.78C145.432 26.3667 144.625 26.1467 143.545 26.12L140.625 26.1V31.2L143.545 31.24ZM164.936 21.56V32H163.936V22.46H156.816V32H155.816V21.56H164.936ZM173.414 32.08C172.427 32.08 171.534 31.8533 170.734 31.4C169.947 30.9467 169.327 30.32 168.874 29.52C168.42 28.7067 168.194 27.7933 168.194 26.78C168.194 25.7667 168.42 24.86 168.874 24.06C169.327 23.2467 169.947 22.6133 170.734 22.16C171.534 21.7067 172.427 21.48 173.414 21.48C174.4 21.48 175.287 21.7067 176.074 22.16C176.874 22.6133 177.5 23.2467 177.954 24.06C178.407 24.86 178.634 25.7667 178.634 26.78C178.634 27.7933 178.407 28.7067 177.954 29.52C177.5 30.32 176.874 30.9467 176.074 31.4C175.287 31.8533 174.4 32.08 173.414 32.08ZM173.414 31.18C174.214 31.18 174.927 30.9933 175.554 30.62C176.194 30.2467 176.694 29.7267 177.054 29.06C177.427 28.3933 177.614 27.6333 177.614 26.78C177.614 25.9267 177.427 25.1667 177.054 24.5C176.694 23.8333 176.194 23.3133 175.554 22.94C174.927 22.5667 174.214 22.38 173.414 22.38C172.614 22.38 171.894 22.5667 171.254 22.94C170.627 23.3133 170.127 23.8333 169.754 24.5C169.394 25.1667 169.214 25.9267 169.214 26.78C169.214 27.6333 169.394 28.3933 169.754 29.06C170.127 29.7267 170.627 30.2467 171.254 30.62C171.894 30.9933 172.614 31.18 173.414 31.18Z" fill="#8E8E8E"/>
<path fill-rule="evenodd" clip-rule="evenodd" d="M263.821 23.8164L259.932 26.8599C259.693 27.0467 259.307 27.0467 259.068 26.8599L255.179 23.8164C254.94 23.6296 254.94 23.3268 255.179 23.1401C255.418 22.9533 255.805 22.9533 256.043 23.1401L259.5 25.8454L262.957 23.1401C263.195 22.9533 263.582 22.9533 263.821 23.1401C264.06 23.3268 264.06 23.6296 263.821 23.8164Z" fill="white"/>
</svg>
