<svg width="26" height="26" viewBox="0 0 26 26" fill="none" xmlns="http://www.w3.org/2000/svg">
<path d="M13.005 7.16025C9.77529 7.16025 7.17021 9.76533 7.17021 12.995C7.17021 16.2247 9.77529 18.8298 13.005 18.8298C16.2347 18.8298 18.8397 16.2247 18.8397 12.995C18.8397 9.76533 16.2347 7.16025 13.005 7.16025ZM13.005 16.7884C10.9179 16.7884 9.21162 15.0872 9.21162 12.995C9.21162 10.9028 10.9128 9.20166 13.005 9.20166C15.0972 9.20166 16.7983 10.9028 16.7983 12.995C16.7983 15.0872 15.0921 16.7884 13.005 16.7884ZM20.4394 6.92158C20.4394 7.67822 19.83 8.28252 19.0784 8.28252C18.3218 8.28252 17.7175 7.67314 17.7175 6.92158C17.7175 6.17002 18.3269 5.56064 19.0784 5.56064C19.83 5.56064 20.4394 6.17002 20.4394 6.92158ZM24.3038 8.30283C24.2175 6.47979 23.8011 4.86494 22.4655 3.53447C21.1351 2.204 19.5202 1.7876 17.6972 1.69619C15.8183 1.58955 10.1866 1.58955 8.30771 1.69619C6.48975 1.78252 4.8749 2.19893 3.53936 3.52939C2.20381 4.85986 1.79248 6.47471 1.70107 8.29775C1.59443 10.1767 1.59443 15.8083 1.70107 17.6872C1.7874 19.5103 2.20381 21.1251 3.53936 22.4556C4.8749 23.786 6.48467 24.2024 8.30771 24.2938C10.1866 24.4005 15.8183 24.4005 17.6972 24.2938C19.5202 24.2075 21.1351 23.7911 22.4655 22.4556C23.796 21.1251 24.2124 19.5103 24.3038 17.6872C24.4104 15.8083 24.4104 10.1817 24.3038 8.30283ZM21.8765 19.7032C21.4804 20.6985 20.7136 21.4653 19.7132 21.8665C18.2151 22.4606 14.6604 22.3235 13.005 22.3235C11.3495 22.3235 7.78974 22.4556 6.29678 21.8665C5.30146 21.4704 4.53467 20.7036 4.1335 19.7032C3.53936 18.2052 3.67646 14.6505 3.67646 12.995C3.67646 11.3396 3.54443 7.77979 4.1335 6.28682C4.52959 5.2915 5.29639 4.52471 6.29678 4.12353C7.79482 3.52939 11.3495 3.6665 13.005 3.6665C14.6604 3.6665 18.2202 3.53447 19.7132 4.12353C20.7085 4.51963 21.4753 5.28643 21.8765 6.28682C22.4706 7.78486 22.3335 11.3396 22.3335 12.995C22.3335 14.6505 22.4706 18.2103 21.8765 19.7032Z" fill="#8E8E8E"/>
</svg>
