<svg width="35" height="18" viewBox="0 0 35 18" fill="none" xmlns="http://www.w3.org/2000/svg">
<path d="M20.848 8.96C20.848 6.07237 20.0594 3.62879 18.2988 1.9137C16.5422 0.202527 13.9732 -0.632 10.728 -0.632V1.368C13.6508 1.368 15.6418 2.11747 16.9032 3.3463C18.1606 4.57121 18.848 6.42363 18.848 8.96H20.848ZM10.728 -0.632C6.96373 -0.632 4.14726 0.210363 2.27185 1.93615C0.379616 3.67743 -0.376 6.15129 -0.376 9.008H1.624C1.624 6.48871 2.28438 4.64257 3.62615 3.40785C4.98474 2.15764 7.22028 1.368 10.728 1.368V-0.632ZM-0.376 9.008C-0.376 12.5641 0.952816 15.0032 3.05573 16.5133C5.10263 17.9831 7.75364 18.48 10.272 18.48V16.48C7.96636 16.48 5.79337 16.0169 4.22228 14.8887C2.70718 13.8008 1.624 12.0039 1.624 9.008H-0.376ZM10.272 18.48C13.4558 18.48 16.1185 17.7068 17.9964 16.0598C19.8952 14.3944 20.848 11.9623 20.848 8.96H18.848C18.848 11.5257 18.0488 13.3536 16.6776 14.5562C15.2855 15.7772 13.1602 16.48 10.272 16.48V18.48ZM12.992 8.72C12.992 9.94791 12.7841 10.9899 12.3473 11.6937C11.9559 12.3244 11.34 12.76 10.224 12.76V14.76C12.012 14.76 13.2801 13.9836 14.0467 12.7483C14.7679 11.5861 14.992 10.1081 14.992 8.72H12.992ZM10.224 12.76C9.51802 12.76 9.04926 12.5854 8.72352 12.3599C8.3912 12.1299 8.13947 11.7992 7.95067 11.3857C7.55789 10.5254 7.504 9.46045 7.504 8.744H5.504C5.504 9.49155 5.54611 10.9346 6.13133 12.2163C6.43153 12.8738 6.8893 13.5226 7.58523 14.0044C8.28774 14.4906 9.16598 14.76 10.224 14.76V12.76ZM7.504 8.744C7.504 7.84304 7.66274 6.84062 8.09639 6.09854C8.48809 5.42826 9.12279 4.92 10.32 4.92V2.92C8.37321 2.92 7.09992 3.83974 6.36961 5.08946C5.68127 6.26738 5.504 7.67696 5.504 8.744H7.504ZM10.32 4.92C10.973 4.92 11.4189 5.07598 11.7354 5.28199C12.0567 5.49112 12.3055 5.79171 12.4973 6.16956C12.896 6.95531 12.992 7.96332 12.992 8.72H14.992C14.992 7.86868 14.896 6.47669 14.2807 5.26444C13.9655 4.64329 13.5018 4.04538 12.8264 3.60576C12.1461 3.16302 11.311 2.92 10.32 2.92V4.92ZM34.4509 17V18H35.4509V17H34.4509ZM34.4509 0.727999H35.4509V-0.272001H34.4509V0.727999ZM30.2509 0.727999V-0.272001H29.9268L29.6644 -0.0819426L30.2509 0.727999ZM27.4429 2.36L27.7865 3.29912L27.7937 3.29649L27.8008 3.29375L27.4429 2.36ZM24.8989 2.912L24.7994 1.91696L23.8989 2.00701V2.912H24.8989ZM24.8989 6.368H23.8989V7.44524L24.9731 7.36524L24.8989 6.368ZM28.8349 5.624H29.8349V4.23657L28.5186 4.67532L28.8349 5.624ZM28.8349 17H27.8349V18H28.8349V17ZM35.4509 17V0.727999H33.4509V17H35.4509ZM34.4509 -0.272001H30.2509V1.728H34.4509V-0.272001ZM29.6644 -0.0819426C28.944 0.439702 28.3799 0.929846 27.0849 1.42625L27.8008 3.29375C29.3858 2.68615 30.1658 2.0243 30.8374 1.53794L29.6644 -0.0819426ZM27.0993 1.42088C26.2193 1.74284 25.7079 1.82611 24.7994 1.91696L24.9984 3.90704C26.0099 3.80589 26.6985 3.69716 27.7865 3.29912L27.0993 1.42088ZM23.8989 2.912V6.368H25.8989V2.912H23.8989ZM24.9731 7.36524C26.1102 7.28056 26.8228 7.19897 27.4282 7.07452C28.0378 6.94921 28.5173 6.78396 29.1511 6.57268L28.5186 4.67532C27.8565 4.89604 27.4959 5.01879 27.0255 5.11548C26.551 5.21303 25.9435 5.28744 24.8246 5.37076L24.9731 7.36524ZM27.8349 5.624V17H29.8349V5.624H27.8349ZM28.8349 18H34.4509V16H28.8349V18Z" fill="#8E8E8E"/>
</svg>
