<svg width="41" height="18" viewBox="0 0 41 18" fill="none" xmlns="http://www.w3.org/2000/svg">
<path d="M20.848 8.96C20.848 6.07237 20.0594 3.62879 18.2988 1.9137C16.5422 0.202527 13.9732 -0.632 10.728 -0.632V1.368C13.6508 1.368 15.6418 2.11747 16.9032 3.3463C18.1606 4.57121 18.848 6.42363 18.848 8.96H20.848ZM10.728 -0.632C6.96373 -0.632 4.14726 0.210363 2.27185 1.93615C0.379616 3.67743 -0.376 6.15129 -0.376 9.008H1.624C1.624 6.48871 2.28438 4.64257 3.62615 3.40785C4.98474 2.15764 7.22028 1.368 10.728 1.368V-0.632ZM-0.376 9.008C-0.376 12.5641 0.952816 15.0032 3.05573 16.5133C5.10263 17.9831 7.75364 18.48 10.272 18.48V16.48C7.96636 16.48 5.79337 16.0169 4.22228 14.8887C2.70718 13.8008 1.624 12.0039 1.624 9.008H-0.376ZM10.272 18.48C13.4558 18.48 16.1185 17.7068 17.9964 16.0598C19.8952 14.3944 20.848 11.9623 20.848 8.96H18.848C18.848 11.5257 18.0488 13.3536 16.6776 14.5562C15.2855 15.7772 13.1602 16.48 10.272 16.48V18.48ZM12.992 8.72C12.992 9.94791 12.7841 10.9899 12.3473 11.6937C11.9559 12.3244 11.34 12.76 10.224 12.76V14.76C12.012 14.76 13.2801 13.9836 14.0467 12.7483C14.7679 11.5861 14.992 10.1081 14.992 8.72H12.992ZM10.224 12.76C9.51802 12.76 9.04926 12.5854 8.72352 12.3599C8.3912 12.1299 8.13947 11.7992 7.95067 11.3857C7.55789 10.5254 7.504 9.46045 7.504 8.744H5.504C5.504 9.49155 5.54611 10.9346 6.13133 12.2163C6.43153 12.8738 6.8893 13.5226 7.58523 14.0044C8.28774 14.4906 9.16598 14.76 10.224 14.76V12.76ZM7.504 8.744C7.504 7.84304 7.66274 6.84062 8.09639 6.09854C8.48809 5.42826 9.12279 4.92 10.32 4.92V2.92C8.37321 2.92 7.09992 3.83974 6.36961 5.08946C5.68127 6.26738 5.504 7.67696 5.504 8.744H7.504ZM10.32 4.92C10.973 4.92 11.4189 5.07598 11.7354 5.28199C12.0567 5.49112 12.3055 5.79171 12.4973 6.16956C12.896 6.95531 12.992 7.96332 12.992 8.72H14.992C14.992 7.86868 14.896 6.47669 14.2807 5.26444C13.9655 4.64329 13.5018 4.04538 12.8264 3.60576C12.1461 3.16302 11.311 2.92 10.32 2.92V4.92ZM40.6204 17V18H41.6204V17H40.6204ZM40.6204 13.184H41.6204V12.184H40.6204V13.184ZM29.8444 13.232L28.9124 12.8696L28.3453 14.3276L29.9068 14.2301L29.8444 13.232ZM31.3084 12.08L31.7556 12.9744L31.3084 12.08ZM34.6444 10.568L35.0359 11.4882L35.0383 11.4871L34.6444 10.568ZM38.5084 8.528L39.1119 9.32547L39.1215 9.31799L38.5084 8.528ZM24.1324 6.272H23.1324V7.272H24.1324V6.272ZM29.1244 6.392L29.0981 7.39165L30.0884 7.41771L30.1237 6.42769L29.1244 6.392ZM33.0604 7.064L33.4767 7.9732L33.4794 7.97196L33.0604 7.064ZM30.4924 8.24L30.9035 9.1516L30.9087 9.1492L30.4924 8.24ZM24.7324 12.272L25.5775 12.8067L25.5832 12.7975L24.7324 12.272ZM23.6524 17H22.6524V18H23.6524V17ZM41.6204 17V13.184H39.6204V17H41.6204ZM40.6204 12.184H33.3724V14.184H40.6204V12.184ZM33.3724 12.184C32.9541 12.184 30.2047 12.2075 29.782 12.2339L29.9068 14.2301C30.252 14.2085 32.9267 14.184 33.3724 14.184V12.184ZM30.7764 13.5944C30.78 13.585 30.7861 13.5503 30.9056 13.4588C31.0537 13.3453 31.3011 13.2017 31.7556 12.9744L30.8612 11.1856C30.0058 11.6133 29.2408 12.025 28.9124 12.8696L30.7764 13.5944ZM31.7556 12.9744C32.8303 12.4371 33.9104 11.9671 35.0359 11.4882L34.2528 9.64785C33.1224 10.1289 31.9944 10.6189 30.8612 11.1856L31.7556 12.9744ZM35.0383 11.4871C37.0696 10.6166 38.1226 10.074 39.1118 9.32541L37.9049 7.73059C37.1181 8.326 36.2511 8.79142 34.2505 9.64886L35.0383 11.4871ZM39.1215 9.31799C40.0323 8.61107 40.6064 7.87688 40.9446 7.13832C41.2831 6.3991 41.3564 5.71814 41.3564 5.168H39.3564C39.3564 5.52986 39.3097 5.9049 39.1262 6.30567C38.9423 6.70712 38.5924 7.19693 37.8953 7.73801L39.1215 9.31799ZM41.3564 5.168C41.3564 3.33271 40.6122 1.82034 39.0243 0.825565C37.5186 -0.11772 35.3487 -0.536 32.5804 -0.536V1.464C35.2121 1.464 36.9302 1.87372 37.9625 2.52043C38.9126 3.11566 39.3564 3.95529 39.3564 5.168H41.3564ZM32.5804 -0.536C29.8848 -0.536 27.5287 -0.256698 25.833 0.765608C24.0173 1.86032 23.1324 3.68744 23.1324 6.272H25.1324C25.1324 4.20055 25.7954 3.12368 26.8657 2.47839C28.0561 1.7607 29.924 1.464 32.5804 1.464V-0.536ZM24.1324 7.272C24.3319 7.272 25.5598 7.3014 26.7653 7.33168C27.3619 7.34667 27.9451 7.36167 28.3792 7.37291C28.5963 7.37854 28.776 7.38322 28.9015 7.3865C28.9642 7.38814 29.0134 7.38943 29.0468 7.39031C29.0636 7.39075 29.0764 7.39108 29.085 7.39131C29.0893 7.39142 29.0926 7.39151 29.0948 7.39157C29.0959 7.3916 29.0967 7.39162 29.0972 7.39163C29.0975 7.39164 29.0977 7.39164 29.0979 7.39165C29.0979 7.39165 29.098 7.39165 29.098 7.39165C29.0981 7.39165 29.0981 7.39165 29.1244 6.392C29.1507 5.39235 29.1507 5.39234 29.1506 5.39234C29.1506 5.39234 29.1505 5.39234 29.1505 5.39234C29.1503 5.39234 29.1501 5.39233 29.1498 5.39232C29.1493 5.39231 29.1485 5.39229 29.1474 5.39226C29.1452 5.3922 29.1419 5.39211 29.1375 5.392C29.1289 5.39177 29.1161 5.39144 29.0993 5.391C29.0658 5.39012 29.0165 5.38883 28.9537 5.38718C28.8281 5.3839 28.6482 5.37921 28.431 5.37358C27.9966 5.36233 27.4128 5.34732 26.8155 5.33231C25.6329 5.3026 24.3649 5.272 24.1324 5.272V7.272ZM30.1237 6.42769C30.1456 5.81525 30.2556 5.50394 30.4178 5.32639C30.5602 5.17039 30.9295 4.92 31.9804 4.92V2.92C30.6552 2.92 29.6205 3.23361 28.941 3.97761C28.2812 4.70006 28.1511 5.62475 28.125 6.35631L30.1237 6.42769ZM31.9804 4.92C32.4071 4.92 32.921 4.95317 33.2987 5.08732C33.4801 5.15178 33.5617 5.21639 33.5912 5.24904C33.6011 5.25999 33.6204 5.27515 33.6204 5.36H35.6204C35.6204 4.78485 35.4206 4.29001 35.0743 3.90721C34.7476 3.54611 34.3356 3.33322 33.9681 3.20268C33.2478 2.94683 32.4416 2.92 31.9804 2.92V4.92ZM33.6204 5.36C33.6204 5.43364 33.6042 5.50965 33.4804 5.63477C33.3318 5.78506 33.0684 5.95895 32.6413 6.15604L33.4794 7.97196C34.4193 7.5382 35.6204 6.79444 35.6204 5.36H33.6204ZM32.644 6.1548L30.076 7.3308L30.9087 9.1492L33.4767 7.9732L32.644 6.1548ZM30.0813 7.32841C28.8368 7.88965 27.5937 8.51501 26.5211 9.22366C25.4577 9.92631 24.4945 10.7542 23.8816 11.7465L25.5832 12.7975C25.9783 12.1578 26.6711 11.5217 27.6236 10.8923C28.5671 10.269 29.7 9.69435 30.9035 9.15159L30.0813 7.32841ZM23.8873 11.7374C23.0075 13.128 22.6524 14.632 22.6524 17H24.6524C24.6524 14.856 24.9693 13.768 25.5775 12.8066L23.8873 11.7374ZM23.6524 18H40.6204V16H23.6524V18Z" fill="#8E8E8E"/>
</svg>
