<svg width="42" height="18" viewBox="0 0 42 18" fill="none" xmlns="http://www.w3.org/2000/svg">
<path d="M20.848 8.96C20.848 6.07237 20.0594 3.62879 18.2988 1.9137C16.5422 0.202527 13.9732 -0.632 10.728 -0.632V1.368C13.6508 1.368 15.6418 2.11747 16.9032 3.3463C18.1606 4.57121 18.848 6.42363 18.848 8.96H20.848ZM10.728 -0.632C6.96373 -0.632 4.14726 0.210363 2.27185 1.93615C0.379616 3.67743 -0.376 6.15129 -0.376 9.008H1.624C1.624 6.48871 2.28438 4.64257 3.62615 3.40785C4.98474 2.15764 7.22028 1.368 10.728 1.368V-0.632ZM-0.376 9.008C-0.376 12.5641 0.952816 15.0032 3.05573 16.5133C5.10263 17.9831 7.75364 18.48 10.272 18.48V16.48C7.96636 16.48 5.79337 16.0169 4.22228 14.8887C2.70718 13.8008 1.624 12.0039 1.624 9.008H-0.376ZM10.272 18.48C13.4558 18.48 16.1185 17.7068 17.9964 16.0598C19.8952 14.3944 20.848 11.9623 20.848 8.96H18.848C18.848 11.5257 18.0488 13.3536 16.6776 14.5562C15.2855 15.7772 13.1602 16.48 10.272 16.48V18.48ZM12.992 8.72C12.992 9.94791 12.7841 10.9899 12.3473 11.6937C11.9559 12.3244 11.34 12.76 10.224 12.76V14.76C12.012 14.76 13.2801 13.9836 14.0467 12.7483C14.7679 11.5861 14.992 10.1081 14.992 8.72H12.992ZM10.224 12.76C9.51802 12.76 9.04926 12.5854 8.72352 12.3599C8.3912 12.1299 8.13947 11.7992 7.95067 11.3857C7.55789 10.5254 7.504 9.46045 7.504 8.744H5.504C5.504 9.49155 5.54611 10.9346 6.13133 12.2163C6.43153 12.8738 6.8893 13.5226 7.58523 14.0044C8.28774 14.4906 9.16598 14.76 10.224 14.76V12.76ZM7.504 8.744C7.504 7.84304 7.66274 6.84062 8.09639 6.09854C8.48809 5.42826 9.12279 4.92 10.32 4.92V2.92C8.37321 2.92 7.09992 3.83974 6.36961 5.08946C5.68127 6.26738 5.504 7.67696 5.504 8.744H7.504ZM10.32 4.92C10.973 4.92 11.4189 5.07598 11.7354 5.28199C12.0567 5.49112 12.3055 5.79171 12.4973 6.16956C12.896 6.95531 12.992 7.96332 12.992 8.72H14.992C14.992 7.86868 14.896 6.47669 14.2807 5.26444C13.9655 4.64329 13.5018 4.04538 12.8264 3.60576C12.1461 3.16302 11.311 2.92 10.32 2.92V4.92ZM28.5964 10.208H27.5964V11.208H28.5964V10.208ZM34.3324 13.16L33.77 12.333L33.7606 12.3396L34.3324 13.16ZM27.2044 11.864L28.1531 11.5478L27.9143 10.8315L27.16 10.865L27.2044 11.864ZM21.8044 12.104L21.76 11.105L20.6507 11.1543L20.8154 12.2523L21.8044 12.104ZM23.5564 15.464L24.2285 14.7235L24.2232 14.7188L23.5564 15.464ZM38.7724 16.088L39.2527 16.9651L39.2539 16.9644L38.7724 16.088ZM36.9244 8.36L36.7443 7.37635L36.7981 9.352L36.9244 8.36ZM23.8204 2.72L24.5847 3.36493L24.5936 3.35418L23.8204 2.72ZM22.7644 5.072L21.7876 4.85759L21.5338 6.01404L22.7164 6.07085L22.7644 5.072ZM28.2604 5.336L28.2124 6.33485L28.9107 6.36839L29.182 5.72406L28.2604 5.336ZM28.5964 7.112V6.112H27.5964V7.112H28.5964ZM28.5964 11.208H32.3164V9.208H28.5964V11.208ZM32.3164 11.208C33.1601 11.208 33.6106 11.3329 33.8226 11.4595C33.9108 11.5122 33.9422 11.5558 33.958 11.5849C33.9756 11.6176 34.0044 11.6904 34.0044 11.84H36.0044C36.0044 10.9557 35.6236 10.2056 34.8482 9.74249C34.1661 9.33509 33.2727 9.208 32.3164 9.208V11.208ZM34.0044 11.84C34.0044 11.9072 33.995 12.0045 33.9594 12.0976C33.9283 12.1789 33.877 12.2603 33.7701 12.3331L34.8947 13.9869C35.9021 13.3019 36.0044 12.2556 36.0044 11.84H34.0044ZM33.7606 12.3396C33.5718 12.4712 33.1761 12.5926 32.6497 12.6641C32.1633 12.7302 31.711 12.736 31.5244 12.736V14.736C31.7457 14.736 32.3015 14.7298 32.919 14.6459C33.4966 14.5674 34.301 14.4008 34.9042 13.9804L33.7606 12.3396ZM31.5244 12.736C31.0249 12.736 30.2234 12.7318 29.4866 12.5357C28.7385 12.3365 28.3078 12.012 28.1531 11.5478L26.2557 12.1802C26.725 13.588 27.9622 14.1995 28.9721 14.4683C29.9933 14.7402 31.0398 14.736 31.5244 14.736V12.736ZM27.16 10.865L21.76 11.105L21.8488 13.103L27.2488 12.863L27.16 10.865ZM20.8154 12.2523C21.0648 13.9146 21.7979 15.2325 22.8896 16.2092L24.2232 14.7188C23.4909 14.0635 22.976 13.1734 22.7933 11.9557L20.8154 12.2523ZM22.8843 16.2045C24.7487 17.8968 27.4543 18.384 31.5964 18.384V16.384C27.4824 16.384 25.484 15.8632 24.2285 14.7235L22.8843 16.2045ZM31.5964 18.384C33.8484 18.384 36.9897 18.2044 39.2527 16.9651L38.2921 15.2109C36.5231 16.1796 33.8563 16.384 31.5964 16.384V18.384ZM39.2539 16.9644C41.8932 15.5143 42.1964 13.1944 42.1964 12.056H40.1964C40.1964 12.8376 40.0195 14.2617 38.2908 15.2116L39.2539 16.9644ZM42.1964 12.056C42.1964 10.1711 41.209 8.99292 40.0665 8.3135C38.9805 7.66767 37.7429 7.45611 37.0506 7.368L36.7981 9.352C37.4258 9.43188 38.3242 9.60433 39.0442 10.0325C39.7077 10.4271 40.1964 11.0129 40.1964 12.056H42.1964ZM37.1045 9.34365C38.0064 9.17851 39.1407 8.87007 40.0695 8.21877C41.0467 7.53354 41.7884 6.46693 41.7884 4.928H39.7884C39.7884 5.71707 39.45 6.21046 38.9213 6.58123C38.3441 6.98593 37.5464 7.22949 36.7443 7.37635L37.1045 9.34365ZM41.7884 4.928C41.7884 3.65402 41.4175 2.59911 40.7326 1.76668C40.0611 0.950481 39.1477 0.420326 38.176 0.0694451C36.2637 -0.621115 33.8678 -0.704001 31.8604 -0.704001V1.296C33.885 1.296 35.9531 1.39311 37.4967 1.95055C38.2531 2.22367 38.8156 2.58452 39.1881 3.03732C39.5473 3.47389 39.7884 4.06598 39.7884 4.928H41.7884ZM31.8604 -0.704001C30.5838 -0.704001 28.9248 -0.631448 27.338 -0.267724C25.7696 0.0917649 24.1283 0.767769 23.0472 2.08582L24.5936 3.35418C25.2645 2.53623 26.3952 2.00023 27.7848 1.68172C29.1559 1.36745 30.641 1.296 31.8604 1.296V-0.704001ZM23.0561 2.07513C22.2577 3.02135 22.0192 3.80269 21.7876 4.85759L23.7411 5.28641C23.9416 4.37331 24.087 3.95465 24.5847 3.36487L23.0561 2.07513ZM22.7164 6.07085L28.2124 6.33485L28.3084 4.33715L22.8124 4.07315L22.7164 6.07085ZM29.182 5.72406C29.3122 5.41487 29.7939 4.848 32.0284 4.848V2.848C29.6548 2.848 27.9766 3.43312 27.3387 4.94794L29.182 5.72406ZM32.0284 4.848C32.5539 4.848 33.0316 4.90916 33.3444 5.05182C33.4871 5.11695 33.5524 5.17994 33.5827 5.22202C33.6059 5.25422 33.6444 5.32127 33.6444 5.48H35.6444C35.6444 4.94273 35.4969 4.45778 35.2058 4.05348C34.9219 3.65906 34.5446 3.40105 34.1744 3.23218C33.4611 2.90684 32.6308 2.848 32.0284 2.848V4.848ZM33.6444 5.48C33.6444 5.64302 33.6028 5.7059 33.5775 5.73741C33.5401 5.78416 33.4572 5.85458 33.2821 5.92349C32.9065 6.07132 32.3749 6.112 31.8604 6.112V8.112C32.4019 8.112 33.2622 8.08068 34.0146 7.78451C34.4036 7.63142 34.8187 7.38684 35.1382 6.98808C35.47 6.5741 35.6444 6.06098 35.6444 5.48H33.6444ZM31.8604 6.112H28.5964V8.112H31.8604V6.112ZM27.5964 7.112V10.208H29.5964V7.112H27.5964Z" fill="#8E8E8E"/>
</svg>
