<svg width="219" height="22" viewBox="0 0 219 22" fill="none" xmlns="http://www.w3.org/2000/svg">
<path d="M18.74 14.28H23.92C23.7893 14.84 23.584 15.4093 23.304 15.988C23.0427 16.5667 22.604 17.2107 21.988 17.92C21.3907 18.6293 20.672 19.2547 19.832 19.796C19.0107 20.3187 17.9187 20.7573 16.556 21.112C15.212 21.4853 13.7187 21.672 12.076 21.672C8.45467 21.672 5.57067 20.7573 3.424 18.928C1.27733 17.08 0.204 14.4667 0.204 11.088C0.204 8.008 1.24 5.49733 3.312 3.556C5.40267 1.596 8.41733 0.615999 12.356 0.615999C15.3053 0.615999 17.7693 1.22267 19.748 2.436C21.7267 3.63067 23.0427 5.07733 23.696 6.776L18.292 7.448C16.892 5.32 14.9133 4.256 12.356 4.256C11.1053 4.256 10.004 4.47067 9.052 4.9C8.1 5.32933 7.36267 5.89867 6.84 6.608C6.336 7.31733 5.95333 8.05467 5.692 8.82C5.44933 9.58533 5.328 10.36 5.328 11.144C5.328 13.0853 5.99067 14.7187 7.316 16.044C8.66 17.3693 10.3867 18.032 12.496 18.032C15.5013 18.032 17.5827 16.7813 18.74 14.28ZM48.6991 21H43.7431V12.516H31.8151V21H26.8591V1.232H31.8151V8.848H43.7431V1.232H48.6991V21ZM73.2963 21H54.3123V1.232H72.7363V4.788H59.2683V9.24H72.2883V12.768H59.2683V17.472H73.2963V21ZM75.5216 16.044L80.0296 14.896C81.0003 16.9493 83.2309 17.976 86.7216 17.976C87.1136 17.976 87.5149 17.9573 87.9256 17.92C88.3363 17.864 88.8589 17.7613 89.4936 17.612C90.1283 17.4627 90.6416 17.2013 91.0336 16.828C91.4443 16.436 91.6496 15.9507 91.6496 15.372C91.6496 15.1107 91.6029 14.8773 91.5096 14.672C91.4349 14.4667 91.2763 14.2893 91.0336 14.14C90.8096 13.9907 90.5949 13.8693 90.3896 13.776C90.2029 13.6827 89.9043 13.5893 89.4936 13.496C89.0829 13.4027 88.7469 13.3373 88.4856 13.3C88.2429 13.244 87.8509 13.1787 87.3096 13.104C85.7416 12.8613 84.6496 12.6933 84.0336 12.6C83.4176 12.488 82.7363 12.3387 81.9896 12.152C81.2429 11.9653 80.6176 11.7507 80.1136 11.508C78.0416 10.5373 77.0056 8.96933 77.0056 6.804C77.0056 5.404 77.4443 4.228 78.3216 3.276C79.1989 2.30533 80.3096 1.624 81.6536 1.232C82.9976 0.821332 84.5283 0.615999 86.2456 0.615999C91.3789 0.615999 94.8323 2.19333 96.6056 5.348L91.9296 6.524C91.0896 4.93733 89.1483 4.144 86.1056 4.144C83.2309 4.144 81.7936 4.90933 81.7936 6.44C81.7936 7.24267 82.3163 7.812 83.3616 8.148C83.8096 8.27867 85.9283 8.68 89.7176 9.352C90.4083 9.48267 90.9776 9.59467 91.4256 9.688C91.8736 9.78133 92.4429 9.968 93.1336 10.248C93.8429 10.528 94.4029 10.8547 94.8136 11.228C95.2243 11.6013 95.5883 12.1147 95.9056 12.768C96.2229 13.4027 96.3816 14.14 96.3816 14.98C96.3816 19.404 93.0309 21.616 86.3296 21.616C83.5296 21.616 81.2709 21.1587 79.5536 20.244C77.8549 19.3293 76.5109 17.9293 75.5216 16.044ZM117.073 4.844H109.765V21H104.781V4.844H97.4454V1.232H117.073V4.844ZM152.48 21H146.936L145.256 17.276H135.12L133.44 21H128.036L137.584 1.232H142.932L152.48 21ZM143.66 13.776L140.216 6.048L136.716 13.776H143.66ZM173.409 1.232L164.533 21H159.717L150.785 1.232H156.245L162.153 15.82L168.089 1.232H173.409ZM194.073 4.844H186.765V21H181.781V4.844H174.445V1.232H194.073V4.844ZM194.591 11.116C194.591 9.268 194.927 7.65333 195.599 6.272C196.271 4.872 197.177 3.78 198.315 2.996C199.473 2.19333 200.742 1.596 202.123 1.204C203.523 0.811999 205.017 0.615999 206.603 0.615999C208.227 0.615999 209.73 0.793332 211.111 1.148C212.511 1.50267 213.799 2.06267 214.975 2.828C216.17 3.59333 217.113 4.66667 217.803 6.048C218.494 7.42933 218.839 9.05333 218.839 10.92C218.839 14.2427 217.785 16.8653 215.675 18.788C213.585 20.692 210.617 21.644 206.771 21.644C202.926 21.644 199.93 20.692 197.783 18.788C195.655 16.884 194.591 14.3267 194.591 11.116ZM199.687 11.256C199.687 12.096 199.818 12.908 200.079 13.692C200.341 14.4573 200.733 15.1853 201.255 15.876C201.797 16.548 202.534 17.0893 203.467 17.5C204.419 17.892 205.502 18.088 206.715 18.088C207.947 18.088 209.021 17.892 209.935 17.5C210.85 17.0893 211.541 16.6133 212.007 16.072C212.493 15.512 212.875 14.8773 213.155 14.168C213.454 13.4587 213.631 12.88 213.687 12.432C213.762 11.9653 213.799 11.536 213.799 11.144C213.799 9.24 213.174 7.60667 211.923 6.244C210.691 4.86267 208.955 4.172 206.715 4.172C204.438 4.172 202.693 4.88133 201.479 6.3C200.285 7.7 199.687 9.352 199.687 11.256Z" fill="white"/>
</svg>
