<svg width="108" height="100" viewBox="0 0 108 100" fill="none" xmlns="http://www.w3.org/2000/svg">
<path fill-rule="evenodd" clip-rule="evenodd" d="M42.0453 20.3067C41.4813 20.5269 41.228 20.7301 41.2228 20.9663C41.2218 21.0156 41.4165 20.9724 41.6555 20.87C42.3636 20.5667 42.3868 20.5915 42.2928 21.5507C42.2462 22.0274 42.1794 22.5184 42.1445 22.642C42.0986 22.8046 42.1528 22.8667 42.3402 22.8667C42.4827 22.8667 42.5992 22.793 42.5992 22.7029C42.5992 22.6128 42.6576 22.0623 42.7288 21.4797C42.8981 20.0954 42.8405 19.9964 42.0453 20.3067ZM39.7782 21.691C39.5844 21.9913 39.4917 22.2699 39.5414 22.403C39.6145 22.5979 39.6442 22.5911 39.8158 22.3399C40.0046 22.0636 40.0157 22.0731 40.3954 22.8432C40.6906 23.442 40.8247 23.6014 40.9601 23.5154C41.1064 23.4226 41.0533 23.2085 40.6584 22.3001C40.3947 21.6937 40.1605 21.1976 40.1379 21.1976C40.1154 21.1976 39.9535 21.4196 39.7782 21.691ZM37.4024 22.6306C37.0944 22.8789 37.065 22.9692 37.1227 23.4928C37.1734 23.9547 37.2814 24.1664 37.636 24.4994C38.1577 24.9894 38.4293 25.0232 38.8862 24.6549C39.63 24.0554 38.9858 22.3531 38.015 22.3531C37.8674 22.3531 37.5918 22.4779 37.4024 22.6306ZM38.5987 23.4206C38.9467 23.9992 38.8748 24.3433 38.4059 24.3433C38.1028 24.3433 37.9814 24.2482 37.7501 23.8297C37.4105 23.2152 37.4086 23.1967 37.6588 22.9403C37.9133 22.6797 38.2594 22.8566 38.5987 23.4206ZM35.0617 24.1514C34.6716 24.5512 34.6443 24.8281 34.9885 24.8965C35.1161 24.9219 35.2023 24.8297 35.2286 24.6397C35.2548 24.4499 35.3678 24.3289 35.543 24.3034C35.9652 24.2419 36.0732 24.6108 35.8928 25.4989C35.6723 26.5854 35.7703 26.6794 36.558 26.1359C37.1932 25.6974 37.3781 25.4347 37.0516 25.4347C36.9636 25.4347 36.7626 25.5273 36.605 25.6404C36.2366 25.9048 36.1854 25.8395 36.3367 25.2986C36.5208 24.6411 36.4874 24.3074 36.2093 24.0223C35.8577 23.662 35.4999 23.7023 35.0617 24.1514ZM31.9734 26.6093C31.5413 27.0352 31.3339 27.3333 31.3816 27.4603C31.4426 27.6232 31.506 27.6067 31.7612 27.3609L32.0675 27.066L32.7947 27.8712C33.3961 28.5371 33.5472 28.6449 33.669 28.4945C33.7875 28.3483 33.6835 28.1602 33.1355 27.5296C32.5532 26.8598 32.4816 26.7237 32.6406 26.5885C32.8314 26.4262 32.9006 25.9461 32.7324 25.9511C32.6807 25.9525 32.3392 26.2487 31.9734 26.6093ZM34.7463 26.9242C34.6576 27.161 34.9606 27.4077 35.1285 27.2356C35.2653 27.0954 35.1398 26.7187 34.9564 26.7187C34.8831 26.7187 34.7886 26.8111 34.7463 26.9242ZM30.0604 28.5064C29.6747 28.9016 29.6152 29.1523 29.8159 29.5368C30.0094 29.9072 30.2983 29.9454 30.824 29.6707C31.4358 29.3508 31.6988 29.3465 31.6988 29.6562C31.6988 29.9352 31.4914 30.1377 31.1364 30.2052C30.9994 30.2313 30.8684 30.353 30.8453 30.4757C30.7731 30.8596 31.312 30.7359 31.774 30.2625C32.2512 29.7734 32.3102 29.4288 31.9708 29.1139C31.6652 28.8304 31.3772 28.8461 30.8587 29.1745C30.5654 29.3602 30.3866 29.4057 30.2997 29.3166C30.1032 29.1152 30.2313 28.7176 30.5099 28.6634C30.647 28.6367 30.8006 28.5494 30.8512 28.4693C31.156 27.9869 30.5391 28.0158 30.0604 28.5064ZM28.259 30.5249C28.0147 30.8528 27.5624 31.2887 27.5624 31.3356C27.5624 31.4363 29.0719 32.5871 29.3448 32.6943C29.6134 32.8 30.7269 31.4691 30.5442 31.2436C30.4427 31.1182 30.3257 31.2011 30.0381 31.6019C29.683 32.0968 29.6522 32.1123 29.4316 31.9078C29.206 31.6985 29.2059 31.6829 29.4301 31.3562C29.5735 31.1475 29.6283 30.9269 29.5749 30.7748C29.4995 30.5601 29.4536 30.588 29.2059 30.9986C28.9659 31.3965 28.8862 31.4477 28.682 31.3356C28.3659 31.1623 28.3781 31.0235 28.7538 30.5186C29.0399 30.1343 29.0566 29.9286 28.8019 29.9286C28.7477 29.9286 28.5034 30.197 28.259 30.5249ZM0 50.5752V57.162L4.1033 57.1235C8.60378 57.0811 8.59426 57.0828 8.95835 56.2962C9.11622 55.9554 9.14604 55.0298 9.14441 50.5171C9.14253 44.7893 9.13953 44.7596 8.51758 44.2866C8.22665 44.0654 7.88373 44.0445 4.10105 44.0175L0 43.9882V50.5752ZM13.6255 44.0238L11.7774 44.0592V49.9021C11.7774 56.1362 11.7894 56.2701 12.3995 56.828C12.6664 57.072 12.8862 57.0867 16.802 57.1235L20.9237 57.162V50.6073V44.0524H19.0443H17.165V48.9957V53.9391H16.4132H15.6615V49.0033C15.6615 46.2886 15.6191 44.0497 15.5675 44.0279C15.5159 44.0061 14.642 44.0043 13.6255 44.0238ZM23.8983 44.0289L23.5526 44.0697L23.585 50.5772L23.6175 57.0848L27.5326 57.1187C32.9847 57.166 32.7638 57.3037 32.7638 53.8578C32.7638 51.3249 32.6826 51.082 31.7187 50.7331C31.0653 50.4966 31.0571 50.2994 31.6925 50.1042C32.0013 50.0094 32.2958 49.7966 32.4756 49.5382C32.7366 49.1633 32.7679 48.9561 32.8074 47.346C32.8554 45.3916 32.6846 44.5849 32.1577 44.2757C31.9658 44.163 30.7721 44.0979 28.0653 44.0524C25.9636 44.0171 24.0883 44.0066 23.8983 44.0289ZM38.9344 44.0216L35.207 44.0563V50.6026V57.149H37.0863H38.9657V55.0946V53.0403H39.3993C39.8891 53.0403 39.7785 52.7808 40.4638 55.5362C40.6736 56.3794 40.8451 57.0871 40.8451 57.1091C40.8451 57.131 41.6908 57.149 42.7245 57.149H44.6038V56.3422C44.6038 55.6867 44.4906 55.2328 44.0002 53.9228L43.3964 52.3103L43.8436 51.9227L44.2906 51.5349L44.3279 48.2364L44.3654 44.938L43.9333 44.4951C43.6957 44.2517 43.3875 44.0524 43.2484 44.0524C43.1094 44.0524 42.9204 44.0376 42.8287 44.0197C42.7369 44.0017 40.9845 44.0026 38.9344 44.0216ZM58.1353 44.5111C58.1353 44.7985 58.2739 45.8963 58.4433 46.9506C58.6127 48.0048 58.8148 49.2718 58.8925 49.7661C58.9702 50.2605 59.0805 50.9249 59.1377 51.2427C59.1948 51.5605 59.3048 52.225 59.3821 52.7193C59.4593 53.2136 59.6494 54.3981 59.8042 55.3514L60.086 57.0848H62.9552H65.8244L66.8006 51.0501C67.3376 47.731 67.7783 44.8017 67.7799 44.5407L67.7828 44.0659L66.0222 44.0271C65.0538 44.0057 64.1912 44.0171 64.1051 44.0524C64.0154 44.0893 63.936 44.3906 63.9189 44.7586C63.9026 45.1117 63.8367 45.9784 63.7727 46.6846C63.7086 47.3908 63.594 48.8064 63.5182 49.8303C63.3228 52.4699 63.1857 53.8137 63.1035 53.898C63.0644 53.938 62.9568 53.941 62.8643 53.9047C62.7394 53.8556 62.6384 53.0649 62.4727 50.8393C62.3498 49.1898 62.198 47.349 62.1354 46.7488C62.0728 46.1485 62.0201 45.3685 62.0185 45.0154C62.0169 44.6623 61.969 44.2982 61.9121 44.2064C61.8361 44.0835 61.3214 44.0324 59.972 44.0138L58.1353 43.9882V44.5111ZM81.7841 44.0238L79.9361 44.0592V50.6075V57.1557L81.8234 57.1203L83.7108 57.0848L83.7341 54.5811L83.7575 52.0773H84.1294C84.4625 52.0773 84.5121 52.1308 84.6048 52.5909C84.6618 52.8734 84.8915 54.0001 85.1151 55.0946L85.522 57.0848L87.4274 57.1203L89.333 57.1557V56.3464C89.333 55.6867 89.172 55.0433 88.4614 52.8646L87.5899 50.1922L88.0973 48.5668C88.3764 47.6729 88.6833 46.6814 88.7795 46.3636C88.8756 46.0458 88.955 45.3942 88.9557 44.9156L88.9571 44.0454L87.1717 44.081L85.3863 44.1166L84.9447 46.4278L84.5031 48.7389H84.1304H83.7575L83.7392 46.3877C83.7292 45.0945 83.701 44.0256 83.6765 44.0124C83.6521 43.999 82.8005 44.0043 81.7841 44.0238ZM91.6497 44.0321C91.6159 44.0668 91.5882 47.0323 91.5882 50.6222V57.149H93.4676H95.347V50.6007V44.0524L93.9374 44.0414C93.1623 44.0353 92.3442 44.0166 92.1196 43.9998C91.8951 43.9828 91.6836 43.9975 91.6497 44.0321ZM105 44.0524L103.439 44.1166L103.219 45.3364C103.098 46.0073 102.9 47.1214 102.779 47.8122C102.407 49.9449 102.185 49.4686 101.465 44.9833L101.316 44.0524H99.3965H97.4769V44.8454C97.4769 45.5531 97.6388 46.0651 98.9804 49.5999L100.484 53.5613V55.3552V57.149H102.363H104.243V55.3667V53.5846L105.745 49.6209C107.113 46.0138 107.248 45.5823 107.249 44.8228C107.25 43.8538 107.526 43.9485 105 44.0524ZM47.4428 44.3161C46.8745 44.7743 46.8422 45.1541 46.8833 50.8873L46.9217 56.2455L47.3312 56.6652L47.7405 57.0848L51.2437 57.1244C54.3271 57.1592 54.8002 57.1378 55.1936 56.9465C56.0263 56.5416 56.017 56.6199 55.9779 50.3963L55.9427 44.8015L55.5335 44.427L55.1243 44.0524H51.4471C47.9276 44.0524 47.7559 44.0637 47.4428 44.3161ZM70.0087 44.4271L69.5995 44.8017V47.1783C69.5995 50.0255 69.5215 49.8531 71.4255 51.2123C73.9445 53.0104 73.8594 52.9329 73.8594 53.4278V53.8749L71.6982 53.91L69.5369 53.9451V55.5543V57.1635L73.139 57.1241C77.0692 57.0812 77.1037 57.0748 77.4974 56.319C77.6677 55.9921 77.6939 55.5625 77.6593 53.6592C77.6219 51.594 77.5945 51.3563 77.3561 51.027C77.0633 50.6228 76.3123 50.0202 74.5485 48.7745C73.6117 48.113 73.3583 47.8692 73.3583 47.6302V47.3266L75.2392 47.2913L77.12 47.2559L77.4004 46.4327C77.5716 45.93 77.6808 45.306 77.6808 44.8309V44.0524H74.0494H70.4179L70.0087 44.4271ZM5.38754 50.6069V53.9513L4.60447 53.9131L3.8214 53.8749L3.78782 50.7316C3.76927 49.0027 3.78168 47.5149 3.81513 47.4253C3.8551 47.3186 4.13688 47.2624 4.63191 47.2624H5.38754V50.6069ZM28.9424 48.0328V48.8031H28.1906H27.4389V48.0328V47.2624H28.1906H28.9424V48.0328ZM40.5677 48.5142L40.5319 49.7661H39.7801H39.0284L38.9925 48.5142L38.9567 47.2624H39.7801H40.6035L40.5677 48.5142ZM52.2466 50.6069V53.9513L51.4636 53.9131L50.6805 53.8749L50.6469 50.7316C50.6284 49.0027 50.6408 47.5149 50.6742 47.4253C50.7142 47.3186 50.996 47.2624 51.491 47.2624H52.2466V50.6069ZM28.9424 52.9761V53.9391H28.1906H27.4389V52.9761V52.0131H28.1906H28.9424V52.9761ZM36.4912 61.7253L35.9587 62.0542V63.547V65.0396L35.507 64.3367C35.2586 63.9501 34.7473 63.1859 34.3708 62.6384C33.7437 61.7264 33.6501 61.6429 33.2563 61.6429H32.8264V64.2751V66.9073H33.3276H33.8288V65.2916C33.8288 64.4006 33.8787 63.6951 33.9403 63.7188C34.0017 63.7423 34.4343 64.3393 34.9016 65.0455C35.3691 65.7517 35.8404 66.4576 35.9491 66.6144C36.0918 66.8202 36.277 66.9003 36.6165 66.9033L37.0863 66.9073V64.1467C37.0863 62.6284 37.0722 61.3885 37.055 61.3912C37.0378 61.3939 36.784 61.5442 36.4912 61.7253ZM53.7201 61.6807L53.2515 61.9639L53.2502 64.4356L53.249 66.9073H53.7501H54.2513V64.1467C54.2513 62.6284 54.2371 61.3887 54.22 61.3918C54.2028 61.395 53.9778 61.525 53.7201 61.6807ZM13.7028 61.8819C12.9321 62.3778 12.7106 63.0679 13.0843 63.8086C13.2764 64.1891 13.7907 64.4601 14.933 64.7825C15.6583 64.9873 15.8765 65.2342 15.7145 65.6669C15.6186 65.9228 14.9336 66.1305 14.4791 66.0415C14.294 66.0053 14.056 65.84 13.9501 65.6743C13.764 65.3833 13.744 65.38 13.3626 65.5786C12.8322 65.8549 12.844 65.8296 13.0772 66.1944C13.3754 66.6609 13.9661 66.9277 14.7158 66.9346C16.0198 66.9467 16.6556 66.528 16.7481 65.5965C16.841 64.662 16.5084 64.2881 15.2286 63.888C14.0498 63.5196 13.7952 63.2766 14.1083 62.8184C14.3815 62.4189 15.3168 62.4249 15.5923 62.8279C15.7802 63.103 15.8013 63.1058 16.1318 62.9002C16.916 62.4127 16.2612 61.7396 14.937 61.6722C14.2665 61.6379 14.0155 61.6807 13.7028 61.8819ZM23.2506 63.3286C24.175 65.0029 24.1813 65.0205 24.1813 65.9607V66.9073H24.6825H25.1836V66.0361C25.1836 65.1885 25.2092 65.1187 26.1233 63.4658C26.6401 62.5315 27.063 61.739 27.063 61.705C27.063 61.6708 26.8103 61.6429 26.5013 61.6429C25.9573 61.6429 25.9301 61.6621 25.6364 62.2528C25.4697 62.5882 25.1934 63.1136 25.0225 63.4204L24.7118 63.978L24.1111 62.8105L23.5105 61.6429H22.9152H22.3201L23.2506 63.3286ZM43.1003 64.2747V66.9356L44.4472 66.8863C45.9802 66.8301 46.3955 66.6582 46.9386 65.855C47.1773 65.5022 47.2804 65.1544 47.3286 64.5406C47.3849 63.8201 47.3492 63.6126 47.0667 63.0208C46.5813 62.0041 46.0373 61.729 44.3846 61.6641L43.1003 61.6138V64.2747ZM61.4363 61.8908C60.6378 62.2623 60.2382 63.0526 60.2306 64.2755C60.2253 65.1125 60.2696 65.3046 60.5894 65.8325C61.0525 66.5965 61.6782 66.9431 62.5799 66.9347C63.314 66.9279 63.6579 66.7894 64.1807 66.2898C64.6203 65.8696 64.6152 65.6776 64.1579 65.4352C63.8042 65.2477 63.7765 65.2548 63.4158 65.6244C63.1645 65.8819 62.9158 66.0085 62.6614 66.0085C61.6837 66.0085 61.2045 65.3205 61.2944 64.0462C61.3418 63.3748 61.4012 63.2261 61.7488 62.9078C62.0198 62.6597 62.2839 62.5417 62.5683 62.5417C63.0211 62.5417 63.6482 62.9572 63.6482 63.2573C63.6482 63.4948 63.6764 63.4906 64.2031 63.172C64.6905 62.8774 64.6788 62.722 64.1295 62.1972C63.5012 61.597 62.3494 61.4659 61.4363 61.8908ZM72.0557 61.9318C71.8632 62.4563 70.4139 66.8022 70.4139 66.8553C70.4139 66.8839 70.6604 66.9073 70.9614 66.9073C71.5041 66.9073 71.5103 66.9021 71.6682 66.3246L71.8273 65.7419L72.8324 65.7789L73.8375 65.8159L73.9771 66.3295C74.109 66.8147 74.1459 66.8453 74.6459 66.8825C75.0511 66.9128 75.175 66.8767 75.175 66.7283C75.175 66.6217 74.871 65.6506 74.4997 64.5703C74.1282 63.4898 73.7573 62.3893 73.6755 62.1244C73.5277 61.6456 73.5229 61.6429 72.8443 61.6429C72.2514 61.6429 72.1478 61.681 72.0557 61.9318ZM80.8131 62.0923V62.5417H81.5649H82.3166V64.7245V66.9073H82.8804H83.4443V64.7318V62.5565L83.9706 62.517C84.4133 62.4838 84.5345 62.4113 84.7339 62.0602L84.9708 61.6429H82.892H80.8131V62.0923ZM90.7947 61.7286C90.7488 61.7756 90.7112 62.9601 90.7112 64.3607V66.9073H92.4653H94.2193V66.4579V66.0085H93.0291H91.8388V65.3665V64.7245H92.6927C93.5451 64.7245 93.5468 64.7237 93.7556 64.2751L93.9648 63.8257H92.9018H91.8388V63.1837V62.5417H93.0291H94.2193V62.0923V61.6429H92.5488C91.6299 61.6429 90.8406 61.6815 90.7947 61.7286ZM45.5021 62.7248C46.0532 62.9608 46.2864 63.4216 46.2864 64.2751C46.2864 65.4647 45.7802 66.0085 44.6727 66.0085H44.1027V64.2751V62.5417H44.5886C44.8558 62.5417 45.2669 62.6242 45.5021 62.7248ZM72.8858 64.828C72.5446 64.8496 72.2442 64.8453 72.218 64.8185C72.1918 64.7917 72.3204 64.3126 72.5037 63.7538L72.8371 62.7378L73.1716 63.7632L73.506 64.7887L72.8858 64.828Z" fill="white"/>
<path fill-rule="evenodd" clip-rule="evenodd" d="M49.4853 3.72507V7.45014L48.771 7.53052C43.9417 8.07368 40.0555 9.05647 36.1724 10.7163C33.1296 12.0171 29.4841 14.1539 27.3646 15.8793C27.1889 16.0223 26.8568 16.2817 26.6265 16.4557C23.687 18.6771 20.7882 21.8389 17.7487 26.1393C16.9413 27.2817 14.0816 32.5964 14.0816 32.9546C14.0816 32.9964 13.9467 33.3313 13.7818 33.6988C13.3171 34.7346 12.1075 38.3717 12.0967 38.7659C12.0952 38.8182 13.4496 38.8598 15.1065 38.8585L18.1189 38.8563L18.4213 37.8775C18.7563 36.793 18.9878 36.2045 19.6185 34.8351C19.8528 34.3266 20.0444 33.8874 20.0444 33.8588C20.0444 33.683 21.7162 30.7314 22.4451 29.6203C24.3656 26.6932 27.32 23.4154 29.9554 21.2879C35.383 16.9066 41.876 14.1933 48.6468 13.477L49.4853 13.3882V15.555V17.7215H52.4045H55.3238V15.5696V13.4177H55.6065C56.1793 13.4177 58.0367 13.6932 59.5194 13.998C69.6875 16.0884 78.3067 22.4302 83.6767 31.7722C84.6966 33.5466 85.5248 35.4211 86.6552 38.5127L86.7825 38.8608H89.7622H92.742L92.6595 38.5127C92.4718 37.7199 91.714 35.4221 91.2505 34.2406C87.4332 24.5074 80.2109 16.5043 71.0606 11.8682C66.3425 9.47774 61.6374 8.11761 56.0381 7.52571L55.3238 7.45014V3.72507V0H52.4045H49.4853V3.72507ZM49.9201 25.6516C46.9202 26.006 44.5567 26.6959 41.9698 27.9724C37.9559 29.9531 34.7826 32.8141 32.2113 36.7708C31.6669 37.6084 31.1002 38.6396 31.1002 38.7925C31.1002 38.8301 32.5755 38.8608 34.3787 38.8608H37.6572L38.5474 37.7923C41.1425 34.6776 44.9046 32.4533 48.9511 31.6411C50.8942 31.2511 53.8804 31.2471 55.7586 31.6322C57.3983 31.9684 57.9338 32.1256 59.2368 32.6536C61.8711 33.7212 64.4351 35.6002 66.307 37.8353L67.166 38.8608H70.4374C72.2367 38.8608 73.7088 38.812 73.7088 38.7522C73.7088 38.6926 73.3563 38.0455 72.9254 37.3144C69.1501 30.9092 62.6612 26.6276 55.327 25.7024C54.3622 25.5807 50.8034 25.5473 49.9201 25.6516ZM16.2712 71.3609C17.3988 73.3751 18.8383 75.4354 20.5384 77.4685C27.4986 85.7918 37.1154 91.0413 47.5909 92.2356L49.4853 92.4515V96.2258V100H52.4045H55.3238V96.2134V92.4269L56.2865 92.3434C64.0024 91.6747 72.1456 88.3686 78.243 83.4291C82.2744 80.1633 86.1339 75.6385 88.5368 71.3609L88.8745 70.7596L85.4842 70.7597H82.0939L81.2252 71.9306C76.1934 78.7121 68.9917 83.6058 61.2244 85.5217C60.8145 85.6228 60.2834 85.7561 60.0443 85.818C59.4034 85.9836 57.3894 86.312 56.2865 86.4306L55.3238 86.5342V84.2166V81.8989H52.4045H49.4853V84.1773V86.4558L48.9573 86.4518C47.8766 86.4436 45.0644 85.9443 43.1499 85.4208C40.1114 84.5899 36.7602 83.1556 34.0551 81.5282C32.6432 80.6787 30.5006 79.1114 29.122 77.9195C27.167 76.2295 24.3441 73.1201 23.1675 71.3609L22.7654 70.7596H19.35H15.9346L16.2712 71.3609ZM40.1685 71.0316C42.4905 72.4796 45.5776 73.6024 48.8642 74.1944C50.1017 74.4175 54.6967 74.4187 55.9449 74.1964C57.2068 73.9718 59.0381 73.5042 60.236 73.1007C61.2207 72.7691 63.8138 71.552 64.6405 71.0333L65.0753 70.7605H52.4045H39.7338L40.1685 71.0316Z" fill="#9545E4"/>
</svg>
