<svg width="278" height="286" viewBox="0 0 278 286" fill="none" xmlns="http://www.w3.org/2000/svg">
<path d="M268.584 194.256L267.531 197.08C267.252 196.895 266.984 196.667 266.725 196.397C266.462 196.137 266.2 195.767 265.939 195.287C265.673 194.817 265.478 194.298 265.354 193.73C265.236 193.176 265.219 192.492 265.302 191.677C265.372 190.869 265.573 190.017 265.907 189.121C266.644 187.147 267.729 185.761 269.163 184.962C270.607 184.167 272.251 184.113 274.093 184.8C275.773 185.426 276.932 186.501 277.569 188.025C278.213 189.562 278.135 191.405 277.334 193.552C276.735 195.16 275.903 196.38 274.839 197.212C273.785 198.048 272.729 198.471 271.669 198.482L272.401 195.4C273.847 195.069 274.829 194.207 275.349 192.813C275.603 192.131 275.71 191.487 275.67 190.881C275.629 190.274 275.468 189.757 275.188 189.328C274.903 188.909 274.579 188.55 274.215 188.252C273.847 187.965 273.449 187.741 273.021 187.582C271.962 187.187 270.937 187.217 269.945 187.67C268.948 188.133 268.236 188.94 267.807 190.09C267.196 191.728 267.455 193.117 268.584 194.256Z" fill="white"/>
<path d="M255.515 211.657L256.9 209.128L261.232 211.498L264.565 205.41L260.233 203.041L261.618 200.512L271.711 206.033L270.326 208.562L266.438 206.435L263.104 212.522L266.993 214.65L265.608 217.179L255.515 211.657Z" fill="white"/>
<path d="M245.282 226.091L251.869 217.224L261.107 224.079L254.715 232.685L253.053 231.452L257.726 225.161L255.645 223.617L251.128 229.699L249.479 228.475L253.997 222.394L251.798 220.762L246.931 227.315L245.282 226.091Z" fill="white"/>
<path d="M244.173 231.919L242.825 234.267C241.574 233.84 240.241 234.355 238.826 235.813C238.667 235.976 238.513 236.151 238.362 236.338C238.219 236.532 238.05 236.792 237.855 237.117C237.66 237.443 237.561 237.763 237.558 238.078C237.555 238.408 237.675 238.691 237.917 238.925C238.026 239.031 238.142 239.106 238.266 239.15C238.382 239.202 238.52 239.208 238.681 239.167C238.834 239.134 238.972 239.094 239.094 239.046C239.209 239.006 239.369 238.919 239.574 238.785C239.78 238.651 239.943 238.538 240.065 238.444C240.186 238.365 240.372 238.228 240.623 238.032C241.36 237.476 241.873 237.088 242.161 236.868C242.458 236.657 242.797 236.433 243.177 236.197C243.558 235.96 243.901 235.786 244.207 235.674C245.452 235.202 246.527 235.405 247.431 236.282C248.016 236.85 248.33 237.509 248.372 238.261C248.421 239.021 248.256 239.761 247.875 240.48C247.502 241.208 246.967 241.93 246.271 242.647C244.19 244.791 242.131 245.593 240.095 245.056L241.499 242.627C242.502 242.919 243.621 242.43 244.854 241.159C246.019 239.959 246.282 239.049 245.643 238.429C245.307 238.104 244.858 238.091 244.294 238.392C244.057 238.526 243.031 239.248 241.214 240.558C240.88 240.793 240.602 240.985 240.382 241.135C240.161 241.284 239.852 241.446 239.455 241.621C239.051 241.803 238.687 241.905 238.365 241.925C238.043 241.945 237.681 241.889 237.279 241.757C236.885 241.632 236.513 241.4 236.162 241.06C234.314 239.267 234.748 236.972 237.465 234.174C238.6 233.005 239.706 232.248 240.784 231.901C241.855 231.562 242.985 231.568 244.173 231.919Z" fill="white"/>
<path d="M226.525 256.767L229.855 254.121L224.002 246.764L226.273 244.959L232.125 252.316L235.468 249.66L236.776 251.305L227.834 258.412L226.525 256.767Z" fill="white"/>
<path d="M207.008 258.16L212.12 268.463L206.469 271.264C205.535 271.727 204.669 272.023 203.872 272.152C203.07 272.295 202.251 272.222 201.416 271.932C200.106 271.467 199.072 270.47 198.314 268.943C197.508 267.318 197.377 265.783 197.921 264.337C198.2 263.58 198.615 262.938 199.166 262.411C199.712 261.898 200.467 261.402 201.43 260.925L207.008 258.16ZM205.343 261.258L202.321 262.756C201.318 263.253 200.675 263.887 200.391 264.659C200.106 265.43 200.287 266.467 200.934 267.771C201.528 268.968 202.274 269.677 203.172 269.898C203.823 270.061 204.654 269.891 205.666 269.389L208.645 267.913L205.343 261.258Z" fill="white"/>
<path d="M179.715 269.49L190.184 265.958L193.864 276.854L183.704 280.282L183.042 278.322L190.469 275.816L189.64 273.362L182.46 275.785L181.803 273.84L188.983 271.417L188.108 268.825L180.371 271.435L179.715 269.49Z" fill="white"/>
<path d="M165.722 282.233L169.891 281.388L168.023 272.177L170.866 271.601L172.734 280.812L176.919 279.965L177.337 282.024L166.14 284.292L165.722 282.233Z" fill="white"/>
<path d="M145.201 274.712L148.42 274.492L149.543 276.587L155.429 276.185L156.257 273.956L159.395 273.742L154.635 285.595L151.53 285.807L145.201 274.712ZM150.609 278.555L152.916 282.904L154.641 278.279L150.609 278.555Z" fill="white"/>
<path d="M136.697 274.396L139.58 274.508L139.131 286L136.249 285.888L136.697 274.396Z" fill="white"/>
<path d="M120.763 272.722L129.953 273.96L128.417 285.358L125.558 284.972L126.812 275.674L120.48 274.821L120.763 272.722Z" fill="white"/>
<path d="M112.009 270.821L114.818 271.475L112.207 282.675L109.398 282.021L112.009 270.821Z" fill="white"/>
<path d="M93.5211 264.995L96.1953 265.938L100.212 275.905L102.896 268.301L105.478 269.212L101.649 280.057L98.929 279.097L94.9479 269.177L92.2743 276.75L89.6924 275.84L93.5211 264.995Z" fill="white"/>
<path d="M75.6079 256.086L77.5499 257.12L76.9294 258.284C78.4285 257.827 80.089 258.084 81.9111 259.054C83.6277 259.967 84.7973 261.076 85.42 262.379C86.2314 264.091 86.1418 265.876 85.151 267.736C84.722 268.541 84.2028 269.169 83.5933 269.62C82.9788 270.08 82.4092 270.398 81.8846 270.574C80.0903 271.169 78.0616 270.865 75.7984 269.66C75.0216 269.246 74.3244 268.765 73.7067 268.214C73.0793 267.659 72.5596 266.982 72.1476 266.185C71.7259 265.382 71.5285 264.551 71.5555 263.692L74.5674 264.797C74.7625 266.094 75.5409 267.105 76.9026 267.83C77.9959 268.412 79.0607 268.585 80.0972 268.349C81.1337 268.114 81.9508 267.435 82.5483 266.314C82.7934 265.853 82.9532 265.403 83.0277 264.963C83.1023 264.523 83.1122 264.135 83.0577 263.798C82.9936 263.456 82.8806 263.125 82.7187 262.805C82.5517 262.495 82.3787 262.231 82.1996 262.012C82.0058 261.798 81.7948 261.594 81.5665 261.398C81.3286 261.198 81.1355 261.052 80.9872 260.961C80.8388 260.87 80.7023 260.791 80.5777 260.725C79.9735 260.403 79.3301 260.19 78.6475 260.085C77.9501 259.984 77.3095 260.043 76.7254 260.261C76.4507 260.361 76.1469 260.55 75.8141 260.828L79.137 262.597L78.1641 264.423L72.7122 261.521L75.6079 256.086Z" fill="white"/>
<path d="M51.0902 242.483L48.8156 240.504C49.0869 240.308 49.3946 240.137 49.7387 239.99C50.0745 239.836 50.5132 239.721 51.0547 239.645C51.588 239.561 52.1425 239.561 52.7181 239.645C53.2785 239.729 53.9256 239.953 54.6594 240.318C55.3922 240.667 56.1193 241.156 56.8405 241.783C58.4307 243.166 59.3476 244.669 59.5913 246.291C59.8278 247.922 59.3006 249.479 58.0098 250.962C56.833 252.314 55.4189 253.02 53.7673 253.081C52.1005 253.143 50.4023 252.422 48.6728 250.917C47.3778 249.791 46.5276 248.584 46.1224 247.296C45.71 246.016 45.6848 244.878 46.047 243.883L48.6766 245.652C48.4783 247.121 48.9406 248.343 50.0636 249.32C50.6127 249.798 51.1783 250.124 51.7604 250.299C52.3425 250.474 52.8837 250.506 53.3843 250.394C53.8766 250.275 54.3263 250.098 54.7335 249.862C55.1324 249.618 55.4817 249.325 55.7812 248.981C56.5229 248.129 56.856 247.159 56.7804 246.071C56.6966 244.976 56.1916 244.026 55.2654 243.22C53.9458 242.073 52.554 241.827 51.0902 242.483Z" fill="white"/>
<path d="M39.3869 224.135L41.2688 226.32L37.5264 229.54L42.0558 234.799L45.7983 231.579L47.6802 233.764L38.9602 241.267L37.0782 239.082L40.4378 236.192L35.9083 230.932L32.5488 233.823L30.6668 231.638L39.3869 224.135Z" fill="white"/>
<path d="M29.4658 209.485L35.4555 218.766L25.7866 225L19.9736 215.993L21.7129 214.872L25.9622 221.456L28.1398 220.052L24.0318 213.687L25.7574 212.574L29.8654 218.939L32.1662 217.456L27.7402 210.598L29.4658 209.485Z" fill="white"/>
<path d="M24.3976 206.399L22.673 204.312C23.5125 203.291 23.4984 201.863 22.6309 200.027C22.5335 199.82 22.4239 199.614 22.3022 199.407C22.1707 199.205 21.9867 198.956 21.7504 198.659C21.5141 198.362 21.249 198.157 20.955 198.043C20.6467 197.925 20.3402 197.937 20.0356 198.081C19.8981 198.146 19.7869 198.228 19.702 198.329C19.6125 198.419 19.5586 198.546 19.5403 198.711C19.5174 198.866 19.5069 199.009 19.5088 199.14C19.506 199.262 19.5311 199.442 19.5841 199.681C19.637 199.92 19.6861 200.113 19.7314 200.26C19.7623 200.402 19.8253 200.624 19.9205 200.928C20.1825 201.813 20.3655 202.429 20.4694 202.776C20.5636 203.128 20.6543 203.524 20.7416 203.963C20.829 204.402 20.8714 204.784 20.8689 205.11C20.873 206.441 20.3052 207.375 19.1655 207.913C18.4287 208.261 17.7007 208.322 16.9816 208.097C16.2527 207.877 15.618 207.462 15.0777 206.852C14.5275 206.247 14.039 205.493 13.6122 204.589C12.3365 201.889 12.3084 199.68 13.5281 197.964L15.3091 200.132C14.6828 200.968 14.7477 202.186 15.5039 203.787C16.2183 205.299 16.9784 205.865 17.784 205.485C18.2065 205.285 18.3762 204.869 18.2933 204.236C18.2507 203.967 17.9354 202.753 17.3473 200.593C17.2444 200.197 17.1619 199.87 17.0997 199.611C17.0375 199.352 16.9942 199.006 16.9699 198.573C16.941 198.13 16.9738 197.755 17.0682 197.446C17.1626 197.137 17.3423 196.818 17.6073 196.489C17.8625 196.164 18.2112 195.898 18.6533 195.689C20.9817 194.59 22.9787 195.803 24.6442 199.329C25.34 200.802 25.6607 202.103 25.6061 203.234C25.5468 204.355 25.144 205.41 24.3976 206.399Z" fill="white"/>
<path d="M7.32997 181.149L8.63765 185.195L17.5859 182.305L18.4777 185.064L9.52948 187.954L10.8422 192.015L8.84161 192.661L5.32942 181.795L7.32997 181.149Z" fill="white"/>
<path d="M12.8872 162.396L1.44001 163.557L0.803459 157.285C0.698189 156.248 0.72553 155.334 0.885482 154.543C1.03353 153.742 1.38977 153.002 1.95422 152.322C2.8511 151.26 4.14808 150.642 5.84516 150.47C7.65034 150.287 9.13422 150.704 10.2968 151.722C10.9073 152.249 11.3628 152.864 11.6632 153.564C11.9518 154.256 12.1503 155.136 12.2589 156.206L12.8872 162.396ZM10.571 159.75L10.2305 156.395C10.1175 155.282 9.74987 154.457 9.12746 153.92C8.50506 153.383 7.46963 153.187 6.02116 153.334C4.69159 153.469 3.76519 153.918 3.24194 154.68C2.8611 155.232 2.72771 156.07 2.84175 157.193L3.1773 160.499L10.571 159.75Z" fill="white"/>
<path d="M11.8717 132.874L11.4994 143.912L-6.22779e-06 143.525L0.361309 132.812L2.42991 132.882L2.16578 140.713L4.7556 140.8L5.01094 133.23L7.06325 133.299L6.80791 140.869L9.54432 140.961L9.81943 132.805L11.8717 132.874Z" fill="white"/>
<path d="M4.85688 115.302L4.18211 119.5L13.4666 120.991L13.0065 123.853L3.72192 122.362L3.04456 126.576L0.968819 126.243L2.78113 114.968L4.85688 115.302Z" fill="white"/>
<path d="M19.1162 98.7434L18.1903 101.833L15.8333 102.148L14.1404 107.797L15.9362 109.355L15.0336 112.366L5.6062 103.745L6.49942 100.764L19.1162 98.7434ZM13.6152 102.453L8.73107 103.082L12.4554 106.323L13.6152 102.453Z" fill="white"/>
<path d="M22.4017 90.8976L21.283 93.5552L10.6776 89.095L11.7963 86.4374L22.4017 90.8976Z" fill="white"/>
<path d="M29.5713 76.5764L25.1806 84.7404L15.0461 79.2951L16.4119 76.7555L24.6803 81.1981L27.7052 75.5737L29.5713 76.5764Z" fill="white"/>
<path d="M34.4305 69.0538L32.8299 71.4525L23.2576 65.0712L24.8582 62.6725L34.4305 69.0538Z" fill="white"/>
<path d="M46.387 53.8032L44.5634 55.9738L33.816 56.2275L39.994 61.4128L38.2333 63.5086L29.4219 56.1129L31.2769 53.9049L41.9679 53.6677L35.8149 48.5033L37.5757 46.4076L46.387 53.8032Z" fill="white"/>
<path d="M61.0292 40.1735L59.3783 41.6272L58.5056 40.6371C58.4066 42.2005 57.5826 43.6642 56.0336 45.0281C54.5743 46.313 53.1247 47.0177 51.685 47.142C49.7967 47.2995 48.1559 46.5879 46.7626 45.007C46.1593 44.3225 45.7538 43.6159 45.5459 42.8871C45.3308 42.1503 45.2331 41.5054 45.2527 40.9527C45.3261 39.0645 46.3248 37.2733 48.2489 35.5792C48.9092 34.9978 49.6057 34.5148 50.3383 34.1302C51.079 33.7385 51.8953 33.4901 52.7873 33.3849C53.6873 33.2726 54.535 33.3801 55.3303 33.7074L53.2365 36.1372C51.9528 35.8636 50.7322 36.2365 49.5745 37.2558C48.6451 38.0742 48.1086 39.0097 47.9649 40.0625C47.8213 41.1152 48.1696 42.1183 49.0099 43.0717C49.3546 43.4628 49.72 43.7707 50.1061 43.9952C50.4922 44.2196 50.8524 44.3655 51.1869 44.4329C51.5295 44.493 51.8791 44.5036 52.2357 44.4646C52.5851 44.4174 52.8935 44.3485 53.161 44.2577C53.4294 44.1516 53.6953 44.026 53.9585 43.8811C54.2299 43.729 54.4344 43.5996 54.572 43.4929C54.7096 43.3862 54.8314 43.2862 54.9374 43.1929C55.451 42.7406 55.877 42.2135 56.2153 41.6117C56.5546 40.9945 56.7248 40.3744 56.7258 39.7512C56.7289 39.459 56.6587 39.1083 56.5153 38.6991L53.6904 41.1865L52.3222 39.6341L56.957 35.5531L61.0292 40.1735Z" fill="white"/>
<path d="M82.3906 22.0152L85.043 20.5824C85.1311 20.9051 85.1835 21.2533 85.2003 21.6269C85.2266 21.9954 85.1802 22.4463 85.0611 22.9797C84.9515 23.508 84.7566 24.0269 84.4762 24.5363C84.2003 25.0309 83.7625 25.5575 83.1629 26.116C82.578 26.6788 81.865 27.1874 81.0239 27.6418C79.1696 28.6434 77.4397 28.973 75.8342 28.6305C74.2236 28.2785 72.9508 27.2378 72.0158 25.5086C71.1635 23.9322 70.9992 22.3607 71.5229 20.7939C72.051 19.2125 73.3235 17.877 75.3403 16.7876C76.8506 15.9718 78.2801 15.6008 79.6291 15.6744C80.9729 15.7386 82.0471 16.115 82.8517 16.8037L80.2705 18.6424C78.9648 17.9405 77.6571 17.9432 76.3477 18.6506C75.7072 18.9965 75.2027 19.411 74.834 19.8941C74.4654 20.3772 74.2454 20.8725 74.174 21.3801C74.1123 21.8826 74.1203 22.3658 74.1983 22.8298C74.2859 23.2886 74.4381 23.7187 74.6551 24.1199C75.1923 25.1135 75.9836 25.7662 77.029 26.0779C78.084 26.3845 79.1515 26.246 80.2316 25.6626C81.7705 24.8313 82.4902 23.6155 82.3906 22.0152Z" fill="white"/>
<path d="M103.69 17.5155L100.981 18.5081L99.2812 13.8741L92.7629 16.2633L94.4631 20.8973L91.7548 21.89L87.7934 11.0926L90.5017 10.0999L92.0279 14.2598L98.5461 11.8707L97.0199 7.71075L99.7282 6.71804L103.69 17.5155Z" fill="white"/>
<path d="M120.898 13.3828L110.1 15.7243L107.661 4.48513L118.14 2.21279L118.579 4.23455L110.918 5.89566L111.468 8.42684L118.874 6.82101L119.309 8.82684L111.903 10.4327L112.484 13.1071L120.463 11.377L120.898 13.3828Z" fill="white"/>
<path d="M125.571 9.72558L128.132 8.84539C128.793 9.98977 130.136 10.4789 132.161 10.3128C132.388 10.2942 132.62 10.2642 132.856 10.223C133.092 10.171 133.39 10.0866 133.751 9.96984C134.112 9.85305 134.398 9.67712 134.607 9.44198C134.827 9.19515 134.923 8.90396 134.895 8.56845C134.883 8.41693 134.845 8.28384 134.781 8.16921C134.728 8.05374 134.627 7.95846 134.479 7.88342C134.342 7.80749 134.212 7.74734 134.088 7.703C133.976 7.65777 133.798 7.61788 133.555 7.58331C133.313 7.54873 133.115 7.52682 132.961 7.5176C132.818 7.49667 132.587 7.47744 132.27 7.45992C131.349 7.39382 130.707 7.34838 130.345 7.32357C129.983 7.28796 129.58 7.23379 129.138 7.1611C128.696 7.0884 128.323 6.99368 128.019 6.87695C126.771 6.41274 126.096 5.55285 125.992 4.29736C125.926 3.48559 126.124 2.78286 126.588 2.18911C127.051 1.58453 127.662 1.13662 128.423 0.845392C129.184 0.543329 130.062 0.351404 131.058 0.269709C134.036 0.0254153 136.114 0.775659 137.293 2.52044L134.637 3.42483C134.074 2.54482 132.91 2.17721 131.145 2.32199C129.477 2.4588 128.68 2.97094 128.753 3.85845C128.791 4.32388 129.121 4.62911 129.744 4.77419C130.01 4.82864 131.258 4.9605 133.488 5.16982C133.895 5.21273 134.23 5.25057 134.495 5.28335C134.759 5.31616 135.098 5.39733 135.512 5.52682C135.937 5.65539 136.277 5.81814 136.533 6.01507C136.79 6.212 137.025 6.49233 137.24 6.85604C137.455 7.20895 137.582 7.6289 137.622 8.11596C137.832 10.6811 135.994 12.1231 132.106 12.442C130.482 12.5753 129.15 12.4176 128.11 11.969C127.081 11.5194 126.235 10.7717 125.571 9.72558Z" fill="white"/>
<path d="M155.221 2.63308L150.972 2.43426L150.532 11.8231L147.635 11.6875L148.074 2.29864L143.809 2.09905L143.907 -6.29039e-06L155.319 0.53402L155.221 2.63308Z" fill="white"/>
<path d="M170.831 14.4259L173.768 3.30657L179.866 4.9161C180.875 5.18227 181.721 5.52929 182.406 5.95715C183.104 6.37725 183.672 6.97085 184.11 7.73788C184.79 8.95061 184.912 10.3813 184.477 12.0297C184.013 13.7832 183.101 15.025 181.739 15.7551C181.031 16.1409 180.295 16.3512 179.533 16.3859C178.784 16.4129 177.89 16.2892 176.85 16.0147L170.831 14.4259ZM174.124 13.1892L177.386 14.0501C178.468 14.3357 179.37 14.2817 180.092 13.8882C180.814 13.4947 181.361 12.5945 181.732 11.1875C182.074 9.89602 181.979 8.87142 181.449 8.1137C181.066 7.56338 180.328 7.14407 179.236 6.85571L176.021 6.00729L174.124 13.1892Z" fill="white"/>
<path d="M198.838 23.8554L188.631 19.6262L193.037 9.00225L202.943 13.1068L202.15 15.0179L194.909 12.0175L193.917 14.4101L200.917 17.3107L200.131 19.2067L193.13 16.3061L192.082 18.8342L199.624 21.9594L198.838 23.8554Z" fill="white"/>
<path d="M217.763 23.4701L214.069 21.3628L209.408 29.5262L206.888 28.0891L211.549 19.9257L207.841 17.8103L208.883 15.9853L218.805 21.645L217.763 23.4701Z" fill="white"/>
<path d="M228.258 42.6346L225.69 40.6819L226.224 38.3658L221.528 34.7956L219.437 35.9282L216.934 34.0248L228.323 28.2347L230.801 30.1184L228.258 42.6346ZM226.718 36.1831L227.845 31.3917L223.501 33.7372L226.718 36.1831Z" fill="white"/>
<path d="M234.451 48.4672L232.355 46.486L240.261 38.1305L242.357 40.1117L234.451 48.4672Z" fill="white"/>
<path d="M245.343 60.211L239.241 53.2322L247.904 45.6637L249.802 47.8346L242.734 54.0094L246.939 58.8174L245.343 60.211Z" fill="white"/>
<path d="M250.681 67.4025L248.997 65.0615L258.339 58.3483L260.023 60.6894L250.681 67.4025Z" fill="white"/>
<path d="M260.761 83.9523L259.369 81.4828L262.91 71.3372L255.882 75.2948L254.538 72.9104L264.562 67.2658L265.978 69.7779L262.442 79.8649L269.442 75.9233L270.786 78.3077L260.761 83.9523Z" fill="white"/>
<path d="M268.378 102.445L267.597 100.389L268.831 99.921C267.402 99.2787 266.32 97.993 265.588 96.0641C264.897 94.2468 264.747 92.6427 265.137 91.2518C265.653 89.4296 266.896 88.1445 268.867 87.3966C269.72 87.0727 270.525 86.9417 271.28 87.0034C272.046 87.0612 272.684 87.1965 273.195 87.4092C274.938 88.1417 276.264 89.706 277.174 92.102C277.487 92.9243 277.694 93.7458 277.797 94.5665C277.903 95.3973 277.849 96.2485 277.634 97.1201C277.423 98.0018 277.024 98.7572 276.438 99.3862L274.898 96.5728C275.606 95.4678 275.686 94.1945 275.138 92.7529C274.698 91.5955 274.011 90.7645 273.075 90.26C272.14 89.7554 271.078 89.7287 269.889 90.1798C269.402 90.3648 268.985 90.5985 268.639 90.8808C268.293 91.1632 268.03 91.449 267.849 91.7382C267.672 92.0377 267.54 92.3611 267.451 92.7084C267.372 93.0519 267.328 93.3648 267.319 93.647C267.324 93.9355 267.348 94.2284 267.391 94.5256C267.438 94.833 267.488 95.0699 267.539 95.2362C267.591 95.4025 267.642 95.5516 267.692 95.6836C267.935 96.3232 268.279 96.9071 268.723 97.4353C269.182 97.9698 269.703 98.347 270.287 98.5671C270.559 98.6727 270.912 98.7303 271.346 98.74L270.009 95.2221L271.944 94.4878L274.137 100.259L268.378 102.445Z" fill="white"/>
</svg>
