<svg width="96" height="90" viewBox="0 0 96 90" fill="none" xmlns="http://www.w3.org/2000/svg">
<path fill-rule="evenodd" clip-rule="evenodd" d="M37.632 18.1305C37.1273 18.3282 36.9005 18.5106 36.8959 18.7228C36.895 18.7671 37.0693 18.7282 37.2832 18.6363C37.917 18.364 37.9377 18.3862 37.8536 19.2475C37.8119 19.6756 37.7521 20.1164 37.7208 20.2275C37.6798 20.3734 37.7282 20.4292 37.896 20.4292C38.0235 20.4292 38.1278 20.363 38.1278 20.2821C38.1278 20.2012 38.1801 19.7069 38.2439 19.1837C38.3954 17.9407 38.3438 17.8519 37.632 18.1305ZM35.603 19.3735C35.4295 19.6432 35.3465 19.8933 35.391 20.0128C35.4564 20.1878 35.483 20.1817 35.6366 19.9562C35.8056 19.7081 35.8155 19.7166 36.1554 20.4081C36.4196 20.9457 36.5396 21.0889 36.6608 21.0117C36.7918 20.9283 36.7442 20.7361 36.3907 19.9204C36.1547 19.3759 35.9451 18.9304 35.9249 18.9304C35.9047 18.9304 35.7598 19.1298 35.603 19.3735ZM33.4765 20.2172C33.2008 20.4402 33.1746 20.5212 33.2261 20.9914C33.2716 21.4061 33.3682 21.5962 33.6856 21.8953C34.1525 22.3352 34.3956 22.3656 34.8045 22.0349C35.4703 21.4966 34.8937 19.9681 34.0248 19.9681C33.8927 19.9681 33.646 20.0801 33.4765 20.2172ZM34.5473 20.9266C34.8587 21.4461 34.7943 21.7551 34.3747 21.7551C34.1034 21.7551 33.9948 21.6697 33.7877 21.2939C33.4837 20.7421 33.482 20.7255 33.706 20.4953C33.9337 20.2612 34.2436 20.4201 34.5473 20.9266ZM31.3815 21.5827C31.0323 21.9417 31.0079 22.1904 31.3159 22.2518C31.4302 22.2746 31.5074 22.1918 31.5309 22.0212C31.5543 21.8508 31.6555 21.7422 31.8123 21.7192C32.1902 21.664 32.2868 21.9952 32.1254 22.7927C31.928 23.7683 32.0157 23.8527 32.7207 23.3647C33.2893 22.971 33.4548 22.7351 33.1626 22.7351C33.0837 22.7351 32.9038 22.8182 32.7628 22.9198C32.4331 23.1572 32.3872 23.0986 32.5227 22.6129C32.6874 22.0224 32.6576 21.7228 32.4086 21.4669C32.094 21.1433 31.7737 21.1795 31.3815 21.5827ZM28.6174 23.7898C28.2306 24.1722 28.045 24.4399 28.0876 24.5539C28.1422 24.7002 28.199 24.6854 28.4274 24.4647L28.7016 24.1999L29.3525 24.9229C29.8907 25.5208 30.026 25.6176 30.135 25.4826C30.2411 25.3513 30.148 25.1824 29.6575 24.6162C29.1363 24.0147 29.0722 23.8925 29.2145 23.7711C29.3853 23.6254 29.4472 23.1943 29.2967 23.1988C29.2504 23.2 28.9447 23.466 28.6174 23.7898ZM31.0992 24.0726C31.0198 24.2852 31.291 24.5067 31.4413 24.3522C31.5638 24.2263 31.4514 23.888 31.2872 23.888C31.2216 23.888 31.1371 23.971 31.0992 24.0726ZM26.9051 25.4932C26.5599 25.8481 26.5067 26.0732 26.6863 26.4184C26.8595 26.751 27.1181 26.7854 27.5886 26.5387C28.1362 26.2515 28.3716 26.2476 28.3716 26.5257C28.3716 26.7762 28.186 26.958 27.8682 27.0186C27.7456 27.042 27.6283 27.1513 27.6077 27.2616C27.5431 27.6063 28.0254 27.4951 28.4389 27.0701C28.866 26.6309 28.9188 26.3215 28.615 26.0388C28.3415 25.7842 28.0837 25.7983 27.6197 26.0932C27.3571 26.2599 27.1971 26.3007 27.1193 26.2207C26.9435 26.0399 27.0581 25.6829 27.3075 25.6342C27.4301 25.6102 27.5676 25.5318 27.6129 25.4599C27.8858 25.0267 27.3336 25.0527 26.9051 25.4932ZM25.2929 27.3057C25.0742 27.6002 24.6694 27.9916 24.6694 28.0337C24.6694 28.1241 26.0204 29.1574 26.2647 29.2537C26.5051 29.3486 27.5017 28.1536 27.3382 27.951C27.2474 27.8385 27.1426 27.9129 26.8851 28.2728C26.5673 28.7171 26.5398 28.7311 26.3424 28.5474C26.1404 28.3595 26.1403 28.3455 26.341 28.0521C26.4693 27.8648 26.5184 27.6667 26.4706 27.5301C26.4032 27.3373 26.362 27.3623 26.1403 27.731C25.9256 28.0883 25.8542 28.1343 25.6714 28.0337C25.3885 27.878 25.3994 27.7534 25.7357 27.3001C25.9917 26.955 26.0068 26.7703 25.7788 26.7703C25.7302 26.7703 25.5115 27.0113 25.2929 27.3057ZM0 45.3094V51.2239L3.6726 51.1894C7.70069 51.1513 7.69217 51.1528 8.01805 50.4465C8.15935 50.1405 8.18604 49.3094 8.18458 45.2573C8.1829 40.1141 8.18021 40.0875 7.62354 39.6628C7.36315 39.4641 7.05622 39.4453 3.67059 39.4211L0 39.3948V45.3094ZM12.1953 39.4268L10.5412 39.4586V44.7051C10.5412 50.3029 10.552 50.4231 11.098 50.9241C11.3369 51.1431 11.5337 51.1564 15.0384 51.1894L18.7275 51.2239V45.3383V39.4525H17.0454H15.3633V43.8912V48.33H14.6904H14.0176V43.898C14.0176 41.4604 13.9797 39.45 13.9335 39.4304C13.8873 39.4108 13.1051 39.4092 12.1953 39.4268ZM21.3898 39.4314L21.0804 39.468L21.1095 45.3113L21.1385 51.1547L24.6427 51.1851C29.5225 51.2275 29.3248 51.3512 29.3248 48.257C29.3248 45.9826 29.2521 45.7645 28.3894 45.4513C27.8046 45.2389 27.7972 45.0618 28.366 44.8865C28.6423 44.8015 28.9059 44.6103 29.0668 44.3783C29.3004 44.0417 29.3285 43.8556 29.3638 42.4098C29.4067 40.655 29.2539 39.9306 28.7823 39.653C28.6105 39.5517 27.5422 39.4933 25.1195 39.4525C23.2383 39.4208 21.5599 39.4113 21.3898 39.4314ZM34.8477 39.4248L31.5115 39.4559V45.3341V51.2123H33.1936H34.8757V49.3676V47.5229H35.2638C35.7022 47.5229 35.6032 47.2899 36.2166 49.7641C36.4043 50.5212 36.5578 51.1567 36.5578 51.1764C36.5578 51.1962 37.3148 51.2123 38.2399 51.2123H39.9221V50.4878C39.9221 49.8992 39.8207 49.4917 39.3818 48.3153L38.8414 46.8675L39.2416 46.5194L39.6417 46.1713L39.6751 43.2094L39.7086 40.2476L39.3219 39.85C39.1093 39.6314 38.8334 39.4525 38.7089 39.4525C38.5844 39.4525 38.4153 39.4392 38.3332 39.4231C38.251 39.4069 36.6826 39.4077 34.8477 39.4248ZM52.0332 39.8643C52.0332 40.1224 52.1573 41.1082 52.3089 42.0548C52.4605 43.0014 52.6414 44.1391 52.7109 44.583C52.7804 45.0269 52.8792 45.6235 52.9304 45.9088C52.9815 46.1942 53.08 46.7908 53.1491 47.2347C53.2182 47.6786 53.3883 48.7422 53.527 49.5982L53.7792 51.1547H56.3472H58.9152L59.789 45.7359C60.2696 42.7556 60.664 40.1253 60.6655 39.8909L60.6681 39.4646L59.0923 39.4298C58.2255 39.4105 57.4534 39.4208 57.3764 39.4525C57.2961 39.4856 57.225 39.7562 57.2098 40.0866C57.1952 40.4036 57.1362 41.1819 57.0789 41.816C57.0215 42.4501 56.919 43.7212 56.8511 44.6406C56.6762 47.0108 56.5535 48.2175 56.4799 48.2931C56.445 48.3291 56.3486 48.3317 56.2659 48.2991C56.1541 48.255 56.0637 47.5451 55.9153 45.5466C55.8053 44.0654 55.6695 42.4126 55.6134 41.8736C55.5574 41.3346 55.5103 40.6342 55.5088 40.3172C55.5074 40.0001 55.4645 39.6731 55.4136 39.5907C55.3455 39.4804 54.8849 39.4345 53.6771 39.4178L52.0332 39.3948V39.8643ZM73.1998 39.4268L71.5457 39.4586V45.3385V51.2183L73.2349 51.1865L74.9242 51.1547L74.945 48.9064L74.966 46.6582H75.2988C75.597 46.6582 75.6414 46.7063 75.7244 47.1194C75.7754 47.3731 75.981 48.3847 76.1811 49.3676L76.5453 51.1547L78.2507 51.1865L79.9562 51.2183V50.4916C79.9562 49.8992 79.8121 49.3215 79.1762 47.3652L78.3961 44.9655L78.8503 43.506C79.1001 42.7034 79.3748 41.8131 79.4609 41.5277C79.5469 41.2424 79.6179 40.6573 79.6186 40.2276L79.6198 39.4461L78.0218 39.4782L76.4238 39.5101L76.0286 41.5854L75.6333 43.6606H75.2997H74.966L74.9496 41.5494C74.9406 40.3882 74.9154 39.4284 74.8935 39.4165C74.8717 39.4045 74.1095 39.4092 73.1998 39.4268ZM82.0298 39.4343C81.9996 39.4654 81.9748 42.1282 81.9748 45.3516V51.2123H83.6569H85.339V45.3324V39.4525L84.0774 39.4426C83.3836 39.4371 82.6514 39.4203 82.4504 39.4052C82.2494 39.39 82.0601 39.4031 82.0298 39.4343ZM93.9786 39.4525L92.5816 39.5101L92.3848 40.6054C92.2765 41.2078 92.0994 42.2082 91.9913 42.8285C91.6576 44.7435 91.4595 44.3159 90.8153 40.2883L90.6815 39.4525H88.9635H87.2454V40.1645C87.2454 40.8 87.3903 41.2597 88.5911 44.4337L89.9368 47.9908V49.6015V51.2123H91.6189H93.301V49.6119V48.0117L94.646 44.4526C95.87 41.2137 95.991 40.8262 95.9917 40.1442C95.9925 39.2741 96.2398 39.3592 93.9786 39.4525ZM42.463 39.6893C41.9544 40.1006 41.9254 40.4417 41.9622 45.5897L41.9967 50.401L42.3631 50.7779L42.7295 51.1547L45.8649 51.1902C48.6247 51.2214 49.0482 51.2023 49.4003 51.0305C50.1456 50.6668 50.1373 50.7372 50.1023 45.1488L50.0708 40.1251L49.7045 39.7888L49.3383 39.4525H46.0471C42.8969 39.4525 42.7433 39.4626 42.463 39.6893ZM62.6604 39.7889L62.2941 40.1253V42.2593C62.2941 44.8159 62.2242 44.661 63.9284 45.8815C66.183 47.4961 66.1069 47.4266 66.1069 47.8709V48.2723L64.1725 48.3039L62.238 48.3354V49.7804V51.2253L65.4621 51.1899C68.9797 51.1514 69.0107 51.1457 69.363 50.467C69.5154 50.1735 69.5388 49.7877 69.5079 48.0786C69.4745 46.2243 69.4499 46.0109 69.2365 45.7152C68.9744 45.3522 68.3023 44.8111 66.7237 43.6926C65.8852 43.0986 65.6583 42.8797 65.6583 42.6651V42.3924L67.3418 42.3607L69.0252 42.329L69.2762 41.5898C69.4294 41.1384 69.5272 40.5781 69.5272 40.1515V39.4525H66.2769H63.0266L62.6604 39.7889ZM4.82205 45.3379V48.3409L4.12117 48.3067L3.42029 48.2723L3.39023 45.4499C3.37364 43.8975 3.38474 42.5616 3.41468 42.4811C3.45045 42.3853 3.70266 42.3348 4.14573 42.3348H4.82205V45.3379ZM25.9045 43.0265V43.7183H25.2316H24.5588V43.0265V42.3348H25.2316H25.9045V43.0265ZM36.3096 43.4589L36.2775 44.583H35.6046H34.9318L34.8997 43.4589L34.8677 42.3348H35.6046H36.3416L36.3096 43.4589ZM46.7626 45.3379V48.3409L46.0617 48.3067L45.3609 48.2723L45.3308 45.4499C45.3142 43.8975 45.3253 42.5616 45.3553 42.4811C45.391 42.3853 45.6432 42.3348 46.0863 42.3348H46.7626V45.3379ZM25.9045 47.4653V48.33H25.2316H24.5588V47.4653V46.6006H25.2316H25.9045V47.4653ZM32.6609 55.3214L32.1844 55.6168V56.9572V58.2975L31.7801 57.6664C31.5577 57.3192 31.1001 56.633 30.7631 56.1414C30.2018 55.3225 30.118 55.2475 29.7656 55.2475H29.3808V57.611V59.9745H29.8294H30.278V58.5238C30.278 57.7237 30.3227 57.0902 30.3778 57.1115C30.4327 57.1326 30.8199 57.6687 31.2382 58.3028C31.6566 58.9369 32.0785 59.5708 32.1757 59.7115C32.3034 59.8964 32.4692 59.9683 32.7731 59.9709L33.1936 59.9745V57.4957C33.1936 56.1324 33.1809 55.019 33.1656 55.0214C33.1502 55.0239 32.923 55.1589 32.6609 55.3214ZM48.0814 55.2814L47.662 55.5358L47.6609 57.7551L47.6598 59.9745H48.1083H48.5569V57.4957C48.5569 56.1324 48.5442 55.0193 48.5288 55.022C48.5135 55.0249 48.3121 55.1416 48.0814 55.2814ZM12.2645 55.4621C11.5747 55.9074 11.3764 56.527 11.711 57.1922C11.8829 57.5338 12.3432 57.7772 13.3656 58.0667C14.0148 58.2506 14.21 58.4723 14.065 58.8608C13.9792 59.0906 13.3661 59.277 12.9593 59.1971C12.7937 59.1646 12.5806 59.0162 12.4858 58.8674C12.3193 58.6061 12.3014 58.6031 11.96 58.7815C11.4853 59.0296 11.4959 59.0069 11.7046 59.3344C11.9715 59.7533 12.5002 59.9929 13.1711 59.9991C14.3383 60.0099 14.9074 59.6339 14.9902 58.7975C15.0733 57.9584 14.7756 57.6227 13.6301 57.2634C12.5751 56.9326 12.3472 56.7144 12.6275 56.303C12.8719 55.9442 13.7091 55.9497 13.9557 56.3116C14.1239 56.5585 14.1427 56.5611 14.4385 56.3765C15.1404 55.9387 14.5544 55.3344 13.3692 55.2738C12.769 55.243 12.5444 55.2814 12.2645 55.4621ZM20.8102 56.7611C21.6375 58.2645 21.6431 58.2803 21.6431 59.1246V59.9745H22.0917H22.5403V59.1923C22.5403 58.4312 22.5631 58.3685 23.3813 56.8843C23.8439 56.0454 24.2224 55.3338 24.2224 55.3032C24.2224 55.2725 23.9962 55.2475 23.7196 55.2475C23.2327 55.2475 23.2084 55.2647 22.9455 55.7952C22.7963 56.0963 22.549 56.5681 22.396 56.8435L22.1179 57.3442L21.5803 56.2959L21.0427 55.2475H20.51H19.9773L20.8102 56.7611ZM38.5764 57.6107V60L39.7819 59.9557C41.1539 59.9052 41.5257 59.7509 42.0118 59.0297C42.2254 58.7129 42.3177 58.4005 42.3608 57.8494C42.4112 57.2024 42.3793 57.0161 42.1264 56.4847C41.692 55.5718 41.2051 55.3248 39.7258 55.2666L38.5764 55.2214V57.6107ZM54.9877 55.47C54.273 55.8037 53.9154 56.5133 53.9086 57.6114C53.9039 58.363 53.9434 58.5354 54.2297 59.0094C54.6442 59.6955 55.2042 60.0067 56.0113 59.9992C56.6683 59.9931 56.9762 59.8687 57.444 59.4201C57.8375 59.0427 57.8329 58.8704 57.4236 58.6527C57.107 58.4844 57.0823 58.4907 56.7594 58.8226C56.5346 59.0538 56.312 59.1675 56.0842 59.1675C55.2092 59.1675 54.7802 58.5497 54.8607 57.4055C54.9031 56.8026 54.9563 56.6691 55.2674 56.3833C55.5099 56.1605 55.7463 56.0546 56.0009 56.0546C56.4062 56.0546 56.9674 56.4277 56.9674 56.6971C56.9674 56.9104 56.9927 56.9066 57.4641 56.6205C57.9003 56.356 57.8899 56.2164 57.3983 55.7453C56.8359 55.2063 55.805 55.0885 54.9877 55.47ZM64.4925 55.5069C64.3201 55.9779 63.023 59.8802 63.023 59.9278C63.023 59.9535 63.2436 59.9745 63.5131 59.9745C63.9987 59.9745 64.0044 59.9699 64.1457 59.4513L64.2881 58.9281L65.1877 58.9613L66.0873 58.9945L66.2122 59.4557C66.3303 59.8914 66.3632 59.9188 66.8108 59.9523C67.1734 59.9795 67.2844 59.9471 67.2844 59.8138C67.2844 59.7181 67.0123 58.8462 66.6799 57.8761C66.3474 56.9059 66.0155 55.9177 65.9423 55.6799C65.8099 55.25 65.8057 55.2475 65.1983 55.2475C64.6677 55.2475 64.5749 55.2817 64.4925 55.5069ZM72.3307 55.6511V56.0546H73.0035H73.6764V58.0145V59.9745H74.181H74.6856V58.0211V56.0678L75.1567 56.0323C75.5529 56.0026 75.6615 55.9374 75.8399 55.6222L76.052 55.2475H74.1913H72.3307V55.6511ZM81.2646 55.3244C81.2234 55.3666 81.1898 56.4302 81.1898 57.6879V59.9745H82.7598H84.3297V59.571V59.1675H83.2644H82.1991V58.591V58.0145H82.9633C83.7263 58.0145 83.7278 58.0139 83.9147 57.611L84.1019 57.2075H83.1505H82.1991V56.631V56.0546H83.2644H84.3297V55.6511V55.2475H82.8346C82.0121 55.2475 81.3056 55.2821 81.2646 55.3244ZM40.726 56.219C41.2193 56.4309 41.428 56.8447 41.428 57.611C41.428 58.6792 40.9749 59.1675 39.9837 59.1675H39.4735V57.611V56.0546H39.9084C40.1476 56.0546 40.5155 56.1286 40.726 56.219ZM65.2354 58.1075C64.9301 58.1268 64.6612 58.123 64.6377 58.0989C64.6143 58.0748 64.7293 57.6447 64.8934 57.1429L65.1918 56.2306L65.4912 57.1514L65.7905 58.0722L65.2354 58.1075Z" fill="white"/>
<path fill-rule="evenodd" clip-rule="evenodd" d="M44.3805 3.35256V6.70511L43.7428 6.77746C39.4312 7.2663 35.9616 8.15081 32.4948 9.6447C29.7781 10.8154 26.5235 12.7385 24.6312 14.2913C24.4744 14.4201 24.1778 14.6535 23.9722 14.8101C21.3478 16.8094 18.7598 19.655 16.0461 23.5253C15.3252 24.5535 12.7722 29.3367 12.7722 29.6591C12.7722 29.6967 12.6517 29.9981 12.5044 30.3289C12.0895 31.2611 11.0096 34.5345 11 34.8892C10.9987 34.9363 12.2079 34.9738 13.6872 34.9726L16.3766 34.9706L16.6466 34.0897C16.9457 33.1136 17.1524 32.584 17.7155 31.3516C17.9247 30.8939 18.0957 30.4986 18.0957 30.4729C18.0957 30.3146 19.5883 27.6583 20.2391 26.6582C21.9537 24.0238 24.5914 21.0738 26.9442 19.1591C31.79 15.2159 37.5869 12.774 43.6319 12.1293L44.3805 12.0494V13.9994V15.9494H46.9868H49.5931V14.0127V12.0759H49.8455C50.3569 12.0759 52.0152 12.3238 53.339 12.5982C62.417 14.4795 70.1122 20.1871 74.9065 28.5949C75.8172 30.1919 76.5566 31.8789 77.5657 34.6614L77.6794 34.9747H80.3397H83L82.9264 34.6614C82.7588 33.9479 82.0823 31.8798 81.6685 30.8165C78.2603 22.0566 71.8123 14.8539 63.643 10.6814C59.4306 8.52995 55.2299 7.30584 50.2308 6.77313L49.5931 6.70511V3.35256V0H46.9868H44.3805V3.35256ZM44.7687 23.0864C42.0904 23.4054 39.9803 24.0262 37.6707 25.1752C34.0871 26.9577 31.254 29.5326 28.9583 33.0937C28.4723 33.8475 27.9664 34.7755 27.9664 34.9132C27.9664 34.947 29.2835 34.9747 30.8934 34.9747H33.8204L34.6152 34.0131C36.932 31.2098 40.2908 29.208 43.9036 28.4769C45.6384 28.1259 48.3045 28.1224 49.9813 28.4689C51.4452 28.7715 51.9234 28.913 53.0867 29.3882C55.4385 30.349 57.7276 32.0401 59.3989 34.0517L60.1658 34.9747H63.0865C64.6929 34.9747 66.0073 34.9307 66.0073 34.8769C66.0073 34.8233 65.6925 34.2409 65.3078 33.5829C61.9372 27.8182 56.1439 23.9648 49.596 23.1322C48.7346 23.0226 45.5573 22.9925 44.7687 23.0864ZM14.727 64.2247C15.7337 66.0374 17.0189 67.8918 18.5368 69.7215C24.7508 77.2125 33.3367 81.937 42.6892 83.0119L44.3805 83.2063V86.6031V90H46.9868H49.5931V86.592V83.184L50.4526 83.109C57.3414 82.5071 64.6116 79.5316 70.0553 75.0861C73.6546 72.1468 77.1003 68.0745 79.2456 64.2247L79.5471 63.6835L76.5203 63.6837H73.4934L72.7179 64.7374C68.2255 70.8408 61.7958 75.2451 54.8612 76.9694C54.4952 77.0604 54.021 77.1804 53.8075 77.2361C53.2354 77.3851 51.4373 77.6807 50.4526 77.7875L49.5931 77.8806V75.7948V73.7089H46.9868H44.3805V75.7595V77.8101L43.9091 77.8065C42.9443 77.7991 40.4336 77.3498 38.7243 76.8786C36.0115 76.1308 33.0196 74.8399 30.6045 73.3753C29.3439 72.6107 27.431 71.2001 26.2002 70.1274C24.4547 68.6064 21.9345 65.808 20.884 64.2247L20.525 63.6835H17.4757H14.4265L14.727 64.2247ZM36.0625 63.9284C38.1356 65.2315 40.8917 66.2421 43.826 66.7749C44.9308 66.9756 49.0332 66.9767 50.1476 66.7767C51.2742 66.5745 52.9092 66.1536 53.9787 65.7906C54.8578 65.4921 57.173 64.3967 57.9111 63.9298L58.2993 63.6843H46.9868H35.6743L36.0625 63.9284Z" fill="#9545E4"/>
</svg>
