<svg width="170" height="160" viewBox="0 0 170 160" fill="none" xmlns="http://www.w3.org/2000/svg">
<path fill-rule="evenodd" clip-rule="evenodd" d="M66.7761 32.4757C65.8889 32.8279 65.4903 33.1528 65.4822 33.5307C65.4806 33.6096 65.7869 33.5404 66.1628 33.3767C67.2769 32.8916 67.3134 32.9312 67.1656 34.4654C67.0922 35.228 66.9872 36.0134 66.9322 36.2112C66.86 36.4712 66.9452 36.5706 67.2401 36.5706C67.4642 36.5706 67.6475 36.4527 67.6475 36.3085C67.6475 36.1643 67.7393 35.2839 67.8515 34.3518C68.1178 32.1376 68.0271 31.9793 66.7761 32.4757ZM63.2095 34.6899C62.9046 35.1703 62.7587 35.616 62.837 35.8287C62.9519 36.1405 62.9986 36.1296 63.2687 35.7279C63.5657 35.2859 63.5831 35.3011 64.1805 36.533C64.6449 37.4907 64.8558 37.7458 65.0689 37.6082C65.2991 37.4597 65.2155 37.1173 64.5942 35.6642C64.1793 34.6942 63.8109 33.9006 63.7754 33.9006C63.74 33.9006 63.4853 34.2557 63.2095 34.6899ZM59.4719 36.1929C58.9872 36.5901 58.9411 36.7345 59.0318 37.572C59.1116 38.3108 59.2815 38.6495 59.8393 39.1822C60.6601 39.966 61.0874 40.02 61.8061 39.431C62.9763 38.472 61.9628 35.7491 60.4356 35.7491C60.2034 35.7491 59.7697 35.9487 59.4719 36.1929ZM61.3539 37.4566C61.9013 38.3821 61.7882 38.9325 61.0506 38.9325C60.5738 38.9325 60.3828 38.7803 60.0189 38.111C59.4845 37.128 59.4816 37.0984 59.8752 36.6883C60.2755 36.2713 60.8201 36.5544 61.3539 37.4566ZM55.7895 38.6254C55.1757 39.265 55.1327 39.708 55.6742 39.8173C55.875 39.8579 56.0106 39.7105 56.052 39.4065C56.0932 39.103 56.271 38.9095 56.5466 38.8686C57.2108 38.7702 57.3807 39.3603 57.0969 40.7809C56.75 42.5189 56.9041 42.6692 58.1434 41.7998C59.1427 41.0985 59.4337 40.6782 58.92 40.6782C58.7814 40.6782 58.4653 40.8263 58.2173 41.0073C57.6378 41.4301 57.5572 41.3258 57.7953 40.4605C58.0848 39.4088 58.0324 38.875 57.5948 38.419C57.0417 37.8427 56.4788 37.9072 55.7895 38.6254ZM50.9309 42.5571C50.251 43.2383 49.9248 43.7152 49.9997 43.9184C50.0957 44.179 50.1954 44.1525 50.597 43.7594L51.0789 43.2876L52.2229 44.5756C53.1691 45.6407 53.4068 45.8132 53.5984 45.5727C53.7848 45.3388 53.6212 45.0379 52.7591 44.0293C51.8429 42.9578 51.7304 42.7401 51.9805 42.5238C52.2807 42.2642 52.3895 41.4963 52.125 41.5043C52.0436 41.5065 51.5062 41.9804 50.9309 42.5571ZM55.2931 43.0609C55.1536 43.4396 55.6304 43.8341 55.8945 43.5589C56.1098 43.3347 55.9123 42.7321 55.6237 42.7321C55.5084 42.7321 55.3598 42.8799 55.2931 43.0609ZM47.9212 45.5916C47.3145 46.2238 47.2208 46.6249 47.5366 47.2398C47.841 47.8323 48.2955 47.8935 49.1226 47.454C50.0851 46.9424 50.4988 46.9354 50.4988 47.4308C50.4988 47.8771 50.1726 48.201 49.614 48.309C49.3985 48.3507 49.1923 48.5454 49.1561 48.7418C49.0425 49.3559 49.8903 49.1579 50.6171 48.4006C51.3679 47.6183 51.4607 47.0671 50.9267 46.5635C50.446 46.11 49.9928 46.135 49.1772 46.6604C48.7157 46.9574 48.4345 47.0301 48.2977 46.8876C47.9886 46.5655 48.19 45.9295 48.6284 45.8428C48.8441 45.8001 49.0857 45.6604 49.1653 45.5322C49.6449 44.7606 48.6743 44.8068 47.9212 45.5916ZM45.0873 48.8204C44.7029 49.345 43.9914 50.0422 43.9914 50.1172C43.9914 50.2782 46.3662 52.1191 46.7955 52.2906C47.2181 52.4596 48.9698 50.3308 48.6824 49.9699C48.5228 49.7695 48.3387 49.902 47.8861 50.5432C47.3275 51.3347 47.279 51.3596 46.9321 51.0324C46.5771 50.6976 46.5769 50.6728 46.9297 50.1501C47.1552 49.8163 47.2415 49.4635 47.1574 49.2201C47.0389 48.8767 46.9666 48.9213 46.5769 49.5781C46.1994 50.2146 46.074 50.2965 45.7528 50.1172C45.2554 49.8399 45.2746 49.6179 45.8657 48.8104C46.3157 48.1956 46.3421 47.8666 45.9414 47.8666C45.856 47.8666 45.4717 48.2959 45.0873 48.8204ZM0.629639 80.8923V91.4285L7.08503 91.3668C14.1653 91.2991 14.1503 91.3017 14.7231 90.0436C14.9715 89.4985 15.0184 88.0179 15.0158 80.7995C15.0129 71.6374 15.0081 71.5899 14.0297 70.8333C13.572 70.4794 13.0325 70.446 7.08149 70.4028L0.629639 70.356V80.8923ZM22.0655 70.4129L19.1581 70.4696V79.8157C19.1581 89.7877 19.177 90.0019 20.1368 90.8942C20.5566 91.2845 20.9025 91.3081 27.0629 91.3668L33.5472 91.4285V80.9437V70.4587H30.5906H27.6339V78.3659V86.2731H26.4512H25.2686V78.378C25.2686 74.0356 25.2019 70.4544 25.1207 70.4195C25.0395 70.3846 23.6647 70.3817 22.0655 70.4129ZM38.2268 70.4211L37.683 70.4864L37.7341 80.8956L37.7851 91.305L43.9445 91.3592C52.5218 91.4348 52.1743 91.6552 52.1743 86.1431C52.1743 82.0916 52.0465 81.703 50.5301 81.145C49.5022 80.7666 49.4892 80.4512 50.4889 80.139C50.9746 79.9874 51.438 79.6469 51.7209 79.2337C52.1315 78.6339 52.1808 78.3025 52.2428 75.727C52.3183 72.6008 52.0497 71.3104 51.2208 70.8159C50.9188 70.6355 49.041 70.5314 44.7826 70.4587C41.476 70.4022 38.5259 70.3854 38.2268 70.4211ZM61.882 70.4094L56.0179 70.4649V80.9363V91.4077H58.9746H61.9313V88.1216V84.8355H62.6135C63.384 84.8355 63.2099 84.4204 64.2881 88.8279C64.6181 90.1766 64.8879 91.3087 64.8879 91.3438C64.8879 91.379 66.2184 91.4077 67.8446 91.4077H70.8013V90.1171C70.8013 89.0686 70.6231 88.3426 69.8516 86.2471L68.9017 83.6679L69.6052 83.0478L70.3085 82.4276L70.3672 77.1513L70.4262 71.8752L69.7463 71.1669C69.3726 70.7775 68.8877 70.4587 68.6689 70.4587C68.4501 70.4587 68.1529 70.4351 68.0086 70.4063C67.8641 70.3776 65.1073 70.379 61.882 70.4094ZM92.0893 71.1923C92.0893 71.6522 92.3073 73.4082 92.5738 75.0946C92.8403 76.7808 93.1582 78.8075 93.2804 79.5982C93.4026 80.3889 93.5763 81.4518 93.6662 81.9601C93.7561 82.4684 93.9291 83.5313 94.0507 84.322C94.1722 85.1127 94.4712 87.0074 94.7148 88.5324L95.1581 91.305H99.672H104.186L105.722 81.652C106.567 76.3429 107.26 71.6573 107.262 71.2398L107.267 70.4803L104.497 70.4182C102.974 70.3839 101.616 70.4022 101.481 70.4587C101.34 70.5176 101.215 70.9997 101.188 71.5883C101.163 72.1531 101.059 73.5394 100.958 74.669C100.857 75.7986 100.677 78.063 100.558 79.7009C100.25 83.9232 100.035 86.0727 99.9053 86.2074C99.8438 86.2715 99.6745 86.2762 99.5291 86.2181C99.3325 86.1396 99.1737 84.8749 98.9129 81.3148C98.7195 78.6763 98.4808 75.7319 98.3823 74.7717C98.2837 73.8116 98.2009 72.5639 98.1984 71.9991C98.1958 71.4343 98.1205 70.8518 98.031 70.705C97.9114 70.5084 97.1016 70.4267 94.9787 70.3969L92.0893 70.356V71.1923ZM129.294 70.4129L126.387 70.4696V80.9441V91.4184L129.356 91.3617L132.325 91.305L132.362 87.3001L132.399 83.2951H132.984C133.508 83.2951 133.586 83.3807 133.732 84.1166C133.821 84.5685 134.183 86.3707 134.534 88.1216L135.174 91.305L138.172 91.3617L141.17 91.4184V90.1239C141.17 89.0686 140.917 88.0394 139.799 84.5545L138.428 80.2797L139.226 77.6797C139.665 76.2499 140.148 74.6639 140.299 74.1556C140.451 73.6473 140.575 72.6049 140.577 71.8395L140.579 70.4474L137.77 70.5045L134.961 70.5614L134.266 74.2583L133.572 77.9552H132.985H132.399L132.37 74.1942C132.354 72.1256 132.31 70.4158 132.271 70.3946C132.233 70.3733 130.893 70.3817 129.294 70.4129ZM144.815 70.4262C144.762 70.4817 144.718 75.2252 144.718 80.9675V91.4077H147.675H150.631V80.9332V70.4587L148.414 70.441C147.194 70.4314 145.907 70.4014 145.554 70.3745C145.201 70.3474 144.868 70.3708 144.815 70.4262ZM165.817 70.4587L163.362 70.5614L163.016 72.5125C162.825 73.5856 162.514 75.3678 162.324 76.4727C161.738 79.8841 161.389 79.1223 160.257 71.9477L160.022 70.4587H157.002H153.982V71.7271C153.982 72.8592 154.237 73.6781 156.348 79.3322L158.713 85.6689V88.5383V91.4077H161.67H164.626V88.5568V85.7061L166.99 79.3659C169.142 73.5961 169.355 72.9058 169.356 71.691C169.357 70.141 169.792 70.2925 165.817 70.4587ZM75.2676 70.8806C74.3735 71.6134 74.3227 72.2209 74.3873 81.3916L74.4478 89.9624L75.092 90.6338L75.736 91.305L81.2472 91.3683C86.0981 91.4239 86.8424 91.3898 87.4613 91.0838C88.7713 90.436 88.7567 90.5613 88.6952 80.6062L88.6398 71.6569L87.9961 71.0578L87.3523 70.4587H81.5673C76.0302 70.4587 75.7602 70.4768 75.2676 70.8806ZM110.769 71.058L110.125 71.6573V75.4587C110.125 80.0131 110.002 79.7373 112.998 81.9114C116.961 84.7876 116.827 84.6638 116.827 85.4553V86.1705L113.427 86.2267L110.026 86.2828V88.8569V91.4309L115.693 91.3679C121.876 91.2993 121.931 91.289 122.55 90.0801C122.818 89.5572 122.859 88.87 122.805 85.8254C122.746 82.522 122.703 82.1419 122.328 81.6151C121.867 80.9685 120.686 80.0047 117.911 78.0121C116.437 76.9539 116.038 76.5639 116.038 76.1817V75.6959L118.997 75.6395L121.956 75.583L122.398 74.2661C122.667 73.462 122.839 72.4638 122.839 71.7039V70.4587H117.126H111.413L110.769 71.058ZM9.10543 80.9431V86.2927L7.87348 86.2317L6.64153 86.1705L6.58871 81.1425C6.55954 78.377 6.57905 75.9972 6.63168 75.8539C6.69456 75.6832 7.13786 75.5933 7.91665 75.5933H9.10543V80.9431ZM46.1624 76.8256V78.0578H44.9797H43.797V76.8256V75.5933H44.9797H46.1624V76.8256ZM64.4515 77.5957L64.3952 79.5982H63.2125H62.0298L61.9734 77.5957L61.9171 75.5933H63.2125H64.5079L64.4515 77.5957ZM82.8251 80.9431V86.2927L81.5931 86.2317L80.3612 86.1705L80.3083 81.1425C80.2792 78.377 80.2987 75.9972 80.3513 75.8539C80.4142 75.6832 80.8575 75.5933 81.6363 75.5933H82.8251V80.9431ZM46.1624 84.7328V86.2731H44.9797H43.797V84.7328V83.1924H44.9797H46.1624V84.7328ZM58.0383 98.7277L57.2006 99.2539V101.642V104.029L56.49 102.905C56.0991 102.287 55.2947 101.064 54.7024 100.188C53.7159 98.7296 53.5686 98.5961 52.9491 98.5961H52.2728V102.806V107.017H53.0613H53.8497V104.432C53.8497 103.007 53.9283 101.879 54.0251 101.917C54.1217 101.954 54.8023 102.909 55.5376 104.039C56.273 105.168 57.0145 106.298 57.1854 106.548C57.4099 106.878 57.7013 107.006 58.2354 107.01L58.9746 107.017V102.601C58.9746 100.172 58.9523 98.189 58.9253 98.1933C58.8983 98.1976 58.499 98.4381 58.0383 98.7277ZM85.1431 98.6565L84.4059 99.1096L84.4039 103.063L84.402 107.017H85.1904H85.9788V102.601C85.9788 100.172 85.9566 98.1894 85.9296 98.1944C85.9026 98.1995 85.5485 98.4073 85.1431 98.6565ZM22.1871 98.9783C20.9747 99.7715 20.6262 100.875 21.2142 102.06C21.5163 102.669 22.3255 103.102 24.1225 103.618C25.2636 103.946 25.6068 104.341 25.3519 105.033C25.2011 105.442 24.1235 105.774 23.4084 105.632C23.1173 105.574 22.7428 105.31 22.5762 105.044C22.2835 104.579 22.252 104.574 21.652 104.891C20.8176 105.333 20.8361 105.293 21.2029 105.876C21.6721 106.623 22.6014 107.049 23.7808 107.061C25.8323 107.08 26.8326 106.41 26.9781 104.92C27.1242 103.425 26.601 102.827 24.5875 102.187C22.7331 101.598 22.3326 101.209 22.8252 100.476C23.2549 99.8372 24.7263 99.8469 25.1597 100.492C25.4554 100.931 25.4885 100.936 26.0085 100.607C27.2422 99.8274 26.2121 98.7507 24.1289 98.6429C23.0739 98.5881 22.6791 98.6565 22.1871 98.9783ZM37.208 101.292C38.6623 103.971 38.6721 103.999 38.6721 105.503V107.017H39.4606H40.249V105.623C40.249 104.268 40.2892 104.156 41.7273 101.512C42.5404 100.017 43.2057 98.7497 43.2057 98.6953C43.2057 98.6407 42.8081 98.5961 42.322 98.5961C41.4662 98.5961 41.4234 98.6267 40.9614 99.5717C40.699 100.108 40.2644 100.949 39.9955 101.439L39.5067 102.331L38.5617 100.464L37.6168 98.5961H36.6803H35.744L37.208 101.292ZM68.4359 102.806V107.062L70.5549 106.983C72.9665 106.893 73.62 106.618 74.4744 105.334C74.8499 104.769 75.0122 104.213 75.0879 103.231C75.1766 102.079 75.1204 101.747 74.6759 100.8C73.9123 99.1738 73.0564 98.7337 70.4563 98.63L68.4359 98.5495V102.806ZM97.2824 98.9925C96.0262 99.5869 95.3976 100.851 95.3856 102.807C95.3773 104.146 95.4469 104.453 95.9501 105.298C96.6786 106.52 97.663 107.074 99.0816 107.061C100.236 107.05 100.778 106.828 101.6 106.029C102.292 105.357 102.283 105.05 101.564 104.662C101.008 104.362 100.964 104.373 100.397 104.965C100.001 105.377 99.6101 105.579 99.2097 105.579C97.6717 105.579 96.9177 104.479 97.0593 102.44C97.1338 101.366 97.2272 101.128 97.774 100.619C98.2003 100.223 98.6158 100.034 99.0633 100.034C99.7756 100.034 100.762 100.698 100.762 101.178C100.762 101.558 100.807 101.552 101.635 101.042C102.402 100.571 102.384 100.322 101.519 99.4827C100.531 98.5226 98.7189 98.3129 97.2824 98.9925ZM113.989 99.0582C113.686 99.8972 111.406 106.849 111.406 106.934C111.406 106.979 111.794 107.017 112.268 107.017C113.121 107.017 113.131 107.009 113.379 106.085L113.63 105.153L115.211 105.212L116.792 105.271L117.012 106.093C117.219 106.869 117.277 106.918 118.064 106.977C118.701 107.026 118.896 106.968 118.896 106.73C118.896 106.56 118.418 105.007 117.834 103.279C117.25 101.55 116.666 99.79 116.537 99.3663C116.305 98.6004 116.297 98.5961 115.23 98.5961C114.297 98.5961 114.134 98.6569 113.989 99.0582ZM127.766 99.3149V100.034H128.949H130.132V103.525V107.017H131.019H131.906V103.537V100.057L132.734 99.9941C133.43 99.9411 133.621 99.8251 133.935 99.2636L134.307 98.5961H131.037H127.766V99.3149ZM143.47 98.7331C143.397 98.8083 143.338 100.703 143.338 102.943V107.017H146.098H148.857V106.298V105.579H146.985H145.112V104.552V103.525H146.456C147.797 103.525 147.799 103.524 148.128 102.806L148.457 102.088H146.785H145.112V101.061V100.034H146.985H148.857V99.3149V98.5961H146.229C144.784 98.5961 143.542 98.6577 143.47 98.7331ZM72.2144 100.327C73.0815 100.704 73.4483 101.441 73.4483 102.806C73.4483 104.709 72.6519 105.579 70.9097 105.579H70.0128V102.806V100.034H70.7772C71.1977 100.034 71.8444 100.166 72.2144 100.327ZM115.295 103.691C114.758 103.725 114.286 103.719 114.244 103.676C114.203 103.633 114.405 102.866 114.694 101.973L115.218 100.347L115.745 101.988L116.271 103.628L115.295 103.691Z" fill="white"/>
<path fill-rule="evenodd" clip-rule="evenodd" d="M78.0453 6.33518V12.2651L76.9279 12.393C69.373 13.2577 63.2934 14.8222 57.2187 17.4645C52.4585 19.5352 46.7555 22.9368 43.4398 25.6833C43.165 25.911 42.6453 26.3239 42.285 26.601C37.6865 30.1372 33.1517 35.1704 28.3967 42.0162C27.1335 43.8348 22.66 52.2952 22.66 52.8654C22.66 52.9319 22.4489 53.4651 22.1908 54.0501C21.4638 55.699 19.5716 61.4889 19.5547 62.1164C19.5524 62.1996 21.6712 62.2659 24.2632 62.2639L28.9758 62.2602L29.4489 60.7022C29.973 58.9757 30.3352 58.0389 31.3218 55.859C31.6884 55.0495 31.988 54.3503 31.988 54.3048C31.988 54.0249 34.6034 49.3264 35.7437 47.5576C38.7482 42.898 43.37 37.68 47.4928 34.2933C55.9837 27.3188 66.1414 22.9995 76.7336 21.8592L78.0453 21.7179V25.1671V28.6161H82.6122H87.1791V25.1905V21.7649H87.6214C88.5175 21.7649 91.4231 22.2033 93.7427 22.6886C109.65 26.0162 123.134 36.1117 131.534 50.9832C133.13 53.8079 134.426 56.7918 136.194 61.7133L136.393 62.2675H141.054H145.716L145.587 61.7133C145.293 60.4513 144.108 56.7934 143.383 54.9125C137.411 39.4184 126.112 26.6784 111.798 19.2982C104.417 15.4928 97.0561 13.3276 88.2965 12.3854L87.1791 12.2651V6.33518V0.405273H82.6122H78.0453V6.33518ZM78.7255 41.2398C74.0325 41.804 70.3351 42.9022 66.2881 44.9344C60.0088 48.0873 55.0445 52.6418 51.0219 58.9404C50.1704 60.2738 49.2838 61.9152 49.2838 62.1587C49.2838 62.2185 51.5917 62.2675 54.4127 62.2675H59.5416L60.9342 60.5666C64.9938 55.6083 70.8793 52.0675 77.2097 50.7744C80.2495 50.1536 84.9211 50.1473 87.8593 50.7603C90.4245 51.2955 91.2622 51.5458 93.3006 52.3863C97.4217 54.0858 101.433 57.0769 104.361 60.6349L105.705 62.2675H110.823C113.638 62.2675 115.941 62.1897 115.941 62.0946C115.941 61.9997 115.389 60.9696 114.715 59.8057C108.809 49.6093 98.6577 42.7936 87.1841 41.3208C85.6747 41.1269 80.1074 41.0737 78.7255 41.2398ZM26.0853 114.004C27.8493 117.21 30.1012 120.49 32.7609 123.727C43.6495 136.976 58.6939 145.333 75.0817 147.234L78.0453 147.578V153.586V159.595H82.6122H87.1791V153.567V147.539L88.6852 147.406C100.756 146.341 113.495 141.079 123.034 133.215C129.341 128.017 135.378 120.814 139.137 114.004L139.666 113.047L134.362 113.047H129.058L127.699 114.911C119.827 125.706 108.561 133.497 96.41 136.546C95.7687 136.707 94.9379 136.92 94.5638 137.018C93.5612 137.282 90.4105 137.805 88.6852 137.993L87.1791 138.158V134.469V130.779H82.6122H78.0453V134.406V138.034L77.2194 138.027C75.5287 138.014 71.1294 137.219 68.1343 136.386C63.3809 135.063 58.1383 132.78 53.9065 130.189C51.6976 128.837 48.3458 126.342 46.189 124.445C43.1306 121.754 38.7145 116.805 36.8738 114.004L36.2447 113.047H30.9017H25.5587L26.0853 114.004ZM63.4702 113.48C67.1027 115.785 71.9322 117.572 77.0737 118.515C79.0096 118.87 86.1981 118.872 88.1507 118.518C90.1248 118.16 92.9897 117.416 94.8637 116.774C96.4042 116.246 100.461 114.308 101.754 113.483L102.434 113.048H82.6122H62.7901L63.4702 113.48Z" fill="#9545E4"/>
</svg>
